<?xml version="1.0" encoding="utf-8" standalone="no"?>
<!DOCTYPE svg PUBLIC "-//W3C//DTD SVG 1.1//EN"
  "http://www.w3.org/Graphics/SVG/1.1/DTD/svg11.dtd">
<svg xmlns:xlink="http://www.w3.org/1999/xlink" width="864pt" height="576pt" viewBox="0 0 864 576" xmlns="http://www.w3.org/2000/svg" version="1.1">
 <metadata>
  <rdf:RDF xmlns:dc="http://purl.org/dc/elements/1.1/" xmlns:cc="http://creativecommons.org/ns#" xmlns:rdf="http://www.w3.org/1999/02/22-rdf-syntax-ns#">
   <cc:Work>
    <dc:type rdf:resource="http://purl.org/dc/dcmitype/StillImage"/>
    <dc:date>2024-06-04T18:58:14.420133</dc:date>
    <dc:format>image/svg+xml</dc:format>
    <dc:creator>
     <cc:Agent>
      <dc:title>Matplotlib v3.7.2, https://matplotlib.org/</dc:title>
     </cc:Agent>
    </dc:creator>
   </cc:Work>
  </rdf:RDF>
 </metadata>
 <defs>
  <style type="text/css">*{stroke-linejoin: round; stroke-linecap: butt}</style>
 </defs>
 <g id="figure_1">
  <g id="patch_1">
   <path d="M 0 576 
L 864 576 
L 864 0 
L 0 0 
z
" style="fill: #ffffff"/>
  </g>
  <g id="axes_1">
   <g id="patch_2">
    <path d="M 41.16125 253.69 
L 423.364527 253.69 
L 423.364527 26.91375 
L 41.16125 26.91375 
z
" style="fill: #ffffff"/>
   </g>
   <g id="matplotlib.axis_1">
    <g id="xtick_1">
     <g id="line2d_1">
      <defs>
       <path id="m0bb2ae0946" d="M 0 0 
L 0 3.5 
" style="stroke: #000000; stroke-width: 0.8"/>
      </defs>
      <g>
       <use xlink:href="#m0bb2ae0946" x="43.427277" y="253.69" style="stroke: #000000; stroke-width: 0.8"/>
      </g>
     </g>
     <g id="text_1">
      <!-- 0 -->
      <g transform="translate(40.927277 267.565) scale(0.1 -0.1)">
       <defs>
        <path id="SimHei-30" d="M 225 2537 
Q 250 3200 412 3587 
Q 575 3975 875 4225 
Q 1175 4475 1612 4475 
Q 2050 4475 2375 4112 
Q 2700 3750 2800 3200 
Q 2900 2650 2862 1937 
Q 2825 1225 2612 775 
Q 2400 325 1975 150 
Q 1550 -25 1125 187 
Q 700 400 525 750 
Q 350 1100 275 1487 
Q 200 1875 225 2537 
z
M 750 2687 
Q 675 2000 800 1462 
Q 925 925 1212 700 
Q 1500 475 1800 612 
Q 2100 750 2237 1162 
Q 2375 1575 2375 2062 
Q 2375 2550 2337 2950 
Q 2300 3350 2112 3675 
Q 1925 4000 1612 4012 
Q 1300 4025 1062 3700 
Q 825 3375 750 2687 
z
" transform="scale(0.015625)"/>
       </defs>
       <use xlink:href="#SimHei-30"/>
      </g>
     </g>
    </g>
    <g id="xtick_2">
     <g id="line2d_2">
      <g>
       <use xlink:href="#m0bb2ae0946" x="118.961522" y="253.69" style="stroke: #000000; stroke-width: 0.8"/>
      </g>
     </g>
     <g id="text_2">
      <!-- 5 -->
      <g transform="translate(116.461522 267.565) scale(0.1 -0.1)">
       <defs>
        <path id="SimHei-35" d="M 550 1325 
Q 725 650 1150 575 
Q 1575 500 1837 662 
Q 2100 825 2212 1087 
Q 2325 1350 2312 1675 
Q 2300 2000 2137 2225 
Q 1975 2450 1725 2525 
Q 1475 2600 1162 2525 
Q 850 2450 650 2175 
L 225 2225 
Q 275 2375 700 4375 
L 2675 4375 
L 2675 3925 
L 1075 3925 
Q 950 3250 825 2850 
Q 1200 3025 1525 3012 
Q 1850 3000 2150 2862 
Q 2450 2725 2587 2487 
Q 2725 2250 2787 2012 
Q 2850 1775 2837 1500 
Q 2825 1225 2725 937 
Q 2625 650 2425 462 
Q 2225 275 1937 162 
Q 1650 50 1275 75 
Q 900 100 562 350 
Q 225 600 100 1200 
L 550 1325 
z
" transform="scale(0.015625)"/>
       </defs>
       <use xlink:href="#SimHei-35"/>
      </g>
     </g>
    </g>
    <g id="xtick_3">
     <g id="line2d_3">
      <g>
       <use xlink:href="#m0bb2ae0946" x="194.495766" y="253.69" style="stroke: #000000; stroke-width: 0.8"/>
      </g>
     </g>
     <g id="text_3">
      <!-- 10 -->
      <g transform="translate(189.495766 267.565) scale(0.1 -0.1)">
       <defs>
        <path id="SimHei-31" d="M 1400 3600 
Q 1075 3275 575 2975 
L 575 3450 
Q 1200 3875 1600 4450 
L 1900 4450 
L 1900 150 
L 1400 150 
L 1400 3600 
z
" transform="scale(0.015625)"/>
       </defs>
       <use xlink:href="#SimHei-31"/>
       <use xlink:href="#SimHei-30" x="50"/>
      </g>
     </g>
    </g>
    <g id="xtick_4">
     <g id="line2d_4">
      <g>
       <use xlink:href="#m0bb2ae0946" x="270.030011" y="253.69" style="stroke: #000000; stroke-width: 0.8"/>
      </g>
     </g>
     <g id="text_4">
      <!-- 15 -->
      <g transform="translate(265.030011 267.565) scale(0.1 -0.1)">
       <use xlink:href="#SimHei-31"/>
       <use xlink:href="#SimHei-35" x="50"/>
      </g>
     </g>
    </g>
    <g id="xtick_5">
     <g id="line2d_5">
      <g>
       <use xlink:href="#m0bb2ae0946" x="345.564256" y="253.69" style="stroke: #000000; stroke-width: 0.8"/>
      </g>
     </g>
     <g id="text_5">
      <!-- 20 -->
      <g transform="translate(340.564256 267.565) scale(0.1 -0.1)">
       <defs>
        <path id="SimHei-32" d="M 300 250 
Q 325 625 650 925 
Q 975 1225 1475 1862 
Q 1975 2500 2125 2850 
Q 2275 3200 2237 3450 
Q 2200 3700 2000 3862 
Q 1800 4025 1537 4000 
Q 1275 3975 1037 3800 
Q 800 3625 675 3275 
L 200 3350 
Q 400 3925 712 4187 
Q 1025 4450 1450 4475 
Q 1700 4500 1900 4462 
Q 2100 4425 2312 4287 
Q 2525 4150 2662 3875 
Q 2800 3600 2762 3212 
Q 2725 2825 2375 2287 
Q 2025 1750 1025 600 
L 2825 600 
L 2825 150 
L 300 150 
L 300 250 
z
" transform="scale(0.015625)"/>
       </defs>
       <use xlink:href="#SimHei-32"/>
       <use xlink:href="#SimHei-30" x="50"/>
      </g>
     </g>
    </g>
    <g id="xtick_6">
     <g id="line2d_6">
      <g>
       <use xlink:href="#m0bb2ae0946" x="421.0985" y="253.69" style="stroke: #000000; stroke-width: 0.8"/>
      </g>
     </g>
     <g id="text_6">
      <!-- 25 -->
      <g transform="translate(416.0985 267.565) scale(0.1 -0.1)">
       <use xlink:href="#SimHei-32"/>
       <use xlink:href="#SimHei-35" x="50"/>
      </g>
     </g>
    </g>
    <g id="text_7">
     <!-- 调度时段 -->
     <g transform="translate(212.262889 280.822812) scale(0.1 -0.1)">
      <defs>
       <path id="SimHei-8c03" d="M 5950 200 
Q 5975 -300 5700 -437 
Q 5425 -575 4900 -650 
Q 4825 -350 4700 -50 
Q 5200 -75 5337 0 
Q 5475 75 5500 300 
L 5500 4525 
L 3075 4525 
L 3075 2275 
Q 3075 1225 2900 612 
Q 2725 0 2275 -650 
Q 2125 -450 1825 -300 
Q 2150 75 2312 437 
Q 2475 800 2550 1212 
Q 2625 1625 2625 2925 
Q 2625 4250 2600 4900 
L 5975 4900 
Q 5950 4525 5950 3900 
L 5950 200 
z
M 5125 1825 
Q 5100 1475 5100 1175 
Q 5100 875 5125 425 
L 3425 425 
Q 3450 875 3450 1175 
Q 3450 1475 3425 1825 
L 5125 1825 
z
M 2125 1600 
Q 2225 1375 2400 1200 
Q 2075 875 1875 650 
Q 1675 425 1325 50 
Q 1150 250 1000 400 
Q 1175 600 1175 825 
L 1175 2825 
L 950 2825 
Q 775 2825 300 2800 
L 300 3250 
Q 775 3225 950 3225 
L 1650 3225 
Q 1625 2775 1625 2225 
L 1625 1050 
Q 1750 1150 2125 1600 
z
M 4050 3675 
Q 4050 3975 4025 4300 
L 4500 4300 
Q 4475 4000 4475 3675 
Q 4750 3675 5125 3700 
L 5125 3275 
Q 4750 3300 4475 3300 
L 4475 2675 
Q 4925 2675 5225 2700 
L 5225 2250 
Q 4825 2275 4300 2275 
Q 3775 2275 3350 2250 
L 3350 2700 
Q 3775 2675 4050 2675 
L 4050 3300 
Q 3725 3300 3375 3275 
L 3375 3700 
Q 3750 3675 4050 3675 
z
M 4675 775 
L 4675 1475 
L 3875 1475 
L 3875 775 
L 4675 775 
z
M 1250 5025 
Q 1525 4700 1975 4100 
Q 1750 3975 1575 3775 
Q 1075 4525 875 4725 
Q 1075 4850 1250 5025 
z
" transform="scale(0.015625)"/>
       <path id="SimHei-5ea6" d="M 1750 1675 
Q 2450 1650 2875 1650 
L 5200 1650 
Q 4975 1250 4650 850 
Q 4325 450 4025 200 
Q 4350 50 4950 -50 
Q 5550 -150 6100 -150 
Q 5950 -300 5825 -650 
Q 5100 -550 4550 -412 
Q 4000 -275 3625 -100 
Q 3100 -325 2587 -462 
Q 2075 -600 1525 -675 
Q 1450 -475 1225 -250 
Q 1675 -250 2250 -125 
Q 2825 0 3250 200 
Q 2825 550 2400 1275 
L 1750 1250 
L 1750 1675 
z
M 2975 5075 
Q 3250 5150 3475 5250 
Q 3625 4975 3775 4525 
L 4700 4525 
Q 4975 4525 5700 4550 
L 5700 4100 
Q 5000 4125 4650 4125 
L 1375 4125 
Q 1375 3000 1350 2312 
Q 1325 1625 1212 950 
Q 1100 275 725 -525 
Q 500 -375 250 -300 
Q 650 400 762 1075 
Q 875 1750 887 2800 
Q 900 3850 875 4525 
L 3200 4525 
Q 3100 4850 2975 5075 
z
M 2475 3300 
Q 2475 3700 2450 3925 
L 2975 3925 
Q 2950 3725 2950 3300 
L 4300 3300 
Q 4300 3700 4275 3950 
L 4800 3950 
Q 4775 3650 4775 3300 
Q 5325 3300 5725 3325 
L 5725 2900 
Q 5350 2925 4775 2925 
Q 4775 2250 4800 1950 
L 2450 1950 
Q 2475 2350 2475 2925 
Q 2175 2925 1600 2900 
L 1600 3325 
Q 2175 3300 2475 3300 
z
M 4300 2350 
L 4300 2925 
L 2950 2925 
L 2950 2350 
L 4300 2350 
z
M 2875 1275 
Q 3200 775 3650 425 
Q 4025 700 4425 1275 
L 2900 1275 
L 2875 1275 
z
" transform="scale(0.015625)"/>
       <path id="SimHei-65f6" d="M 2525 4575 
Q 2500 3675 2500 2400 
Q 2500 1125 2525 400 
L 2000 400 
L 2000 875 
L 1000 875 
L 1000 50 
L 475 50 
Q 500 1200 500 2350 
Q 500 3525 475 4575 
L 2525 4575 
z
M 4875 3825 
Q 4875 4575 4850 5225 
L 5400 5225 
Q 5375 4575 5375 3825 
Q 5750 3825 6175 3850 
L 6175 3375 
Q 5750 3400 5375 3400 
L 5375 50 
Q 5375 -325 5075 -425 
Q 4775 -525 4300 -575 
Q 4300 -275 4025 0 
Q 4500 -50 4687 -25 
Q 4875 0 4875 300 
L 4875 3400 
Q 3625 3400 2775 3375 
L 2775 3850 
Q 3575 3825 4875 3825 
z
M 2000 1300 
L 2000 2550 
L 1000 2550 
L 1000 1300 
L 2000 1300 
z
M 2000 2975 
L 2000 4150 
L 1000 4150 
L 1000 2975 
L 2000 2975 
z
M 3550 2725 
Q 3875 2200 4175 1600 
Q 3925 1525 3650 1375 
Q 3450 1975 3075 2500 
Q 3300 2600 3550 2725 
z
" transform="scale(0.015625)"/>
       <path id="SimHei-6bb5" d="M 5500 2475 
Q 5350 1775 5100 1237 
Q 4850 700 4600 400 
Q 4825 225 5250 87 
Q 5675 -50 6125 -125 
Q 5950 -275 5825 -650 
Q 5150 -450 4825 -287 
Q 4500 -125 4225 75 
Q 3825 -175 3450 -337 
Q 3075 -500 2625 -650 
Q 2525 -400 2325 -225 
Q 2675 -150 3100 0 
Q 3525 150 3925 425 
Q 3725 675 3525 1150 
Q 3325 1600 3225 2075 
Q 3050 2075 2900 2075 
L 2900 2500 
Q 3375 2475 3800 2475 
L 5500 2475 
z
M 2650 4625 
Q 2300 4550 1887 4475 
Q 1475 4400 1300 4375 
L 1300 3550 
Q 2050 3550 2525 3600 
L 2525 3125 
Q 2050 3150 1300 3150 
L 1300 2350 
Q 2050 2350 2525 2375 
L 2525 1900 
Q 2050 1925 1300 1925 
L 1300 975 
Q 1950 1075 2625 1250 
Q 2600 1000 2600 775 
Q 1900 675 1300 525 
L 1300 100 
Q 1300 -200 1325 -625 
L 800 -625 
Q 825 -200 825 100 
L 825 425 
Q 575 375 350 300 
Q 300 650 250 825 
Q 500 850 825 900 
L 825 3800 
Q 825 4225 800 4725 
Q 1100 4725 1575 4825 
Q 2050 4925 2375 5125 
Q 2475 4850 2650 4625 
z
M 5100 4975 
Q 5075 4600 5075 4275 
L 5075 3650 
Q 5075 3425 5237 3387 
Q 5400 3350 5975 3400 
Q 5875 3225 5850 2950 
L 5075 2950 
Q 4650 2950 4625 3375 
L 4625 4575 
L 3775 4575 
Q 3775 3925 3675 3525 
Q 3575 3125 3200 2725 
Q 3025 2900 2800 3050 
Q 3275 3400 3300 3937 
Q 3325 4475 3300 4975 
L 5100 4975 
z
M 3675 2100 
Q 3775 1675 3962 1287 
Q 4150 900 4275 775 
Q 4450 950 4625 1312 
Q 4800 1675 4900 2100 
L 3800 2100 
L 3675 2100 
z
" transform="scale(0.015625)"/>
      </defs>
      <use xlink:href="#SimHei-8c03"/>
      <use xlink:href="#SimHei-5ea6" x="100"/>
      <use xlink:href="#SimHei-65f6" x="200"/>
      <use xlink:href="#SimHei-6bb5" x="300"/>
     </g>
    </g>
   </g>
   <g id="matplotlib.axis_2">
    <g id="ytick_1">
     <g id="line2d_7">
      <defs>
       <path id="m5c415bdc9a" d="M 0 0 
L -3.5 0 
" style="stroke: #000000; stroke-width: 0.8"/>
      </defs>
      <g>
       <use xlink:href="#m5c415bdc9a" x="41.16125" y="253.69" style="stroke: #000000; stroke-width: 0.8"/>
      </g>
     </g>
     <g id="text_8">
      <!-- -1 -->
      <g transform="translate(24.16125 257.1275) scale(0.1 -0.1)">
       <defs>
        <path id="SimHei-2d" d="M 2975 2125 
L 125 2125 
L 125 2525 
L 2975 2525 
L 2975 2125 
z
" transform="scale(0.015625)"/>
       </defs>
       <use xlink:href="#SimHei-2d"/>
       <use xlink:href="#SimHei-31" x="50"/>
      </g>
     </g>
    </g>
    <g id="ytick_2">
     <g id="line2d_8">
      <g>
       <use xlink:href="#m5c415bdc9a" x="41.16125" y="140.301875" style="stroke: #000000; stroke-width: 0.8"/>
      </g>
     </g>
     <g id="text_9">
      <!-- 0 -->
      <g transform="translate(29.16125 143.739375) scale(0.1 -0.1)">
       <use xlink:href="#SimHei-30"/>
      </g>
     </g>
    </g>
    <g id="ytick_3">
     <g id="line2d_9">
      <g>
       <use xlink:href="#m5c415bdc9a" x="41.16125" y="26.91375" style="stroke: #000000; stroke-width: 0.8"/>
      </g>
     </g>
     <g id="text_10">
      <!-- 1 -->
      <g transform="translate(29.16125 30.35125) scale(0.1 -0.1)">
       <use xlink:href="#SimHei-31"/>
      </g>
     </g>
    </g>
    <g id="text_11">
     <!-- 不确定量u的取值 -->
     <g transform="translate(18.91125 177.801875) rotate(-90) scale(0.1 -0.1)">
      <defs>
       <path id="SimHei-4e0d" d="M 5975 4450 
Q 5525 4475 5200 4475 
L 3725 4475 
Q 3550 4125 3300 3700 
L 3300 575 
Q 3300 75 3325 -550 
L 2775 -550 
Q 2800 50 2800 575 
L 2800 3025 
Q 2025 1950 700 1050 
Q 500 1350 325 1475 
Q 825 1700 1650 2437 
Q 2475 3175 3175 4475 
L 1525 4475 
Q 1050 4475 525 4450 
L 525 4950 
Q 1275 4925 1675 4925 
L 5175 4925 
Q 5500 4925 5975 4950 
L 5975 4450 
z
M 5450 1125 
Q 4975 1725 3750 2975 
Q 3950 3150 4075 3325 
Q 4675 2775 5100 2362 
Q 5525 1950 5900 1550 
Q 5650 1350 5450 1125 
z
" transform="scale(0.015625)"/>
       <path id="SimHei-786e" d="M 4975 -200 
Q 5250 -175 5362 -125 
Q 5475 -75 5475 125 
L 5475 975 
L 4625 975 
L 4625 -400 
L 4200 -400 
L 4200 975 
L 3500 975 
Q 3475 625 3325 237 
Q 3175 -150 2800 -600 
Q 2625 -350 2325 -325 
Q 2650 -50 2812 262 
Q 2975 575 3025 1000 
Q 3075 1425 3087 2187 
Q 3100 2950 3075 3425 
L 4250 3425 
Q 4475 3825 4650 4225 
L 3625 4225 
Q 3325 3875 2850 3250 
Q 2650 3425 2425 3500 
Q 2875 3975 3175 4425 
Q 3475 4875 3625 5300 
Q 3900 5175 4200 5100 
Q 4075 5025 3825 4575 
L 5350 4575 
Q 4900 3775 4750 3425 
L 5950 3425 
Q 5925 2975 5925 2450 
L 5925 -50 
Q 5950 -350 5775 -462 
Q 5600 -575 5175 -675 
Q 5150 -425 4975 -200 
z
M 200 1975 
Q 550 2300 850 2837 
Q 1150 3375 1300 4225 
Q 825 4225 525 4200 
L 525 4650 
Q 875 4625 1200 4625 
L 1900 4625 
Q 2325 4625 2625 4650 
L 2625 4200 
Q 2325 4225 1800 4225 
Q 1650 3525 1400 2925 
L 2525 2925 
Q 2500 2500 2500 2125 
L 2500 1075 
Q 2500 650 2525 125 
L 2075 125 
L 2075 600 
L 1350 600 
L 1350 -300 
L 900 -300 
Q 925 225 925 600 
L 925 2100 
Q 800 1900 625 1625 
Q 475 1825 200 1975 
z
M 2075 975 
L 2075 2575 
L 1350 2575 
L 1350 975 
L 2075 975 
z
M 5475 2350 
L 5475 3075 
L 4625 3075 
L 4625 2350 
L 5475 2350 
z
M 5475 1325 
L 5475 2000 
L 4625 2000 
L 4625 1325 
L 5475 1325 
z
M 4200 2350 
L 4200 3075 
L 3500 3075 
L 3500 2350 
L 4200 2350 
z
M 4200 1325 
L 4200 2000 
L 3500 2000 
L 3500 1325 
L 4200 1325 
z
" transform="scale(0.015625)"/>
       <path id="SimHei-5b9a" d="M 4200 3125 
Q 4675 3125 5175 3150 
L 5175 2675 
Q 4725 2700 4100 2700 
L 3550 2700 
L 3550 1700 
L 4600 1700 
Q 4875 1700 5375 1725 
L 5375 1250 
Q 4875 1275 4575 1275 
L 3550 1275 
L 3550 100 
Q 4600 -25 6050 125 
Q 5850 -200 5800 -475 
Q 4800 -475 4150 -450 
Q 3500 -425 3050 -300 
Q 2600 -175 2250 75 
Q 1900 325 1600 675 
Q 1200 -50 675 -575 
Q 450 -350 175 -250 
Q 875 300 1200 1050 
Q 1525 1800 1550 2200 
Q 1800 2050 2150 1975 
Q 2075 1875 1987 1662 
Q 1900 1450 1775 1125 
Q 1950 900 2300 612 
Q 2650 325 3050 200 
L 3050 2700 
L 2250 2700 
Q 1825 2700 1400 2675 
L 1400 3150 
Q 1825 3125 2400 3125 
L 4200 3125 
z
M 5750 4275 
Q 5725 3925 5725 3750 
Q 5725 3575 5750 3275 
L 5225 3275 
L 5225 3875 
L 1225 3875 
L 1225 3275 
L 700 3275 
Q 725 3475 725 3725 
Q 725 3975 700 4275 
L 5750 4275 
z
M 2650 5050 
Q 2875 5125 3100 5300 
Q 3375 4975 3600 4550 
Q 3250 4400 3100 4300 
Q 3050 4525 2650 5050 
z
" transform="scale(0.015625)"/>
       <path id="SimHei-91cf" d="M 5250 2500 
Q 5225 2200 5225 1700 
Q 5225 1225 5250 950 
L 3425 950 
L 3425 625 
L 4575 625 
Q 5000 625 5375 650 
L 5375 275 
Q 5025 300 4575 300 
L 3425 300 
L 3425 -75 
L 5125 -75 
Q 5525 -75 5925 -50 
L 5925 -425 
Q 5525 -400 5125 -400 
L 1275 -400 
Q 900 -400 475 -425 
L 475 -50 
Q 925 -50 1275 -75 
L 2975 -75 
L 2975 300 
L 1725 300 
Q 1350 300 975 250 
L 975 650 
Q 1375 625 1725 625 
L 2975 625 
L 2975 950 
L 1150 950 
Q 1175 1375 1175 1775 
Q 1175 2175 1150 2500 
L 5250 2500 
z
M 5200 4950 
Q 5175 4575 5175 4250 
Q 5175 3925 5200 3400 
L 1200 3400 
Q 1225 3925 1225 4250 
Q 1225 4575 1200 4950 
L 5200 4950 
z
M 4900 3100 
Q 5500 3125 6000 3150 
L 6000 2750 
Q 5500 2775 4925 2775 
L 1650 2775 
Q 975 2775 325 2750 
L 325 3150 
Q 975 3125 1650 3100 
L 4900 3100 
z
M 4725 3700 
L 4725 4025 
L 1675 4025 
L 1675 3700 
L 4725 3700 
z
M 4725 4350 
L 4725 4650 
L 1675 4650 
L 1675 4350 
L 4725 4350 
z
M 4750 1875 
L 4750 2175 
L 3425 2175 
L 3425 1875 
L 4750 1875 
z
M 2975 1875 
L 2975 2175 
L 1650 2175 
L 1650 1875 
L 2975 1875 
z
M 2975 1275 
L 2975 1550 
L 1650 1550 
L 1650 1275 
L 2975 1275 
z
M 4750 1275 
L 4750 1550 
L 3425 1550 
L 3425 1275 
L 4750 1275 
z
" transform="scale(0.015625)"/>
       <path id="SimHei-75" d="M 2800 125 
L 2300 125 
L 2300 650 
Q 2100 375 1862 225 
Q 1625 75 1250 75 
Q 800 75 575 325 
Q 350 575 350 950 
L 350 2925 
L 850 2925 
L 850 1125 
Q 850 825 1000 650 
Q 1150 475 1400 475 
Q 1725 475 2012 812 
Q 2300 1150 2300 1650 
L 2300 2925 
L 2800 2925 
L 2800 125 
z
" transform="scale(0.015625)"/>
       <path id="SimHei-7684" d="M 2100 4975 
Q 1975 4750 1750 3950 
L 2875 3950 
Q 2850 3525 2850 2875 
L 2850 675 
Q 2850 300 2875 -400 
L 2375 -400 
L 2375 100 
L 1100 100 
L 1100 -450 
L 600 -450 
Q 625 350 625 550 
L 625 2850 
Q 625 3525 600 3950 
L 1325 3950 
Q 1450 4525 1525 5150 
Q 1875 5025 2100 4975 
z
M 5825 3075 
Q 5800 1550 5700 175 
Q 5650 -275 5225 -425 
Q 4800 -575 4275 -625 
Q 4250 -350 4050 -50 
Q 4550 -75 4837 -25 
Q 5125 25 5200 200 
Q 5275 375 5312 1225 
Q 5350 2075 5375 3600 
L 3925 3600 
Q 3725 3125 3350 2475 
Q 3175 2650 2925 2750 
Q 3150 3050 3350 3475 
Q 3550 3900 3700 4400 
Q 3850 4900 3875 5175 
Q 4225 5025 4475 4950 
Q 4350 4750 4262 4512 
Q 4175 4275 4075 4050 
L 5850 4050 
Q 5825 3525 5825 3075 
z
M 2375 525 
L 2375 1850 
L 1100 1850 
L 1100 525 
L 2375 525 
z
M 2375 2275 
L 2375 3525 
L 1100 3525 
L 1100 2275 
L 2375 2275 
z
M 4350 2050 
Q 4500 1750 4700 1275 
Q 4525 1200 4225 1025 
Q 4050 1500 3900 1837 
Q 3750 2175 3600 2400 
Q 3775 2500 4050 2650 
L 4350 2050 
z
" transform="scale(0.015625)"/>
       <path id="SimHei-53d6" d="M 2650 4875 
Q 3075 4875 3375 4900 
L 3375 4475 
Q 3175 4500 2975 4500 
L 2975 1125 
Q 3250 1200 3600 1300 
L 3600 875 
Q 3275 800 2975 725 
Q 2975 -250 3000 -700 
L 2500 -700 
Q 2525 -325 2525 625 
Q 1925 500 1425 325 
Q 925 150 575 -25 
L 375 550 
L 925 650 
L 925 4500 
Q 725 4500 425 4475 
L 425 4900 
Q 750 4875 1300 4875 
L 2650 4875 
z
M 3175 -125 
Q 3500 75 3762 362 
Q 4025 650 4350 1150 
Q 3975 1850 3862 2575 
Q 3750 3300 3700 4250 
L 3500 4250 
L 3500 4675 
Q 4000 4650 4400 4650 
L 5800 4650 
Q 5700 3425 5512 2625 
Q 5325 1825 4925 1150 
Q 5125 800 5462 500 
Q 5800 200 6200 -25 
Q 5950 -200 5775 -450 
Q 5250 -100 4650 725 
Q 4200 0 3625 -500 
Q 3475 -300 3175 -125 
z
M 4150 4250 
Q 4225 3250 4287 2750 
Q 4350 2250 4625 1600 
Q 5025 2425 5137 3137 
Q 5250 3850 5275 4250 
L 4150 4250 
z
M 2525 3450 
L 2525 4500 
L 1375 4500 
L 1375 3450 
L 2525 3450 
z
M 1375 750 
Q 1975 875 2525 1000 
L 2525 1800 
L 1375 1800 
L 1375 750 
z
M 2525 2200 
L 2525 3075 
L 1375 3075 
L 1375 2200 
L 2525 2200 
z
" transform="scale(0.015625)"/>
       <path id="SimHei-503c" d="M 3675 4450 
L 3675 5100 
Q 3975 5075 4350 5050 
Q 4225 4875 4200 4450 
L 5125 4450 
Q 5550 4450 5875 4475 
L 5875 4025 
Q 5525 4050 5125 4050 
L 4175 4050 
L 4125 3500 
L 5400 3500 
Q 5375 3200 5375 2700 
L 5375 150 
Q 5875 150 6100 175 
L 6100 -275 
Q 5775 -250 5200 -250 
L 2850 -250 
Q 2275 -250 1900 -275 
L 1900 175 
Q 2125 150 2600 150 
L 2600 2700 
Q 2600 3175 2575 3500 
L 3600 3500 
L 3650 4050 
L 3200 4050 
Q 2575 4050 2225 4025 
L 2225 4475 
Q 2550 4450 3200 4450 
L 3675 4450 
z
M 2225 4900 
Q 2025 4675 1650 3750 
L 1650 450 
Q 1650 -75 1675 -550 
L 1150 -550 
Q 1175 -125 1175 375 
L 1175 2950 
Q 875 2450 625 2150 
Q 425 2425 250 2575 
Q 500 2825 937 3537 
Q 1375 4250 1625 5150 
Q 1975 4975 2225 4900 
z
M 4925 2650 
L 4925 3150 
L 3075 3150 
L 3075 2650 
L 4925 2650 
z
M 4925 150 
L 4925 625 
L 3075 625 
L 3075 150 
L 4925 150 
z
M 4925 1000 
L 4925 1450 
L 3075 1450 
L 3075 1000 
L 4925 1000 
z
M 4925 1825 
L 4925 2275 
L 3075 2275 
L 3075 1825 
L 4925 1825 
z
" transform="scale(0.015625)"/>
      </defs>
      <use xlink:href="#SimHei-4e0d"/>
      <use xlink:href="#SimHei-786e" x="100"/>
      <use xlink:href="#SimHei-5b9a" x="200"/>
      <use xlink:href="#SimHei-91cf" x="300"/>
      <use xlink:href="#SimHei-75" x="400"/>
      <use xlink:href="#SimHei-7684" x="450"/>
      <use xlink:href="#SimHei-53d6" x="550"/>
      <use xlink:href="#SimHei-503c" x="650"/>
     </g>
    </g>
   </g>
   <g id="line2d_10">
    <path d="M 58.534126 140.301875 
L 66.087551 140.301875 
L 66.087551 140.301875 
L 81.1944 140.301875 
L 81.1944 140.301875 
L 96.301249 140.301875 
L 96.301249 140.301875 
L 111.408097 140.301875 
L 111.408097 140.301875 
L 126.514946 140.301875 
L 126.514946 140.301875 
L 141.621795 140.301875 
L 141.621795 140.301875 
L 156.728644 140.301875 
L 156.728644 140.301875 
L 171.835493 140.301875 
L 171.835493 140.301875 
L 186.942342 140.301875 
L 186.942342 140.301875 
L 202.049191 140.301875 
L 202.049191 140.301875 
L 217.15604 140.301875 
L 217.15604 140.301875 
L 232.262889 140.301875 
L 232.262889 140.301875 
L 247.369738 140.301875 
L 247.369738 140.301875 
L 262.476587 140.301875 
L 262.476587 140.301875 
L 277.583435 140.301875 
L 277.583435 140.301875 
L 292.690284 140.301875 
L 292.690284 140.301875 
L 307.797133 140.301875 
L 307.797133 140.301875 
L 322.903982 140.301875 
L 322.903982 140.301875 
L 338.010831 140.301875 
L 338.010831 140.301875 
L 353.11768 140.301875 
L 353.11768 140.301875 
L 368.224529 140.301875 
L 368.224529 140.301875 
L 383.331378 140.301875 
L 383.331378 140.301875 
L 398.438227 140.301875 
L 398.438227 140.301875 
L 405.991651 140.301875 
" clip-path="url(#pb8aef54355)" style="fill: none; stroke: #6aaed6; stroke-width: 3; stroke-linecap: square"/>
   </g>
   <g id="patch_3">
    <path d="M 41.16125 253.69 
L 41.16125 26.91375 
" style="fill: none; stroke: #000000; stroke-width: 0.8; stroke-linejoin: miter; stroke-linecap: square"/>
   </g>
   <g id="patch_4">
    <path d="M 423.364527 253.69 
L 423.364527 26.91375 
" style="fill: none; stroke: #000000; stroke-width: 0.8; stroke-linejoin: miter; stroke-linecap: square"/>
   </g>
   <g id="patch_5">
    <path d="M 41.16125 253.69 
L 423.364527 253.69 
" style="fill: none; stroke: #000000; stroke-width: 0.8; stroke-linejoin: miter; stroke-linecap: square"/>
   </g>
   <g id="patch_6">
    <path d="M 41.16125 26.91375 
L 423.364527 26.91375 
" style="fill: none; stroke: #000000; stroke-width: 0.8; stroke-linejoin: miter; stroke-linecap: square"/>
   </g>
   <g id="text_12">
    <!-- 循环 1 -->
    <g transform="translate(214.262889 20.91375) scale(0.12 -0.12)">
     <defs>
      <path id="SimHei-5faa" d="M 5850 4650 
Q 5400 4625 4650 4500 
L 4600 3800 
L 5350 3800 
Q 5750 3800 6100 3825 
L 6100 3425 
Q 5750 3450 5350 3450 
L 4575 3450 
L 4525 2775 
L 5700 2775 
Q 5675 2350 5675 1175 
Q 5675 0 5700 -525 
L 5250 -525 
L 5250 -125 
L 3675 -125 
L 3675 -575 
L 3200 -575 
Q 3225 0 3225 1150 
Q 3225 2325 3200 2775 
L 4025 2775 
L 4075 3450 
Q 3225 3450 2825 3425 
L 2825 3825 
Q 3225 3800 4125 3800 
L 4150 4475 
Q 3550 4450 2725 4425 
Q 2725 2975 2700 2312 
Q 2675 1650 2575 962 
Q 2475 275 2200 -450 
Q 2025 -200 1725 -50 
Q 1950 300 2087 800 
Q 2225 1300 2275 1837 
Q 2325 2375 2325 3325 
Q 2325 4300 2300 4850 
Q 2950 4825 3887 4900 
Q 4825 4975 5525 5200 
Q 5700 4850 5850 4650 
z
M 2150 3575 
Q 1875 3250 1500 2575 
L 1500 525 
Q 1500 -25 1525 -575 
L 1025 -575 
Q 1050 -25 1050 525 
L 1050 2150 
Q 775 1750 600 1525 
Q 450 1800 275 1925 
Q 725 2350 1037 2787 
Q 1350 3225 1650 3825 
Q 1850 3700 2150 3575 
z
M 1925 4925 
Q 1325 4000 625 3250 
Q 500 3450 325 3650 
Q 900 4175 1475 5225 
Q 1675 5075 1925 4925 
z
M 5250 250 
L 5250 800 
L 3675 800 
L 3675 250 
L 5250 250 
z
M 5250 1100 
L 5250 1625 
L 3675 1625 
L 3675 1100 
L 5250 1100 
z
M 5250 1950 
L 5250 2425 
L 3675 2425 
L 3675 1950 
L 5250 1950 
z
" transform="scale(0.015625)"/>
      <path id="SimHei-73af" d="M 5175 4850 
Q 5550 4850 6025 4875 
L 6025 4400 
Q 5600 4425 5175 4425 
L 4700 4425 
Q 4475 3625 4400 3325 
L 4400 275 
Q 4400 -225 4425 -625 
L 3900 -625 
Q 3925 -250 3925 275 
L 3925 2275 
Q 3400 1250 2650 550 
Q 2500 700 2200 875 
Q 2550 1125 2862 1512 
Q 3175 1900 3475 2425 
Q 3775 2950 3912 3400 
Q 4050 3850 4175 4425 
L 3475 4425 
Q 3075 4425 2650 4400 
L 2650 4875 
Q 3075 4850 3475 4850 
L 5175 4850 
z
M 1875 4850 
Q 2125 4850 2450 4875 
L 2450 4425 
Q 2125 4450 1875 4450 
L 1700 4450 
L 1700 3250 
Q 2050 3250 2475 3275 
L 2475 2825 
Q 2025 2850 1700 2850 
L 1700 1425 
Q 1925 1475 2450 1725 
Q 2450 1525 2475 1250 
Q 1725 975 1337 850 
Q 950 725 500 525 
Q 400 775 250 1050 
Q 425 1050 1250 1275 
L 1250 2850 
Q 825 2850 450 2800 
L 450 3275 
Q 825 3250 1250 3250 
L 1250 4450 
L 1025 4450 
Q 700 4450 375 4425 
L 375 4875 
Q 700 4850 1000 4850 
L 1875 4850 
z
M 5000 3125 
Q 5775 2075 6175 1425 
Q 5925 1275 5700 1125 
Q 5325 1800 5112 2125 
Q 4900 2450 4600 2825 
Q 4825 2950 5000 3125 
z
" transform="scale(0.015625)"/>
      <path id="SimHei-20" transform="scale(0.015625)"/>
     </defs>
     <use xlink:href="#SimHei-5faa"/>
     <use xlink:href="#SimHei-73af" x="100"/>
     <use xlink:href="#SimHei-20" x="200"/>
     <use xlink:href="#SimHei-31" x="250"/>
    </g>
   </g>
  </g>
  <g id="axes_2">
   <g id="patch_7">
    <path d="M 467.76125 253.69 
L 849.964527 253.69 
L 849.964527 26.91375 
L 467.76125 26.91375 
z
" style="fill: #ffffff"/>
   </g>
   <g id="matplotlib.axis_3">
    <g id="xtick_7">
     <g id="line2d_11">
      <g>
       <use xlink:href="#m0bb2ae0946" x="470.027277" y="253.69" style="stroke: #000000; stroke-width: 0.8"/>
      </g>
     </g>
     <g id="text_13">
      <!-- 0 -->
      <g transform="translate(467.527277 267.565) scale(0.1 -0.1)">
       <use xlink:href="#SimHei-30"/>
      </g>
     </g>
    </g>
    <g id="xtick_8">
     <g id="line2d_12">
      <g>
       <use xlink:href="#m0bb2ae0946" x="545.561522" y="253.69" style="stroke: #000000; stroke-width: 0.8"/>
      </g>
     </g>
     <g id="text_14">
      <!-- 5 -->
      <g transform="translate(543.061522 267.565) scale(0.1 -0.1)">
       <use xlink:href="#SimHei-35"/>
      </g>
     </g>
    </g>
    <g id="xtick_9">
     <g id="line2d_13">
      <g>
       <use xlink:href="#m0bb2ae0946" x="621.095766" y="253.69" style="stroke: #000000; stroke-width: 0.8"/>
      </g>
     </g>
     <g id="text_15">
      <!-- 10 -->
      <g transform="translate(616.095766 267.565) scale(0.1 -0.1)">
       <use xlink:href="#SimHei-31"/>
       <use xlink:href="#SimHei-30" x="50"/>
      </g>
     </g>
    </g>
    <g id="xtick_10">
     <g id="line2d_14">
      <g>
       <use xlink:href="#m0bb2ae0946" x="696.630011" y="253.69" style="stroke: #000000; stroke-width: 0.8"/>
      </g>
     </g>
     <g id="text_16">
      <!-- 15 -->
      <g transform="translate(691.630011 267.565) scale(0.1 -0.1)">
       <use xlink:href="#SimHei-31"/>
       <use xlink:href="#SimHei-35" x="50"/>
      </g>
     </g>
    </g>
    <g id="xtick_11">
     <g id="line2d_15">
      <g>
       <use xlink:href="#m0bb2ae0946" x="772.164256" y="253.69" style="stroke: #000000; stroke-width: 0.8"/>
      </g>
     </g>
     <g id="text_17">
      <!-- 20 -->
      <g transform="translate(767.164256 267.565) scale(0.1 -0.1)">
       <use xlink:href="#SimHei-32"/>
       <use xlink:href="#SimHei-30" x="50"/>
      </g>
     </g>
    </g>
    <g id="xtick_12">
     <g id="line2d_16">
      <g>
       <use xlink:href="#m0bb2ae0946" x="847.6985" y="253.69" style="stroke: #000000; stroke-width: 0.8"/>
      </g>
     </g>
     <g id="text_18">
      <!-- 25 -->
      <g transform="translate(842.6985 267.565) scale(0.1 -0.1)">
       <use xlink:href="#SimHei-32"/>
       <use xlink:href="#SimHei-35" x="50"/>
      </g>
     </g>
    </g>
    <g id="text_19">
     <!-- 调度时段 -->
     <g transform="translate(638.862889 280.822812) scale(0.1 -0.1)">
      <use xlink:href="#SimHei-8c03"/>
      <use xlink:href="#SimHei-5ea6" x="100"/>
      <use xlink:href="#SimHei-65f6" x="200"/>
      <use xlink:href="#SimHei-6bb5" x="300"/>
     </g>
    </g>
   </g>
   <g id="matplotlib.axis_4">
    <g id="ytick_4">
     <g id="line2d_17">
      <g>
       <use xlink:href="#m5c415bdc9a" x="467.76125" y="243.381989" style="stroke: #000000; stroke-width: 0.8"/>
      </g>
     </g>
     <g id="text_20">
      <!-- -1 -->
      <g transform="translate(450.76125 246.819489) scale(0.1 -0.1)">
       <use xlink:href="#SimHei-2d"/>
       <use xlink:href="#SimHei-31" x="50"/>
      </g>
     </g>
    </g>
    <g id="ytick_5">
     <g id="line2d_18">
      <g>
       <use xlink:href="#m5c415bdc9a" x="467.76125" y="140.301875" style="stroke: #000000; stroke-width: 0.8"/>
      </g>
     </g>
     <g id="text_21">
      <!-- 0 -->
      <g transform="translate(455.76125 143.739375) scale(0.1 -0.1)">
       <use xlink:href="#SimHei-30"/>
      </g>
     </g>
    </g>
    <g id="ytick_6">
     <g id="line2d_19">
      <g>
       <use xlink:href="#m5c415bdc9a" x="467.76125" y="37.221761" style="stroke: #000000; stroke-width: 0.8"/>
      </g>
     </g>
     <g id="text_22">
      <!-- 1 -->
      <g transform="translate(455.76125 40.659261) scale(0.1 -0.1)">
       <use xlink:href="#SimHei-31"/>
      </g>
     </g>
    </g>
    <g id="text_23">
     <!-- 不确定量u的取值 -->
     <g transform="translate(445.51125 177.801875) rotate(-90) scale(0.1 -0.1)">
      <use xlink:href="#SimHei-4e0d"/>
      <use xlink:href="#SimHei-786e" x="100"/>
      <use xlink:href="#SimHei-5b9a" x="200"/>
      <use xlink:href="#SimHei-91cf" x="300"/>
      <use xlink:href="#SimHei-75" x="400"/>
      <use xlink:href="#SimHei-7684" x="450"/>
      <use xlink:href="#SimHei-53d6" x="550"/>
      <use xlink:href="#SimHei-503c" x="650"/>
     </g>
    </g>
   </g>
   <g id="line2d_20">
    <path d="M 485.134126 243.381989 
L 492.687551 243.381989 
L 492.687551 37.221761 
L 507.7944 37.221761 
L 507.7944 243.381989 
L 522.901249 243.381989 
L 522.901249 37.221761 
L 538.008097 37.221761 
L 538.008097 243.381989 
L 553.114946 243.381989 
L 553.114946 37.221761 
L 568.221795 37.221761 
L 568.221795 37.221761 
L 583.328644 37.221761 
L 583.328644 37.221761 
L 598.435493 37.221761 
L 598.435493 37.221761 
L 613.542342 37.221761 
L 613.542342 37.221761 
L 628.649191 37.221761 
L 628.649191 37.221761 
L 643.75604 37.221761 
L 643.75604 37.221761 
L 658.862889 37.221761 
L 658.862889 37.221761 
L 673.969738 37.221761 
L 673.969738 37.221761 
L 689.076587 37.221761 
L 689.076587 37.221761 
L 704.183435 37.221761 
L 704.183435 37.221761 
L 719.290284 37.221761 
L 719.290284 37.221761 
L 734.397133 37.221761 
L 734.397133 37.221761 
L 749.503982 37.221761 
L 749.503982 37.221761 
L 764.610831 37.221761 
L 764.610831 37.221761 
L 779.71768 37.221761 
L 779.71768 37.221761 
L 794.824529 37.221761 
L 794.824529 37.221761 
L 809.931378 37.221761 
L 809.931378 37.221761 
L 825.038227 37.221761 
L 825.038227 37.221761 
L 832.591651 37.221761 
" clip-path="url(#p94cf915555)" style="fill: none; stroke: #3787c0; stroke-width: 3; stroke-linecap: square"/>
   </g>
   <g id="patch_8">
    <path d="M 467.76125 253.69 
L 467.76125 26.91375 
" style="fill: none; stroke: #000000; stroke-width: 0.8; stroke-linejoin: miter; stroke-linecap: square"/>
   </g>
   <g id="patch_9">
    <path d="M 849.964527 253.69 
L 849.964527 26.91375 
" style="fill: none; stroke: #000000; stroke-width: 0.8; stroke-linejoin: miter; stroke-linecap: square"/>
   </g>
   <g id="patch_10">
    <path d="M 467.76125 253.69 
L 849.964527 253.69 
" style="fill: none; stroke: #000000; stroke-width: 0.8; stroke-linejoin: miter; stroke-linecap: square"/>
   </g>
   <g id="patch_11">
    <path d="M 467.76125 26.91375 
L 849.964527 26.91375 
" style="fill: none; stroke: #000000; stroke-width: 0.8; stroke-linejoin: miter; stroke-linecap: square"/>
   </g>
   <g id="text_24">
    <!-- 循环 2 -->
    <g transform="translate(640.862889 20.91375) scale(0.12 -0.12)">
     <use xlink:href="#SimHei-5faa"/>
     <use xlink:href="#SimHei-73af" x="100"/>
     <use xlink:href="#SimHei-20" x="200"/>
     <use xlink:href="#SimHei-32" x="250"/>
    </g>
   </g>
  </g>
  <g id="axes_3">
   <g id="patch_12">
    <path d="M 41.16125 536.29 
L 423.364527 536.29 
L 423.364527 309.51375 
L 41.16125 309.51375 
z
" style="fill: #ffffff"/>
   </g>
   <g id="matplotlib.axis_5">
    <g id="xtick_13">
     <g id="line2d_21">
      <g>
       <use xlink:href="#m0bb2ae0946" x="43.427277" y="536.29" style="stroke: #000000; stroke-width: 0.8"/>
      </g>
     </g>
     <g id="text_25">
      <!-- 0 -->
      <g transform="translate(40.927277 550.165) scale(0.1 -0.1)">
       <use xlink:href="#SimHei-30"/>
      </g>
     </g>
    </g>
    <g id="xtick_14">
     <g id="line2d_22">
      <g>
       <use xlink:href="#m0bb2ae0946" x="118.961522" y="536.29" style="stroke: #000000; stroke-width: 0.8"/>
      </g>
     </g>
     <g id="text_26">
      <!-- 5 -->
      <g transform="translate(116.461522 550.165) scale(0.1 -0.1)">
       <use xlink:href="#SimHei-35"/>
      </g>
     </g>
    </g>
    <g id="xtick_15">
     <g id="line2d_23">
      <g>
       <use xlink:href="#m0bb2ae0946" x="194.495766" y="536.29" style="stroke: #000000; stroke-width: 0.8"/>
      </g>
     </g>
     <g id="text_27">
      <!-- 10 -->
      <g transform="translate(189.495766 550.165) scale(0.1 -0.1)">
       <use xlink:href="#SimHei-31"/>
       <use xlink:href="#SimHei-30" x="50"/>
      </g>
     </g>
    </g>
    <g id="xtick_16">
     <g id="line2d_24">
      <g>
       <use xlink:href="#m0bb2ae0946" x="270.030011" y="536.29" style="stroke: #000000; stroke-width: 0.8"/>
      </g>
     </g>
     <g id="text_28">
      <!-- 15 -->
      <g transform="translate(265.030011 550.165) scale(0.1 -0.1)">
       <use xlink:href="#SimHei-31"/>
       <use xlink:href="#SimHei-35" x="50"/>
      </g>
     </g>
    </g>
    <g id="xtick_17">
     <g id="line2d_25">
      <g>
       <use xlink:href="#m0bb2ae0946" x="345.564256" y="536.29" style="stroke: #000000; stroke-width: 0.8"/>
      </g>
     </g>
     <g id="text_29">
      <!-- 20 -->
      <g transform="translate(340.564256 550.165) scale(0.1 -0.1)">
       <use xlink:href="#SimHei-32"/>
       <use xlink:href="#SimHei-30" x="50"/>
      </g>
     </g>
    </g>
    <g id="xtick_18">
     <g id="line2d_26">
      <g>
       <use xlink:href="#m0bb2ae0946" x="421.0985" y="536.29" style="stroke: #000000; stroke-width: 0.8"/>
      </g>
     </g>
     <g id="text_30">
      <!-- 25 -->
      <g transform="translate(416.0985 550.165) scale(0.1 -0.1)">
       <use xlink:href="#SimHei-32"/>
       <use xlink:href="#SimHei-35" x="50"/>
      </g>
     </g>
    </g>
    <g id="text_31">
     <!-- 调度时段 -->
     <g transform="translate(212.262889 563.422813) scale(0.1 -0.1)">
      <use xlink:href="#SimHei-8c03"/>
      <use xlink:href="#SimHei-5ea6" x="100"/>
      <use xlink:href="#SimHei-65f6" x="200"/>
      <use xlink:href="#SimHei-6bb5" x="300"/>
     </g>
    </g>
   </g>
   <g id="matplotlib.axis_6">
    <g id="ytick_7">
     <g id="line2d_27">
      <g>
       <use xlink:href="#m5c415bdc9a" x="41.16125" y="525.981989" style="stroke: #000000; stroke-width: 0.8"/>
      </g>
     </g>
     <g id="text_32">
      <!-- -1 -->
      <g transform="translate(24.16125 529.419489) scale(0.1 -0.1)">
       <use xlink:href="#SimHei-2d"/>
       <use xlink:href="#SimHei-31" x="50"/>
      </g>
     </g>
    </g>
    <g id="ytick_8">
     <g id="line2d_28">
      <g>
       <use xlink:href="#m5c415bdc9a" x="41.16125" y="422.901875" style="stroke: #000000; stroke-width: 0.8"/>
      </g>
     </g>
     <g id="text_33">
      <!-- 0 -->
      <g transform="translate(29.16125 426.339375) scale(0.1 -0.1)">
       <use xlink:href="#SimHei-30"/>
      </g>
     </g>
    </g>
    <g id="ytick_9">
     <g id="line2d_29">
      <g>
       <use xlink:href="#m5c415bdc9a" x="41.16125" y="319.821761" style="stroke: #000000; stroke-width: 0.8"/>
      </g>
     </g>
     <g id="text_34">
      <!-- 1 -->
      <g transform="translate(29.16125 323.259261) scale(0.1 -0.1)">
       <use xlink:href="#SimHei-31"/>
      </g>
     </g>
    </g>
    <g id="text_35">
     <!-- 不确定量u的取值 -->
     <g transform="translate(18.91125 460.401875) rotate(-90) scale(0.1 -0.1)">
      <use xlink:href="#SimHei-4e0d"/>
      <use xlink:href="#SimHei-786e" x="100"/>
      <use xlink:href="#SimHei-5b9a" x="200"/>
      <use xlink:href="#SimHei-91cf" x="300"/>
      <use xlink:href="#SimHei-75" x="400"/>
      <use xlink:href="#SimHei-7684" x="450"/>
      <use xlink:href="#SimHei-53d6" x="550"/>
      <use xlink:href="#SimHei-503c" x="650"/>
     </g>
    </g>
   </g>
   <g id="line2d_30">
    <path d="M 58.534126 525.981989 
L 66.087551 525.981989 
L 66.087551 319.821761 
L 81.1944 319.821761 
L 81.1944 525.981989 
L 96.301249 525.981989 
L 96.301249 525.981989 
L 111.408097 525.981989 
L 111.408097 525.981989 
L 126.514946 525.981989 
L 126.514946 319.821761 
L 141.621795 319.821761 
L 141.621795 319.821761 
L 156.728644 319.821761 
L 156.728644 319.821761 
L 171.835493 319.821761 
L 171.835493 319.821761 
L 186.942342 319.821761 
L 186.942342 319.821761 
L 202.049191 319.821761 
L 202.049191 319.821761 
L 217.15604 319.821761 
L 217.15604 319.821761 
L 232.262889 319.821761 
L 232.262889 319.821761 
L 247.369738 319.821761 
L 247.369738 319.821761 
L 262.476587 319.821761 
L 262.476587 319.821761 
L 277.583435 319.821761 
L 277.583435 319.821761 
L 292.690284 319.821761 
L 292.690284 319.821761 
L 307.797133 319.821761 
L 307.797133 319.821761 
L 322.903982 319.821761 
L 322.903982 319.821761 
L 338.010831 319.821761 
L 338.010831 319.821761 
L 353.11768 319.821761 
L 353.11768 319.821761 
L 368.224529 319.821761 
L 368.224529 319.821761 
L 383.331378 319.821761 
L 383.331378 525.981989 
L 398.438227 525.981989 
L 398.438227 319.821761 
L 405.991651 319.821761 
" clip-path="url(#p08359ca854)" style="fill: none; stroke: #105ba4; stroke-width: 3; stroke-linecap: square"/>
   </g>
   <g id="patch_13">
    <path d="M 41.16125 536.29 
L 41.16125 309.51375 
" style="fill: none; stroke: #000000; stroke-width: 0.8; stroke-linejoin: miter; stroke-linecap: square"/>
   </g>
   <g id="patch_14">
    <path d="M 423.364527 536.29 
L 423.364527 309.51375 
" style="fill: none; stroke: #000000; stroke-width: 0.8; stroke-linejoin: miter; stroke-linecap: square"/>
   </g>
   <g id="patch_15">
    <path d="M 41.16125 536.29 
L 423.364527 536.29 
" style="fill: none; stroke: #000000; stroke-width: 0.8; stroke-linejoin: miter; stroke-linecap: square"/>
   </g>
   <g id="patch_16">
    <path d="M 41.16125 309.51375 
L 423.364527 309.51375 
" style="fill: none; stroke: #000000; stroke-width: 0.8; stroke-linejoin: miter; stroke-linecap: square"/>
   </g>
   <g id="text_36">
    <!-- 循环 3 -->
    <g transform="translate(214.262889 303.51375) scale(0.12 -0.12)">
     <defs>
      <path id="SimHei-33" d="M 250 1225 
L 700 1300 
Q 800 975 1025 762 
Q 1250 550 1587 562 
Q 1925 575 2125 837 
Q 2325 1100 2300 1437 
Q 2275 1775 2037 1962 
Q 1800 2150 1275 2225 
L 1275 2550 
Q 1800 2600 2037 2825 
Q 2275 3050 2250 3412 
Q 2225 3775 1925 3937 
Q 1625 4100 1287 3975 
Q 950 3850 750 3275 
L 300 3350 
Q 450 3800 712 4100 
Q 975 4400 1425 4450 
Q 1875 4500 2212 4337 
Q 2550 4175 2687 3837 
Q 2825 3500 2725 3100 
Q 2625 2700 2150 2400 
Q 2500 2250 2687 1950 
Q 2875 1650 2812 1162 
Q 2750 675 2375 375 
Q 2000 75 1525 87 
Q 1050 100 700 387 
Q 350 675 250 1225 
z
" transform="scale(0.015625)"/>
     </defs>
     <use xlink:href="#SimHei-5faa"/>
     <use xlink:href="#SimHei-73af" x="100"/>
     <use xlink:href="#SimHei-20" x="200"/>
     <use xlink:href="#SimHei-33" x="250"/>
    </g>
   </g>
  </g>
  <g id="axes_4">
   <g id="patch_17">
    <path d="M 467.76125 536.29 
L 849.964527 536.29 
L 849.964527 309.51375 
L 467.76125 309.51375 
z
" style="fill: #ffffff"/>
   </g>
   <g id="matplotlib.axis_7">
    <g id="xtick_19">
     <g id="line2d_31">
      <g>
       <use xlink:href="#m0bb2ae0946" x="470.027277" y="536.29" style="stroke: #000000; stroke-width: 0.8"/>
      </g>
     </g>
     <g id="text_37">
      <!-- 0 -->
      <g transform="translate(467.527277 550.165) scale(0.1 -0.1)">
       <use xlink:href="#SimHei-30"/>
      </g>
     </g>
    </g>
    <g id="xtick_20">
     <g id="line2d_32">
      <g>
       <use xlink:href="#m0bb2ae0946" x="545.561522" y="536.29" style="stroke: #000000; stroke-width: 0.8"/>
      </g>
     </g>
     <g id="text_38">
      <!-- 5 -->
      <g transform="translate(543.061522 550.165) scale(0.1 -0.1)">
       <use xlink:href="#SimHei-35"/>
      </g>
     </g>
    </g>
    <g id="xtick_21">
     <g id="line2d_33">
      <g>
       <use xlink:href="#m0bb2ae0946" x="621.095766" y="536.29" style="stroke: #000000; stroke-width: 0.8"/>
      </g>
     </g>
     <g id="text_39">
      <!-- 10 -->
      <g transform="translate(616.095766 550.165) scale(0.1 -0.1)">
       <use xlink:href="#SimHei-31"/>
       <use xlink:href="#SimHei-30" x="50"/>
      </g>
     </g>
    </g>
    <g id="xtick_22">
     <g id="line2d_34">
      <g>
       <use xlink:href="#m0bb2ae0946" x="696.630011" y="536.29" style="stroke: #000000; stroke-width: 0.8"/>
      </g>
     </g>
     <g id="text_40">
      <!-- 15 -->
      <g transform="translate(691.630011 550.165) scale(0.1 -0.1)">
       <use xlink:href="#SimHei-31"/>
       <use xlink:href="#SimHei-35" x="50"/>
      </g>
     </g>
    </g>
    <g id="xtick_23">
     <g id="line2d_35">
      <g>
       <use xlink:href="#m0bb2ae0946" x="772.164256" y="536.29" style="stroke: #000000; stroke-width: 0.8"/>
      </g>
     </g>
     <g id="text_41">
      <!-- 20 -->
      <g transform="translate(767.164256 550.165) scale(0.1 -0.1)">
       <use xlink:href="#SimHei-32"/>
       <use xlink:href="#SimHei-30" x="50"/>
      </g>
     </g>
    </g>
    <g id="xtick_24">
     <g id="line2d_36">
      <g>
       <use xlink:href="#m0bb2ae0946" x="847.6985" y="536.29" style="stroke: #000000; stroke-width: 0.8"/>
      </g>
     </g>
     <g id="text_42">
      <!-- 25 -->
      <g transform="translate(842.6985 550.165) scale(0.1 -0.1)">
       <use xlink:href="#SimHei-32"/>
       <use xlink:href="#SimHei-35" x="50"/>
      </g>
     </g>
    </g>
    <g id="text_43">
     <!-- 调度时段 -->
     <g transform="translate(638.862889 563.422813) scale(0.1 -0.1)">
      <use xlink:href="#SimHei-8c03"/>
      <use xlink:href="#SimHei-5ea6" x="100"/>
      <use xlink:href="#SimHei-65f6" x="200"/>
      <use xlink:href="#SimHei-6bb5" x="300"/>
     </g>
    </g>
   </g>
   <g id="matplotlib.axis_8">
    <g id="ytick_10">
     <g id="line2d_37">
      <g>
       <use xlink:href="#m5c415bdc9a" x="467.76125" y="525.981989" style="stroke: #000000; stroke-width: 0.8"/>
      </g>
     </g>
     <g id="text_44">
      <!-- -1 -->
      <g transform="translate(450.76125 529.419489) scale(0.1 -0.1)">
       <use xlink:href="#SimHei-2d"/>
       <use xlink:href="#SimHei-31" x="50"/>
      </g>
     </g>
    </g>
    <g id="ytick_11">
     <g id="line2d_38">
      <g>
       <use xlink:href="#m5c415bdc9a" x="467.76125" y="422.901875" style="stroke: #000000; stroke-width: 0.8"/>
      </g>
     </g>
     <g id="text_45">
      <!-- 0 -->
      <g transform="translate(455.76125 426.339375) scale(0.1 -0.1)">
       <use xlink:href="#SimHei-30"/>
      </g>
     </g>
    </g>
    <g id="ytick_12">
     <g id="line2d_39">
      <g>
       <use xlink:href="#m5c415bdc9a" x="467.76125" y="319.821761" style="stroke: #000000; stroke-width: 0.8"/>
      </g>
     </g>
     <g id="text_46">
      <!-- 1 -->
      <g transform="translate(455.76125 323.259261) scale(0.1 -0.1)">
       <use xlink:href="#SimHei-31"/>
      </g>
     </g>
    </g>
    <g id="text_47">
     <!-- 不确定量u的取值 -->
     <g transform="translate(445.51125 460.401875) rotate(-90) scale(0.1 -0.1)">
      <use xlink:href="#SimHei-4e0d"/>
      <use xlink:href="#SimHei-786e" x="100"/>
      <use xlink:href="#SimHei-5b9a" x="200"/>
      <use xlink:href="#SimHei-91cf" x="300"/>
      <use xlink:href="#SimHei-75" x="400"/>
      <use xlink:href="#SimHei-7684" x="450"/>
      <use xlink:href="#SimHei-53d6" x="550"/>
      <use xlink:href="#SimHei-503c" x="650"/>
     </g>
    </g>
   </g>
   <g id="line2d_40">
    <path d="M 485.134126 525.981989 
L 492.687551 525.981989 
L 492.687551 319.821761 
L 507.7944 319.821761 
L 507.7944 525.981989 
L 522.901249 525.981989 
L 522.901249 525.981989 
L 538.008097 525.981989 
L 538.008097 525.981989 
L 553.114946 525.981989 
L 553.114946 319.821761 
L 568.221795 319.821761 
L 568.221795 319.821761 
L 583.328644 319.821761 
L 583.328644 319.821761 
L 598.435493 319.821761 
L 598.435493 319.821761 
L 613.542342 319.821761 
L 613.542342 319.821761 
L 628.649191 319.821761 
L 628.649191 319.821761 
L 643.75604 319.821761 
L 643.75604 319.821761 
L 658.862889 319.821761 
L 658.862889 319.821761 
L 673.969738 319.821761 
L 673.969738 319.821761 
L 689.076587 319.821761 
L 689.076587 319.821761 
L 704.183435 319.821761 
L 704.183435 319.821761 
L 719.290284 319.821761 
L 719.290284 319.821761 
L 734.397133 319.821761 
L 734.397133 319.821761 
L 749.503982 319.821761 
L 749.503982 319.821761 
L 764.610831 319.821761 
L 764.610831 319.821761 
L 779.71768 319.821761 
L 779.71768 319.821761 
L 794.824529 319.821761 
L 794.824529 319.821761 
L 809.931378 319.821761 
L 809.931378 319.821761 
L 825.038227 319.821761 
L 825.038227 319.821761 
L 832.591651 319.821761 
" clip-path="url(#p4bea0a14a8)" style="fill: none; stroke: #08306b; stroke-width: 3; stroke-linecap: square"/>
   </g>
   <g id="patch_18">
    <path d="M 467.76125 536.29 
L 467.76125 309.51375 
" style="fill: none; stroke: #000000; stroke-width: 0.8; stroke-linejoin: miter; stroke-linecap: square"/>
   </g>
   <g id="patch_19">
    <path d="M 849.964527 536.29 
L 849.964527 309.51375 
" style="fill: none; stroke: #000000; stroke-width: 0.8; stroke-linejoin: miter; stroke-linecap: square"/>
   </g>
   <g id="patch_20">
    <path d="M 467.76125 536.29 
L 849.964527 536.29 
" style="fill: none; stroke: #000000; stroke-width: 0.8; stroke-linejoin: miter; stroke-linecap: square"/>
   </g>
   <g id="patch_21">
    <path d="M 467.76125 309.51375 
L 849.964527 309.51375 
" style="fill: none; stroke: #000000; stroke-width: 0.8; stroke-linejoin: miter; stroke-linecap: square"/>
   </g>
   <g id="text_48">
    <!-- 循环 4 -->
    <g transform="translate(640.862889 303.51375) scale(0.12 -0.12)">
     <defs>
      <path id="SimHei-34" d="M 2000 1100 
L 75 1100 
L 75 1525 
L 2100 4450 
L 2475 4450 
L 2475 1525 
L 3075 1525 
L 3075 1100 
L 2475 1100 
L 2475 150 
L 2000 150 
L 2000 1100 
z
M 2000 1525 
L 2000 3500 
L 600 1525 
L 2000 1525 
z
" transform="scale(0.015625)"/>
     </defs>
     <use xlink:href="#SimHei-5faa"/>
     <use xlink:href="#SimHei-73af" x="100"/>
     <use xlink:href="#SimHei-20" x="200"/>
     <use xlink:href="#SimHei-34" x="250"/>
    </g>
   </g>
  </g>
 </g>
 <defs>
  <clipPath id="pb8aef54355">
   <rect x="41.16125" y="26.91375" width="382.203277" height="226.77625"/>
  </clipPath>
  <clipPath id="p94cf915555">
   <rect x="467.76125" y="26.91375" width="382.203277" height="226.77625"/>
  </clipPath>
  <clipPath id="p08359ca854">
   <rect x="41.16125" y="309.51375" width="382.203277" height="226.77625"/>
  </clipPath>
  <clipPath id="p4bea0a14a8">
   <rect x="467.76125" y="309.51375" width="382.203277" height="226.77625"/>
  </clipPath>
 </defs>
</svg>
