<?xml version="1.0" encoding="utf-8" standalone="no"?>
<!DOCTYPE svg PUBLIC "-//W3C//DTD SVG 1.1//EN"
  "http://www.w3.org/Graphics/SVG/1.1/DTD/svg11.dtd">
<svg xmlns:xlink="http://www.w3.org/1999/xlink" width="460.8pt" height="345.6pt" viewBox="0 0 460.8 345.6" xmlns="http://www.w3.org/2000/svg" version="1.1">
 <metadata>
  <rdf:RDF xmlns:dc="http://purl.org/dc/elements/1.1/" xmlns:cc="http://creativecommons.org/ns#" xmlns:rdf="http://www.w3.org/1999/02/22-rdf-syntax-ns#">
   <cc:Work>
    <dc:type rdf:resource="http://purl.org/dc/dcmitype/StillImage"/>
    <dc:date>2024-06-04T19:48:22.069755</dc:date>
    <dc:format>image/svg+xml</dc:format>
    <dc:creator>
     <cc:Agent>
      <dc:title>Matplotlib v3.7.2, https://matplotlib.org/</dc:title>
     </cc:Agent>
    </dc:creator>
   </cc:Work>
  </rdf:RDF>
 </metadata>
 <defs>
  <style type="text/css">*{stroke-linejoin: round; stroke-linecap: butt}</style>
 </defs>
 <g id="figure_1">
  <g id="patch_1">
   <path d="M 0 345.6 
L 460.8 345.6 
L 460.8 0 
L 0 0 
z
" style="fill: #ffffff"/>
  </g>
  <g id="axes_1">
   <g id="patch_2">
    <path d="M 57.6 307.584 
L 414.72 307.584 
L 414.72 41.472 
L 57.6 41.472 
z
" style="fill: #ffffff"/>
   </g>
   <g id="patch_3">
    <path d="M 75.185455 307.584 
L 86.007273 307.584 
L 86.007273 299.60064 
L 75.185455 299.60064 
z
" clip-path="url(#pbb43a30980)" style="fill: #1f77b4"/>
   </g>
   <g id="patch_4">
    <path d="M 88.712727 307.584 
L 99.534545 307.584 
L 99.534545 299.60064 
L 88.712727 299.60064 
z
" clip-path="url(#pbb43a30980)" style="fill: #1f77b4"/>
   </g>
   <g id="patch_5">
    <path d="M 102.24 307.584 
L 113.061818 307.584 
L 113.061818 299.60064 
L 102.24 299.60064 
z
" clip-path="url(#pbb43a30980)" style="fill: #1f77b4"/>
   </g>
   <g id="patch_6">
    <path d="M 115.767273 307.584 
L 126.589091 307.584 
L 126.589091 299.60064 
L 115.767273 299.60064 
z
" clip-path="url(#pbb43a30980)" style="fill: #1f77b4"/>
   </g>
   <g id="patch_7">
    <path d="M 129.294545 307.584 
L 140.116364 307.584 
L 140.116364 299.60064 
L 129.294545 299.60064 
z
" clip-path="url(#pbb43a30980)" style="fill: #1f77b4"/>
   </g>
   <g id="patch_8">
    <path d="M 142.821818 307.584 
L 153.643636 307.584 
L 153.643636 286.638564 
L 142.821818 286.638564 
z
" clip-path="url(#pbb43a30980)" style="fill: #1f77b4"/>
   </g>
   <g id="patch_9">
    <path d="M 156.349091 307.584 
L 167.170909 307.584 
L 167.170909 281.156657 
L 156.349091 281.156657 
z
" clip-path="url(#pbb43a30980)" style="fill: #1f77b4"/>
   </g>
   <g id="patch_10">
    <path d="M 169.876364 307.584 
L 180.698182 307.584 
L 180.698182 271.789514 
L 169.876364 271.789514 
z
" clip-path="url(#pbb43a30980)" style="fill: #1f77b4"/>
   </g>
   <g id="patch_11">
    <path d="M 183.403636 307.584 
L 194.225455 307.584 
L 194.225455 265.93505 
L 183.403636 265.93505 
z
" clip-path="url(#pbb43a30980)" style="fill: #1f77b4"/>
   </g>
   <g id="patch_12">
    <path d="M 196.930909 307.584 
L 207.752727 307.584 
L 207.752727 261.357924 
L 196.930909 261.357924 
z
" clip-path="url(#pbb43a30980)" style="fill: #1f77b4"/>
   </g>
   <g id="patch_13">
    <path d="M 210.458182 307.584 
L 221.28 307.584 
L 221.28 267.797834 
L 210.458182 267.797834 
z
" clip-path="url(#pbb43a30980)" style="fill: #1f77b4"/>
   </g>
   <g id="patch_14">
    <path d="M 223.985455 307.584 
L 234.807273 307.584 
L 234.807273 255.556682 
L 223.985455 255.556682 
z
" clip-path="url(#pbb43a30980)" style="fill: #1f77b4"/>
   </g>
   <g id="patch_15">
    <path d="M 237.512727 307.584 
L 248.334545 307.584 
L 248.334545 261.677258 
L 237.512727 261.677258 
z
" clip-path="url(#pbb43a30980)" style="fill: #1f77b4"/>
   </g>
   <g id="patch_16">
    <path d="M 251.04 307.584 
L 261.861818 307.584 
L 261.861818 259.49514 
L 251.04 259.49514 
z
" clip-path="url(#pbb43a30980)" style="fill: #1f77b4"/>
   </g>
   <g id="patch_17">
    <path d="M 264.567273 307.584 
L 275.389091 307.584 
L 275.389091 258.537137 
L 264.567273 258.537137 
z
" clip-path="url(#pbb43a30980)" style="fill: #1f77b4"/>
   </g>
   <g id="patch_18">
    <path d="M 278.094545 307.584 
L 288.916364 307.584 
L 288.916364 268.649393 
L 278.094545 268.649393 
z
" clip-path="url(#pbb43a30980)" style="fill: #1f77b4"/>
   </g>
   <g id="patch_19">
    <path d="M 291.621818 307.584 
L 302.443636 307.584 
L 302.443636 256.064717 
L 291.621818 256.064717 
z
" clip-path="url(#pbb43a30980)" style="fill: #1f77b4"/>
   </g>
   <g id="patch_20">
    <path d="M 305.149091 307.584 
L 315.970909 307.584 
L 315.970909 271.179878 
L 305.149091 271.179878 
z
" clip-path="url(#pbb43a30980)" style="fill: #1f77b4"/>
   </g>
   <g id="patch_21">
    <path d="M 318.676364 307.584 
L 329.498182 307.584 
L 329.498182 299.60064 
L 318.676364 299.60064 
z
" clip-path="url(#pbb43a30980)" style="fill: #1f77b4"/>
   </g>
   <g id="patch_22">
    <path d="M 332.203636 307.584 
L 343.025455 307.584 
L 343.025455 297.897523 
L 332.203636 297.897523 
z
" clip-path="url(#pbb43a30980)" style="fill: #1f77b4"/>
   </g>
   <g id="patch_23">
    <path d="M 345.730909 307.584 
L 356.552727 307.584 
L 356.552727 282.995251 
L 345.730909 282.995251 
z
" clip-path="url(#pbb43a30980)" style="fill: #1f77b4"/>
   </g>
   <g id="patch_24">
    <path d="M 359.258182 307.584 
L 370.08 307.584 
L 370.08 272.297549 
L 359.258182 272.297549 
z
" clip-path="url(#pbb43a30980)" style="fill: #1f77b4"/>
   </g>
   <g id="patch_25">
    <path d="M 372.785455 307.584 
L 383.607273 307.584 
L 383.607273 284.432256 
L 372.785455 284.432256 
z
" clip-path="url(#pbb43a30980)" style="fill: #1f77b4"/>
   </g>
   <g id="patch_26">
    <path d="M 386.312727 307.584 
L 397.134545 307.584 
L 397.134545 295.076736 
L 386.312727 295.076736 
z
" clip-path="url(#pbb43a30980)" style="fill: #1f77b4"/>
   </g>
   <g id="patch_27">
    <path d="M 75.185455 299.60064 
L 86.007273 299.60064 
L 86.007273 282.037248 
L 75.185455 282.037248 
z
" clip-path="url(#pbb43a30980)" style="fill: #ff7f0e"/>
   </g>
   <g id="patch_28">
    <path d="M 88.712727 299.60064 
L 99.534545 299.60064 
L 99.534545 228.069734 
L 88.712727 228.069734 
z
" clip-path="url(#pbb43a30980)" style="fill: #ff7f0e"/>
   </g>
   <g id="patch_29">
    <path d="M 102.24 299.60064 
L 113.061818 299.60064 
L 113.061818 282.037248 
L 102.24 282.037248 
z
" clip-path="url(#pbb43a30980)" style="fill: #ff7f0e"/>
   </g>
   <g id="patch_30">
    <path d="M 115.767273 299.60064 
L 126.589091 299.60064 
L 126.589091 282.037248 
L 115.767273 282.037248 
z
" clip-path="url(#pbb43a30980)" style="fill: #ff7f0e"/>
   </g>
   <g id="patch_31">
    <path d="M 129.294545 299.60064 
L 140.116364 299.60064 
L 140.116364 270.860544 
L 129.294545 270.860544 
z
" clip-path="url(#pbb43a30980)" style="fill: #ff7f0e"/>
   </g>
   <g id="patch_32">
    <path d="M 142.821818 286.638564 
L 153.643636 286.638564 
L 153.643636 238.767434 
L 142.821818 238.767434 
z
" clip-path="url(#pbb43a30980)" style="fill: #ff7f0e"/>
   </g>
   <g id="patch_33">
    <path d="M 156.349091 281.156657 
L 167.170909 281.156657 
L 167.170909 234.66931 
L 156.349091 234.66931 
z
" clip-path="url(#pbb43a30980)" style="fill: #ff7f0e"/>
   </g>
   <g id="patch_34">
    <path d="M 169.876364 271.789514 
L 180.698182 271.789514 
L 180.698182 203.001982 
L 169.876364 203.001982 
z
" clip-path="url(#pbb43a30980)" style="fill: #ff7f0e"/>
   </g>
   <g id="patch_35">
    <path d="M 183.403636 265.93505 
L 194.225455 265.93505 
L 194.225455 179.90346 
L 183.403636 179.90346 
z
" clip-path="url(#pbb43a30980)" style="fill: #ff7f0e"/>
   </g>
   <g id="patch_36">
    <path d="M 196.930909 261.357924 
L 207.752727 261.357924 
L 207.752727 197.253962 
L 196.930909 197.253962 
z
" clip-path="url(#pbb43a30980)" style="fill: #ff7f0e"/>
   </g>
   <g id="patch_37">
    <path d="M 210.458182 267.797834 
L 221.28 267.797834 
L 221.28 189.110935 
L 210.458182 189.110935 
z
" clip-path="url(#pbb43a30980)" style="fill: #ff7f0e"/>
   </g>
   <g id="patch_38">
    <path d="M 223.985455 255.556682 
L 234.807273 255.556682 
L 234.807273 166.491415 
L 223.985455 166.491415 
z
" clip-path="url(#pbb43a30980)" style="fill: #ff7f0e"/>
   </g>
   <g id="patch_39">
    <path d="M 237.512727 261.677258 
L 248.334545 261.677258 
L 248.334545 176.869783 
L 237.512727 176.869783 
z
" clip-path="url(#pbb43a30980)" style="fill: #ff7f0e"/>
   </g>
   <g id="patch_40">
    <path d="M 251.04 259.49514 
L 261.861818 259.49514 
L 261.861818 170.110538 
L 251.04 170.110538 
z
" clip-path="url(#pbb43a30980)" style="fill: #ff7f0e"/>
   </g>
   <g id="patch_41">
    <path d="M 264.567273 258.537137 
L 275.389091 258.537137 
L 275.389091 162.127178 
L 264.567273 162.127178 
z
" clip-path="url(#pbb43a30980)" style="fill: #ff7f0e"/>
   </g>
   <g id="patch_42">
    <path d="M 278.094545 268.649393 
L 288.916364 268.649393 
L 288.916364 173.623217 
L 278.094545 173.623217 
z
" clip-path="url(#pbb43a30980)" style="fill: #ff7f0e"/>
   </g>
   <g id="patch_43">
    <path d="M 291.621818 256.064717 
L 302.443636 256.064717 
L 302.443636 181.553357 
L 291.621818 181.553357 
z
" clip-path="url(#pbb43a30980)" style="fill: #ff7f0e"/>
   </g>
   <g id="patch_44">
    <path d="M 305.149091 271.179878 
L 315.970909 271.179878 
L 315.970909 220.991155 
L 305.149091 220.991155 
z
" clip-path="url(#pbb43a30980)" style="fill: #ff7f0e"/>
   </g>
   <g id="patch_45">
    <path d="M 318.676364 299.60064 
L 329.498182 299.60064 
L 329.498182 236.638541 
L 318.676364 236.638541 
z
" clip-path="url(#pbb43a30980)" style="fill: #ff7f0e"/>
   </g>
   <g id="patch_46">
    <path d="M 332.203636 297.897523 
L 343.025455 297.897523 
L 343.025455 216.999475 
L 332.203636 216.999475 
z
" clip-path="url(#pbb43a30980)" style="fill: #ff7f0e"/>
   </g>
   <g id="patch_47">
    <path d="M 345.730909 282.995251 
L 356.552727 282.995251 
L 356.552727 229.666406 
L 345.730909 229.666406 
z
" clip-path="url(#pbb43a30980)" style="fill: #ff7f0e"/>
   </g>
   <g id="patch_48">
    <path d="M 359.258182 272.297549 
L 370.08 272.297549 
L 370.08 236.159539 
L 359.258182 236.159539 
z
" clip-path="url(#pbb43a30980)" style="fill: #ff7f0e"/>
   </g>
   <g id="patch_49">
    <path d="M 372.785455 284.432256 
L 383.607273 284.432256 
L 383.607273 244.302566 
L 372.785455 244.302566 
z
" clip-path="url(#pbb43a30980)" style="fill: #ff7f0e"/>
   </g>
   <g id="patch_50">
    <path d="M 386.312727 295.076736 
L 397.134545 295.076736 
L 397.134545 260.482176 
L 386.312727 260.482176 
z
" clip-path="url(#pbb43a30980)" style="fill: #ff7f0e"/>
   </g>
   <g id="patch_51">
    <path d="M 75.185455 282.037248 
L 86.007273 282.037248 
L 86.007273 264.899635 
L 75.185455 264.899635 
z
" clip-path="url(#pbb43a30980)" style="fill: #2ca02c"/>
   </g>
   <g id="patch_52">
    <path d="M 88.712727 228.069734 
L 99.534545 228.069734 
L 99.534545 209.601562 
L 88.712727 209.601562 
z
" clip-path="url(#pbb43a30980)" style="fill: #2ca02c"/>
   </g>
   <g id="patch_53">
    <path d="M 102.24 282.037248 
L 113.061818 282.037248 
L 113.061818 263.569075 
L 102.24 263.569075 
z
" clip-path="url(#pbb43a30980)" style="fill: #2ca02c"/>
   </g>
   <g id="patch_54">
    <path d="M 115.767273 282.037248 
L 126.589091 282.037248 
L 126.589091 261.493402 
L 115.767273 261.493402 
z
" clip-path="url(#pbb43a30980)" style="fill: #2ca02c"/>
   </g>
   <g id="patch_55">
    <path d="M 129.294545 270.860544 
L 140.116364 270.860544 
L 140.116364 250.316698 
L 129.294545 250.316698 
z
" clip-path="url(#pbb43a30980)" style="fill: #2ca02c"/>
   </g>
   <g id="patch_56">
    <path d="M 142.821818 238.767434 
L 153.643636 238.767434 
L 153.643636 206.248548 
L 142.821818 206.248548 
z
" clip-path="url(#pbb43a30980)" style="fill: #2ca02c"/>
   </g>
   <g id="patch_57">
    <path d="M 156.349091 234.66931 
L 167.170909 234.66931 
L 167.170909 207.63233 
L 156.349091 207.63233 
z
" clip-path="url(#pbb43a30980)" style="fill: #2ca02c"/>
   </g>
   <g id="patch_58">
    <path d="M 169.876364 203.001982 
L 180.698182 203.001982 
L 180.698182 185.332145 
L 169.876364 185.332145 
z
" clip-path="url(#pbb43a30980)" style="fill: #2ca02c"/>
   </g>
   <g id="patch_59">
    <path d="M 183.403636 179.90346 
L 194.225455 179.90346 
L 194.225455 168.088087 
L 183.403636 168.088087 
z
" clip-path="url(#pbb43a30980)" style="fill: #2ca02c"/>
   </g>
   <g id="patch_60">
    <path d="M 196.930909 197.253962 
L 207.752727 197.253962 
L 207.752727 190.015716 
L 196.930909 190.015716 
z
" clip-path="url(#pbb43a30980)" style="fill: #2ca02c"/>
   </g>
   <g id="patch_61">
    <path d="M 210.458182 189.110935 
L 221.28 189.110935 
L 221.28 175.432778 
L 210.458182 175.432778 
z
" clip-path="url(#pbb43a30980)" style="fill: #2ca02c"/>
   </g>
   <g id="patch_62">
    <path d="M 223.985455 166.491415 
L 234.807273 166.491415 
L 234.807273 165.05441 
L 223.985455 165.05441 
z
" clip-path="url(#pbb43a30980)" style="fill: #2ca02c"/>
   </g>
   <g id="patch_63">
    <path d="M 237.512727 176.869783 
L 248.334545 176.869783 
L 248.334545 169.312202 
L 237.512727 169.312202 
z
" clip-path="url(#pbb43a30980)" style="fill: #2ca02c"/>
   </g>
   <g id="patch_64">
    <path d="M 251.04 170.110538 
L 261.861818 170.110538 
L 261.861818 164.735076 
L 251.04 164.735076 
z
" clip-path="url(#pbb43a30980)" style="fill: #2ca02c"/>
   </g>
   <g id="patch_65">
    <path d="M 264.567273 162.127178 
L 275.389091 162.127178 
L 275.389091 157.709719 
L 264.567273 157.709719 
z
" clip-path="url(#pbb43a30980)" style="fill: #2ca02c"/>
   </g>
   <g id="patch_66">
    <path d="M 278.094545 173.623217 
L 288.916364 173.623217 
L 288.916364 159.093502 
L 278.094545 159.093502 
z
" clip-path="url(#pbb43a30980)" style="fill: #2ca02c"/>
   </g>
   <g id="patch_67">
    <path d="M 291.621818 181.553357 
L 302.443636 181.553357 
L 302.443636 153.23904 
L 291.621818 153.23904 
z
" clip-path="url(#pbb43a30980)" style="fill: #2ca02c"/>
   </g>
   <g id="patch_68">
    <path d="M 305.149091 220.991155 
L 315.970909 220.991155 
L 315.970909 177.561677 
L 305.149091 177.561677 
z
" clip-path="url(#pbb43a30980)" style="fill: #2ca02c"/>
   </g>
   <g id="patch_69">
    <path d="M 318.676364 236.638541 
L 329.498182 236.638541 
L 329.498182 164.788301 
L 318.676364 164.788301 
z
" clip-path="url(#pbb43a30980)" style="fill: #2ca02c"/>
   </g>
   <g id="patch_70">
    <path d="M 332.203636 216.999475 
L 343.025455 216.999475 
L 343.025455 146.852352 
L 332.203636 146.852352 
z
" clip-path="url(#pbb43a30980)" style="fill: #2ca02c"/>
   </g>
   <g id="patch_71">
    <path d="M 345.730909 229.666406 
L 356.552727 229.666406 
L 356.552727 182.245248 
L 345.730909 182.245248 
z
" clip-path="url(#pbb43a30980)" style="fill: #2ca02c"/>
   </g>
   <g id="patch_72">
    <path d="M 359.258182 236.159539 
L 370.08 236.159539 
L 370.08 199.436083 
L 359.258182 199.436083 
z
" clip-path="url(#pbb43a30980)" style="fill: #2ca02c"/>
   </g>
   <g id="patch_73">
    <path d="M 372.785455 244.302566 
L 383.607273 244.302566 
L 383.607273 195.444403 
L 372.785455 195.444403 
z
" clip-path="url(#pbb43a30980)" style="fill: #2ca02c"/>
   </g>
   <g id="patch_74">
    <path d="M 386.312727 260.482176 
L 397.134545 260.482176 
L 397.134545 200.979533 
L 386.312727 200.979533 
z
" clip-path="url(#pbb43a30980)" style="fill: #2ca02c"/>
   </g>
   <g id="patch_75">
    <path d="M 75.185455 264.899635 
L 86.007273 264.899635 
L 86.007273 248.82647 
L 75.185455 248.82647 
z
" clip-path="url(#pbb43a30980)" style="fill: url(#h3a07abd54e); stroke: #d62728; stroke-linejoin: miter"/>
   </g>
   <g id="patch_76">
    <path d="M 88.712727 209.601562 
L 99.534545 209.601562 
L 99.534545 181.340467 
L 88.712727 181.340467 
z
" clip-path="url(#pbb43a30980)" style="fill: url(#h3a07abd54e); stroke: #d62728; stroke-linejoin: miter"/>
   </g>
   <g id="patch_77">
    <path d="M 102.24 263.569075 
L 113.061818 263.569075 
L 113.061818 244.728346 
L 102.24 244.728346 
z
" clip-path="url(#pbb43a30980)" style="fill: url(#h3a07abd54e); stroke: #d62728; stroke-linejoin: miter"/>
   </g>
   <g id="patch_78">
    <path d="M 115.767273 261.493402 
L 126.589091 261.493402 
L 126.589091 253.456819 
L 115.767273 253.456819 
z
" clip-path="url(#pbb43a30980)" style="fill: url(#h3a07abd54e); stroke: #d62728; stroke-linejoin: miter"/>
   </g>
   <g id="patch_79">
    <path d="M 129.294545 250.316698 
L 140.116364 250.316698 
L 140.116364 230.890522 
L 129.294545 230.890522 
z
" clip-path="url(#pbb43a30980)" style="fill: url(#h3a07abd54e); stroke: #d62728; stroke-linejoin: miter"/>
   </g>
   <g id="patch_80">
    <path d="M 142.821818 206.248548 
L 153.643636 206.248548 
L 153.643636 206.248548 
L 142.821818 206.248548 
z
" clip-path="url(#pbb43a30980)" style="fill: url(#h3a07abd54e); stroke: #d62728; stroke-linejoin: miter"/>
   </g>
   <g id="patch_81">
    <path d="M 156.349091 207.63233 
L 167.170909 207.63233 
L 167.170909 207.63233 
L 156.349091 207.63233 
z
" clip-path="url(#pbb43a30980)" style="fill: url(#h3a07abd54e); stroke: #d62728; stroke-linejoin: miter"/>
   </g>
   <g id="patch_82">
    <path d="M 169.876364 185.332145 
L 180.698182 185.332145 
L 180.698182 185.332145 
L 169.876364 185.332145 
z
" clip-path="url(#pbb43a30980)" style="fill: url(#h3a07abd54e); stroke: #d62728; stroke-linejoin: miter"/>
   </g>
   <g id="patch_83">
    <path d="M 183.403636 168.088087 
L 194.225455 168.088087 
L 194.225455 168.088087 
L 183.403636 168.088087 
z
" clip-path="url(#pbb43a30980)" style="fill: url(#h3a07abd54e); stroke: #d62728; stroke-linejoin: miter"/>
   </g>
   <g id="patch_84">
    <path d="M 196.930909 190.015716 
L 207.752727 190.015716 
L 207.752727 190.015716 
L 196.930909 190.015716 
z
" clip-path="url(#pbb43a30980)" style="fill: url(#h3a07abd54e); stroke: #d62728; stroke-linejoin: miter"/>
   </g>
   <g id="patch_85">
    <path d="M 210.458182 175.432778 
L 221.28 175.432778 
L 221.28 175.432778 
L 210.458182 175.432778 
z
" clip-path="url(#pbb43a30980)" style="fill: url(#h3a07abd54e); stroke: #d62728; stroke-linejoin: miter"/>
   </g>
   <g id="patch_86">
    <path d="M 223.985455 165.05441 
L 234.807273 165.05441 
L 234.807273 165.05441 
L 223.985455 165.05441 
z
" clip-path="url(#pbb43a30980)" style="fill: url(#h3a07abd54e); stroke: #d62728; stroke-linejoin: miter"/>
   </g>
   <g id="patch_87">
    <path d="M 237.512727 169.312202 
L 248.334545 169.312202 
L 248.334545 169.312202 
L 237.512727 169.312202 
z
" clip-path="url(#pbb43a30980)" style="fill: url(#h3a07abd54e); stroke: #d62728; stroke-linejoin: miter"/>
   </g>
   <g id="patch_88">
    <path d="M 251.04 164.735076 
L 261.861818 164.735076 
L 261.861818 164.735076 
L 251.04 164.735076 
z
" clip-path="url(#pbb43a30980)" style="fill: url(#h3a07abd54e); stroke: #d62728; stroke-linejoin: miter"/>
   </g>
   <g id="patch_89">
    <path d="M 264.567273 157.709719 
L 275.389091 157.709719 
L 275.389091 157.709719 
L 264.567273 157.709719 
z
" clip-path="url(#pbb43a30980)" style="fill: url(#h3a07abd54e); stroke: #d62728; stroke-linejoin: miter"/>
   </g>
   <g id="patch_90">
    <path d="M 278.094545 159.093502 
L 288.916364 159.093502 
L 288.916364 159.093502 
L 278.094545 159.093502 
z
" clip-path="url(#pbb43a30980)" style="fill: url(#h3a07abd54e); stroke: #d62728; stroke-linejoin: miter"/>
   </g>
   <g id="patch_91">
    <path d="M 291.621818 153.23904 
L 302.443636 153.23904 
L 302.443636 153.23904 
L 291.621818 153.23904 
z
" clip-path="url(#pbb43a30980)" style="fill: url(#h3a07abd54e); stroke: #d62728; stroke-linejoin: miter"/>
   </g>
   <g id="patch_92">
    <path d="M 305.149091 177.561677 
L 315.970909 177.561677 
L 315.970909 177.561677 
L 305.149091 177.561677 
z
" clip-path="url(#pbb43a30980)" style="fill: url(#h3a07abd54e); stroke: #d62728; stroke-linejoin: miter"/>
   </g>
   <g id="patch_93">
    <path d="M 318.676364 164.788301 
L 329.498182 164.788301 
L 329.498182 159.040282 
L 318.676364 159.040282 
z
" clip-path="url(#pbb43a30980)" style="fill: url(#h3a07abd54e); stroke: #d62728; stroke-linejoin: miter"/>
   </g>
   <g id="patch_94">
    <path d="M 332.203636 146.852352 
L 343.025455 146.852352 
L 343.025455 146.852352 
L 332.203636 146.852352 
z
" clip-path="url(#pbb43a30980)" style="fill: url(#h3a07abd54e); stroke: #d62728; stroke-linejoin: miter"/>
   </g>
   <g id="patch_95">
    <path d="M 345.730909 182.245248 
L 356.552727 182.245248 
L 356.552727 182.245248 
L 345.730909 182.245248 
z
" clip-path="url(#pbb43a30980)" style="fill: url(#h3a07abd54e); stroke: #d62728; stroke-linejoin: miter"/>
   </g>
   <g id="patch_96">
    <path d="M 359.258182 199.436083 
L 370.08 199.436083 
L 370.08 199.436083 
L 359.258182 199.436083 
z
" clip-path="url(#pbb43a30980)" style="fill: url(#h3a07abd54e); stroke: #d62728; stroke-linejoin: miter"/>
   </g>
   <g id="patch_97">
    <path d="M 372.785455 195.444403 
L 383.607273 195.444403 
L 383.607273 195.444403 
L 372.785455 195.444403 
z
" clip-path="url(#pbb43a30980)" style="fill: url(#h3a07abd54e); stroke: #d62728; stroke-linejoin: miter"/>
   </g>
   <g id="patch_98">
    <path d="M 386.312727 200.979533 
L 397.134545 200.979533 
L 397.134545 200.979533 
L 386.312727 200.979533 
z
" clip-path="url(#pbb43a30980)" style="fill: url(#h3a07abd54e); stroke: #d62728; stroke-linejoin: miter"/>
   </g>
   <g id="matplotlib.axis_1">
    <g id="xtick_1">
     <g id="line2d_1">
      <defs>
       <path id="me6c4b18cd9" d="M 0 0 
L 0 3.5 
" style="stroke: #000000; stroke-width: 0.8"/>
      </defs>
      <g>
       <use xlink:href="#me6c4b18cd9" x="67.069091" y="307.584" style="stroke: #000000; stroke-width: 0.8"/>
      </g>
     </g>
     <g id="text_1">
      <!-- 0 -->
      <g transform="translate(64.569091 321.459) scale(0.1 -0.1)">
       <defs>
        <path id="SimHei-30" d="M 225 2537 
Q 250 3200 412 3587 
Q 575 3975 875 4225 
Q 1175 4475 1612 4475 
Q 2050 4475 2375 4112 
Q 2700 3750 2800 3200 
Q 2900 2650 2862 1937 
Q 2825 1225 2612 775 
Q 2400 325 1975 150 
Q 1550 -25 1125 187 
Q 700 400 525 750 
Q 350 1100 275 1487 
Q 200 1875 225 2537 
z
M 750 2687 
Q 675 2000 800 1462 
Q 925 925 1212 700 
Q 1500 475 1800 612 
Q 2100 750 2237 1162 
Q 2375 1575 2375 2062 
Q 2375 2550 2337 2950 
Q 2300 3350 2112 3675 
Q 1925 4000 1612 4012 
Q 1300 4025 1062 3700 
Q 825 3375 750 2687 
z
" transform="scale(0.015625)"/>
       </defs>
       <use xlink:href="#SimHei-30"/>
      </g>
     </g>
    </g>
    <g id="xtick_2">
     <g id="line2d_2">
      <g>
       <use xlink:href="#me6c4b18cd9" x="134.705455" y="307.584" style="stroke: #000000; stroke-width: 0.8"/>
      </g>
     </g>
     <g id="text_2">
      <!-- 5 -->
      <g transform="translate(132.205455 321.459) scale(0.1 -0.1)">
       <defs>
        <path id="SimHei-35" d="M 550 1325 
Q 725 650 1150 575 
Q 1575 500 1837 662 
Q 2100 825 2212 1087 
Q 2325 1350 2312 1675 
Q 2300 2000 2137 2225 
Q 1975 2450 1725 2525 
Q 1475 2600 1162 2525 
Q 850 2450 650 2175 
L 225 2225 
Q 275 2375 700 4375 
L 2675 4375 
L 2675 3925 
L 1075 3925 
Q 950 3250 825 2850 
Q 1200 3025 1525 3012 
Q 1850 3000 2150 2862 
Q 2450 2725 2587 2487 
Q 2725 2250 2787 2012 
Q 2850 1775 2837 1500 
Q 2825 1225 2725 937 
Q 2625 650 2425 462 
Q 2225 275 1937 162 
Q 1650 50 1275 75 
Q 900 100 562 350 
Q 225 600 100 1200 
L 550 1325 
z
" transform="scale(0.015625)"/>
       </defs>
       <use xlink:href="#SimHei-35"/>
      </g>
     </g>
    </g>
    <g id="xtick_3">
     <g id="line2d_3">
      <g>
       <use xlink:href="#me6c4b18cd9" x="202.341818" y="307.584" style="stroke: #000000; stroke-width: 0.8"/>
      </g>
     </g>
     <g id="text_3">
      <!-- 10 -->
      <g transform="translate(197.341818 321.459) scale(0.1 -0.1)">
       <defs>
        <path id="SimHei-31" d="M 1400 3600 
Q 1075 3275 575 2975 
L 575 3450 
Q 1200 3875 1600 4450 
L 1900 4450 
L 1900 150 
L 1400 150 
L 1400 3600 
z
" transform="scale(0.015625)"/>
       </defs>
       <use xlink:href="#SimHei-31"/>
       <use xlink:href="#SimHei-30" x="50"/>
      </g>
     </g>
    </g>
    <g id="xtick_4">
     <g id="line2d_4">
      <g>
       <use xlink:href="#me6c4b18cd9" x="269.978182" y="307.584" style="stroke: #000000; stroke-width: 0.8"/>
      </g>
     </g>
     <g id="text_4">
      <!-- 15 -->
      <g transform="translate(264.978182 321.459) scale(0.1 -0.1)">
       <use xlink:href="#SimHei-31"/>
       <use xlink:href="#SimHei-35" x="50"/>
      </g>
     </g>
    </g>
    <g id="xtick_5">
     <g id="line2d_5">
      <g>
       <use xlink:href="#me6c4b18cd9" x="337.614545" y="307.584" style="stroke: #000000; stroke-width: 0.8"/>
      </g>
     </g>
     <g id="text_5">
      <!-- 20 -->
      <g transform="translate(332.614545 321.459) scale(0.1 -0.1)">
       <defs>
        <path id="SimHei-32" d="M 300 250 
Q 325 625 650 925 
Q 975 1225 1475 1862 
Q 1975 2500 2125 2850 
Q 2275 3200 2237 3450 
Q 2200 3700 2000 3862 
Q 1800 4025 1537 4000 
Q 1275 3975 1037 3800 
Q 800 3625 675 3275 
L 200 3350 
Q 400 3925 712 4187 
Q 1025 4450 1450 4475 
Q 1700 4500 1900 4462 
Q 2100 4425 2312 4287 
Q 2525 4150 2662 3875 
Q 2800 3600 2762 3212 
Q 2725 2825 2375 2287 
Q 2025 1750 1025 600 
L 2825 600 
L 2825 150 
L 300 150 
L 300 250 
z
" transform="scale(0.015625)"/>
       </defs>
       <use xlink:href="#SimHei-32"/>
       <use xlink:href="#SimHei-30" x="50"/>
      </g>
     </g>
    </g>
    <g id="xtick_6">
     <g id="line2d_6">
      <g>
       <use xlink:href="#me6c4b18cd9" x="405.250909" y="307.584" style="stroke: #000000; stroke-width: 0.8"/>
      </g>
     </g>
     <g id="text_6">
      <!-- 25 -->
      <g transform="translate(400.250909 321.459) scale(0.1 -0.1)">
       <use xlink:href="#SimHei-32"/>
       <use xlink:href="#SimHei-35" x="50"/>
      </g>
     </g>
    </g>
    <g id="text_7">
     <!-- 调度时段 -->
     <g transform="translate(216.16 334.716812) scale(0.1 -0.1)">
      <defs>
       <path id="SimHei-8c03" d="M 5950 200 
Q 5975 -300 5700 -437 
Q 5425 -575 4900 -650 
Q 4825 -350 4700 -50 
Q 5200 -75 5337 0 
Q 5475 75 5500 300 
L 5500 4525 
L 3075 4525 
L 3075 2275 
Q 3075 1225 2900 612 
Q 2725 0 2275 -650 
Q 2125 -450 1825 -300 
Q 2150 75 2312 437 
Q 2475 800 2550 1212 
Q 2625 1625 2625 2925 
Q 2625 4250 2600 4900 
L 5975 4900 
Q 5950 4525 5950 3900 
L 5950 200 
z
M 5125 1825 
Q 5100 1475 5100 1175 
Q 5100 875 5125 425 
L 3425 425 
Q 3450 875 3450 1175 
Q 3450 1475 3425 1825 
L 5125 1825 
z
M 2125 1600 
Q 2225 1375 2400 1200 
Q 2075 875 1875 650 
Q 1675 425 1325 50 
Q 1150 250 1000 400 
Q 1175 600 1175 825 
L 1175 2825 
L 950 2825 
Q 775 2825 300 2800 
L 300 3250 
Q 775 3225 950 3225 
L 1650 3225 
Q 1625 2775 1625 2225 
L 1625 1050 
Q 1750 1150 2125 1600 
z
M 4050 3675 
Q 4050 3975 4025 4300 
L 4500 4300 
Q 4475 4000 4475 3675 
Q 4750 3675 5125 3700 
L 5125 3275 
Q 4750 3300 4475 3300 
L 4475 2675 
Q 4925 2675 5225 2700 
L 5225 2250 
Q 4825 2275 4300 2275 
Q 3775 2275 3350 2250 
L 3350 2700 
Q 3775 2675 4050 2675 
L 4050 3300 
Q 3725 3300 3375 3275 
L 3375 3700 
Q 3750 3675 4050 3675 
z
M 4675 775 
L 4675 1475 
L 3875 1475 
L 3875 775 
L 4675 775 
z
M 1250 5025 
Q 1525 4700 1975 4100 
Q 1750 3975 1575 3775 
Q 1075 4525 875 4725 
Q 1075 4850 1250 5025 
z
" transform="scale(0.015625)"/>
       <path id="SimHei-5ea6" d="M 1750 1675 
Q 2450 1650 2875 1650 
L 5200 1650 
Q 4975 1250 4650 850 
Q 4325 450 4025 200 
Q 4350 50 4950 -50 
Q 5550 -150 6100 -150 
Q 5950 -300 5825 -650 
Q 5100 -550 4550 -412 
Q 4000 -275 3625 -100 
Q 3100 -325 2587 -462 
Q 2075 -600 1525 -675 
Q 1450 -475 1225 -250 
Q 1675 -250 2250 -125 
Q 2825 0 3250 200 
Q 2825 550 2400 1275 
L 1750 1250 
L 1750 1675 
z
M 2975 5075 
Q 3250 5150 3475 5250 
Q 3625 4975 3775 4525 
L 4700 4525 
Q 4975 4525 5700 4550 
L 5700 4100 
Q 5000 4125 4650 4125 
L 1375 4125 
Q 1375 3000 1350 2312 
Q 1325 1625 1212 950 
Q 1100 275 725 -525 
Q 500 -375 250 -300 
Q 650 400 762 1075 
Q 875 1750 887 2800 
Q 900 3850 875 4525 
L 3200 4525 
Q 3100 4850 2975 5075 
z
M 2475 3300 
Q 2475 3700 2450 3925 
L 2975 3925 
Q 2950 3725 2950 3300 
L 4300 3300 
Q 4300 3700 4275 3950 
L 4800 3950 
Q 4775 3650 4775 3300 
Q 5325 3300 5725 3325 
L 5725 2900 
Q 5350 2925 4775 2925 
Q 4775 2250 4800 1950 
L 2450 1950 
Q 2475 2350 2475 2925 
Q 2175 2925 1600 2900 
L 1600 3325 
Q 2175 3300 2475 3300 
z
M 4300 2350 
L 4300 2925 
L 2950 2925 
L 2950 2350 
L 4300 2350 
z
M 2875 1275 
Q 3200 775 3650 425 
Q 4025 700 4425 1275 
L 2900 1275 
L 2875 1275 
z
" transform="scale(0.015625)"/>
       <path id="SimHei-65f6" d="M 2525 4575 
Q 2500 3675 2500 2400 
Q 2500 1125 2525 400 
L 2000 400 
L 2000 875 
L 1000 875 
L 1000 50 
L 475 50 
Q 500 1200 500 2350 
Q 500 3525 475 4575 
L 2525 4575 
z
M 4875 3825 
Q 4875 4575 4850 5225 
L 5400 5225 
Q 5375 4575 5375 3825 
Q 5750 3825 6175 3850 
L 6175 3375 
Q 5750 3400 5375 3400 
L 5375 50 
Q 5375 -325 5075 -425 
Q 4775 -525 4300 -575 
Q 4300 -275 4025 0 
Q 4500 -50 4687 -25 
Q 4875 0 4875 300 
L 4875 3400 
Q 3625 3400 2775 3375 
L 2775 3850 
Q 3575 3825 4875 3825 
z
M 2000 1300 
L 2000 2550 
L 1000 2550 
L 1000 1300 
L 2000 1300 
z
M 2000 2975 
L 2000 4150 
L 1000 4150 
L 1000 2975 
L 2000 2975 
z
M 3550 2725 
Q 3875 2200 4175 1600 
Q 3925 1525 3650 1375 
Q 3450 1975 3075 2500 
Q 3300 2600 3550 2725 
z
" transform="scale(0.015625)"/>
       <path id="SimHei-6bb5" d="M 5500 2475 
Q 5350 1775 5100 1237 
Q 4850 700 4600 400 
Q 4825 225 5250 87 
Q 5675 -50 6125 -125 
Q 5950 -275 5825 -650 
Q 5150 -450 4825 -287 
Q 4500 -125 4225 75 
Q 3825 -175 3450 -337 
Q 3075 -500 2625 -650 
Q 2525 -400 2325 -225 
Q 2675 -150 3100 0 
Q 3525 150 3925 425 
Q 3725 675 3525 1150 
Q 3325 1600 3225 2075 
Q 3050 2075 2900 2075 
L 2900 2500 
Q 3375 2475 3800 2475 
L 5500 2475 
z
M 2650 4625 
Q 2300 4550 1887 4475 
Q 1475 4400 1300 4375 
L 1300 3550 
Q 2050 3550 2525 3600 
L 2525 3125 
Q 2050 3150 1300 3150 
L 1300 2350 
Q 2050 2350 2525 2375 
L 2525 1900 
Q 2050 1925 1300 1925 
L 1300 975 
Q 1950 1075 2625 1250 
Q 2600 1000 2600 775 
Q 1900 675 1300 525 
L 1300 100 
Q 1300 -200 1325 -625 
L 800 -625 
Q 825 -200 825 100 
L 825 425 
Q 575 375 350 300 
Q 300 650 250 825 
Q 500 850 825 900 
L 825 3800 
Q 825 4225 800 4725 
Q 1100 4725 1575 4825 
Q 2050 4925 2375 5125 
Q 2475 4850 2650 4625 
z
M 5100 4975 
Q 5075 4600 5075 4275 
L 5075 3650 
Q 5075 3425 5237 3387 
Q 5400 3350 5975 3400 
Q 5875 3225 5850 2950 
L 5075 2950 
Q 4650 2950 4625 3375 
L 4625 4575 
L 3775 4575 
Q 3775 3925 3675 3525 
Q 3575 3125 3200 2725 
Q 3025 2900 2800 3050 
Q 3275 3400 3300 3937 
Q 3325 4475 3300 4975 
L 5100 4975 
z
M 3675 2100 
Q 3775 1675 3962 1287 
Q 4150 900 4275 775 
Q 4450 950 4625 1312 
Q 4800 1675 4900 2100 
L 3800 2100 
L 3675 2100 
z
" transform="scale(0.015625)"/>
      </defs>
      <use xlink:href="#SimHei-8c03"/>
      <use xlink:href="#SimHei-5ea6" x="100"/>
      <use xlink:href="#SimHei-65f6" x="200"/>
      <use xlink:href="#SimHei-6bb5" x="300"/>
     </g>
    </g>
   </g>
   <g id="matplotlib.axis_2">
    <g id="ytick_1">
     <g id="line2d_7">
      <defs>
       <path id="m5edcbc6cb5" d="M 0 0 
L -3.5 0 
" style="stroke: #000000; stroke-width: 0.8"/>
      </defs>
      <g>
       <use xlink:href="#m5edcbc6cb5" x="57.6" y="307.584" style="stroke: #000000; stroke-width: 0.8"/>
      </g>
     </g>
     <g id="text_8">
      <!-- 0 -->
      <g transform="translate(45.6 311.0215) scale(0.1 -0.1)">
       <use xlink:href="#SimHei-30"/>
      </g>
     </g>
    </g>
    <g id="ytick_2">
     <g id="line2d_8">
      <g>
       <use xlink:href="#m5edcbc6cb5" x="57.6" y="254.3616" style="stroke: #000000; stroke-width: 0.8"/>
      </g>
     </g>
     <g id="text_9">
      <!-- 1000 -->
      <g transform="translate(30.6 257.7991) scale(0.1 -0.1)">
       <use xlink:href="#SimHei-31"/>
       <use xlink:href="#SimHei-30" x="50"/>
       <use xlink:href="#SimHei-30" x="100"/>
       <use xlink:href="#SimHei-30" x="150"/>
      </g>
     </g>
    </g>
    <g id="ytick_3">
     <g id="line2d_9">
      <g>
       <use xlink:href="#m5edcbc6cb5" x="57.6" y="201.1392" style="stroke: #000000; stroke-width: 0.8"/>
      </g>
     </g>
     <g id="text_10">
      <!-- 2000 -->
      <g transform="translate(30.6 204.5767) scale(0.1 -0.1)">
       <use xlink:href="#SimHei-32"/>
       <use xlink:href="#SimHei-30" x="50"/>
       <use xlink:href="#SimHei-30" x="100"/>
       <use xlink:href="#SimHei-30" x="150"/>
      </g>
     </g>
    </g>
    <g id="ytick_4">
     <g id="line2d_10">
      <g>
       <use xlink:href="#m5edcbc6cb5" x="57.6" y="147.9168" style="stroke: #000000; stroke-width: 0.8"/>
      </g>
     </g>
     <g id="text_11">
      <!-- 3000 -->
      <g transform="translate(30.6 151.3543) scale(0.1 -0.1)">
       <defs>
        <path id="SimHei-33" d="M 250 1225 
L 700 1300 
Q 800 975 1025 762 
Q 1250 550 1587 562 
Q 1925 575 2125 837 
Q 2325 1100 2300 1437 
Q 2275 1775 2037 1962 
Q 1800 2150 1275 2225 
L 1275 2550 
Q 1800 2600 2037 2825 
Q 2275 3050 2250 3412 
Q 2225 3775 1925 3937 
Q 1625 4100 1287 3975 
Q 950 3850 750 3275 
L 300 3350 
Q 450 3800 712 4100 
Q 975 4400 1425 4450 
Q 1875 4500 2212 4337 
Q 2550 4175 2687 3837 
Q 2825 3500 2725 3100 
Q 2625 2700 2150 2400 
Q 2500 2250 2687 1950 
Q 2875 1650 2812 1162 
Q 2750 675 2375 375 
Q 2000 75 1525 87 
Q 1050 100 700 387 
Q 350 675 250 1225 
z
" transform="scale(0.015625)"/>
       </defs>
       <use xlink:href="#SimHei-33"/>
       <use xlink:href="#SimHei-30" x="50"/>
       <use xlink:href="#SimHei-30" x="100"/>
       <use xlink:href="#SimHei-30" x="150"/>
      </g>
     </g>
    </g>
    <g id="ytick_5">
     <g id="line2d_11">
      <g>
       <use xlink:href="#m5edcbc6cb5" x="57.6" y="94.6944" style="stroke: #000000; stroke-width: 0.8"/>
      </g>
     </g>
     <g id="text_12">
      <!-- 4000 -->
      <g transform="translate(30.6 98.1319) scale(0.1 -0.1)">
       <defs>
        <path id="SimHei-34" d="M 2000 1100 
L 75 1100 
L 75 1525 
L 2100 4450 
L 2475 4450 
L 2475 1525 
L 3075 1525 
L 3075 1100 
L 2475 1100 
L 2475 150 
L 2000 150 
L 2000 1100 
z
M 2000 1525 
L 2000 3500 
L 600 1525 
L 2000 1525 
z
" transform="scale(0.015625)"/>
       </defs>
       <use xlink:href="#SimHei-34"/>
       <use xlink:href="#SimHei-30" x="50"/>
       <use xlink:href="#SimHei-30" x="100"/>
       <use xlink:href="#SimHei-30" x="150"/>
      </g>
     </g>
    </g>
    <g id="ytick_6">
     <g id="line2d_12">
      <g>
       <use xlink:href="#m5edcbc6cb5" x="57.6" y="41.472" style="stroke: #000000; stroke-width: 0.8"/>
      </g>
     </g>
     <g id="text_13">
      <!-- 5000 -->
      <g transform="translate(30.6 44.9095) scale(0.1 -0.1)">
       <use xlink:href="#SimHei-35"/>
       <use xlink:href="#SimHei-30" x="50"/>
       <use xlink:href="#SimHei-30" x="100"/>
       <use xlink:href="#SimHei-30" x="150"/>
      </g>
     </g>
    </g>
    <g id="text_14">
     <!-- 风火出力 -->
     <g transform="translate(25.35 194.528) rotate(-90) scale(0.1 -0.1)">
      <defs>
       <path id="SimHei-98ce" d="M 5100 4950 
Q 5050 3950 5062 3137 
Q 5075 2325 5087 1825 
Q 5100 1325 5262 712 
Q 5425 100 5525 150 
Q 5625 200 5700 775 
Q 5925 550 6200 450 
Q 5950 -475 5687 -562 
Q 5425 -650 5175 -337 
Q 4925 -25 4787 575 
Q 4650 1175 4625 1862 
Q 4600 2550 4600 4500 
L 1500 4500 
Q 1500 2475 1437 1825 
Q 1375 1175 1187 525 
Q 1000 -125 625 -675 
Q 400 -425 275 -275 
Q 600 150 775 737 
Q 950 1325 1000 2062 
Q 1050 2800 1050 3675 
Q 1050 4550 1025 4950 
L 5100 4950 
z
M 4225 3625 
Q 4075 3425 3875 2950 
Q 3675 2475 3475 2100 
Q 4025 1200 4350 525 
Q 4100 400 3925 275 
Q 3750 700 3225 1625 
Q 2950 1250 2650 925 
Q 2350 600 1950 250 
Q 1750 525 1600 625 
Q 2000 875 2375 1287 
Q 2750 1700 2950 2025 
Q 2450 2825 1850 3450 
Q 2075 3600 2200 3750 
Q 2700 3175 3200 2475 
Q 3475 3000 3725 3925 
L 4225 3625 
z
" transform="scale(0.015625)"/>
       <path id="SimHei-706b" d="M 3525 5175 
Q 3425 4800 3412 4412 
Q 3400 4025 3412 3437 
Q 3425 2850 3650 2250 
Q 3875 1650 4225 1250 
Q 4575 850 5037 562 
Q 5500 275 6200 100 
Q 5875 -200 5750 -475 
Q 5200 -225 4837 12 
Q 4475 250 4175 537 
Q 3875 825 3612 1225 
Q 3350 1625 3175 2250 
Q 3050 1675 2825 1287 
Q 2600 900 2337 575 
Q 2075 250 1675 -37 
Q 1275 -325 800 -650 
Q 625 -375 275 -175 
Q 1100 150 1687 662 
Q 2275 1175 2525 1837 
Q 2775 2500 2862 3362 
Q 2950 4225 2925 5250 
Q 3200 5200 3525 5175 
z
M 5500 3975 
Q 5300 3775 5100 3237 
Q 4900 2700 4725 2325 
Q 4500 2475 4200 2550 
Q 4450 2950 4625 3387 
Q 4800 3825 4900 4175 
Q 5125 4050 5500 3975 
z
M 1875 3950 
Q 1750 3775 1625 3262 
Q 1500 2750 1325 2250 
Q 1075 2325 775 2375 
Q 900 2600 1050 3062 
Q 1200 3525 1300 4075 
Q 1525 4000 1875 3950 
z
" transform="scale(0.015625)"/>
       <path id="SimHei-51fa" d="M 1475 4550 
Q 1450 4225 1450 3950 
L 1450 2950 
L 2925 2950 
L 2925 4425 
Q 2925 4775 2900 5125 
L 3425 5125 
Q 3400 4825 3400 4425 
L 3400 2950 
L 4900 2950 
L 4900 3875 
Q 4900 4275 4875 4525 
L 5400 4525 
Q 5375 4275 5375 3850 
L 5375 3175 
Q 5375 2775 5400 2525 
L 3400 2525 
L 3400 225 
L 5125 225 
L 5125 1275 
Q 5125 1650 5100 1925 
L 5625 1925 
Q 5600 1650 5600 1300 
L 5600 175 
Q 5600 -325 5625 -650 
L 5125 -650 
L 5125 -200 
L 675 -200 
Q 700 100 700 525 
L 700 1275 
Q 700 1700 675 1950 
L 1200 1950 
Q 1175 1700 1175 1275 
L 1175 225 
L 2925 225 
L 2925 2525 
L 950 2525 
Q 975 2775 975 3150 
L 975 3925 
Q 975 4250 950 4550 
L 1475 4550 
z
" transform="scale(0.015625)"/>
       <path id="SimHei-529b" d="M 3275 3275 
Q 3200 2400 3050 1875 
Q 2900 1350 2637 912 
Q 2375 475 1950 87 
Q 1525 -300 925 -675 
Q 800 -475 425 -250 
Q 1025 50 1425 375 
Q 1825 700 2112 1112 
Q 2400 1525 2537 2050 
Q 2675 2575 2725 3275 
L 2000 3275 
Q 1275 3275 675 3250 
L 675 3750 
Q 1275 3725 2000 3725 
L 2750 3725 
L 2750 4475 
Q 2750 4825 2725 5200 
Q 3000 5150 3350 5125 
Q 3300 4900 3287 4475 
Q 3275 4050 3275 3725 
L 5825 3725 
Q 5725 2375 5700 1862 
Q 5675 1350 5600 612 
Q 5525 -125 5187 -300 
Q 4850 -475 4025 -550 
Q 4000 -250 3775 100 
Q 4500 75 4750 175 
Q 5000 275 5037 550 
Q 5075 825 5112 1262 
Q 5150 1700 5225 3275 
L 3275 3275 
z
" transform="scale(0.015625)"/>
      </defs>
      <use xlink:href="#SimHei-98ce"/>
      <use xlink:href="#SimHei-706b" x="100"/>
      <use xlink:href="#SimHei-51fa" x="200"/>
      <use xlink:href="#SimHei-529b" x="300"/>
     </g>
    </g>
   </g>
   <g id="line2d_13">
    <path d="M 73.832727 263.941632 
L 87.36 263.941632 
L 87.36 209.601562 
L 100.887273 209.601562 
L 100.887273 263.569075 
L 114.414545 263.569075 
L 114.414545 261.493402 
L 127.941818 261.493402 
L 127.941818 250.316698 
L 141.469091 250.316698 
L 141.469091 206.24855 
L 154.996364 206.24855 
L 154.996364 207.632333 
L 168.523636 207.632333 
L 168.523636 185.332147 
L 182.050909 185.332147 
L 182.050909 168.08809 
L 195.578182 168.08809 
L 195.578182 190.015718 
L 209.105455 190.015718 
L 209.105455 175.432781 
L 222.632727 175.432781 
L 222.632727 165.054413 
L 236.16 165.054413 
L 236.16 169.312205 
L 249.687273 169.312205 
L 249.687273 164.735078 
L 263.214545 164.735078 
L 263.214545 157.709722 
L 276.741818 157.709722 
L 276.741818 159.093504 
L 290.269091 159.093504 
L 290.269091 153.23904 
L 303.796364 153.23904 
L 303.796364 177.561677 
L 317.323636 177.561677 
L 317.323636 164.788301 
L 330.850909 164.788301 
L 330.850909 146.852352 
L 344.378182 146.852352 
L 344.378182 182.245248 
L 357.905455 182.245248 
L 357.905455 199.436083 
L 371.432727 199.436083 
L 371.432727 195.444403 
L 384.96 195.444403 
L 384.96 200.979533 
L 398.487273 200.979533 
L 398.487273 200.979533 
" clip-path="url(#pbb43a30980)" style="fill: none; stroke-dasharray: 5.55,2.4; stroke-dashoffset: 0; stroke: #ff0000; stroke-width: 1.5"/>
   </g>
   <g id="patch_99">
    <path d="M 57.6 307.584 
L 57.6 41.472 
" style="fill: none; stroke: #000000; stroke-width: 0.8; stroke-linejoin: miter; stroke-linecap: square"/>
   </g>
   <g id="patch_100">
    <path d="M 414.72 307.584 
L 414.72 41.472 
" style="fill: none; stroke: #000000; stroke-width: 0.8; stroke-linejoin: miter; stroke-linecap: square"/>
   </g>
   <g id="patch_101">
    <path d="M 57.6 307.584 
L 414.72 307.584 
" style="fill: none; stroke: #000000; stroke-width: 0.8; stroke-linejoin: miter; stroke-linecap: square"/>
   </g>
   <g id="patch_102">
    <path d="M 57.6 41.472 
L 414.72 41.472 
" style="fill: none; stroke: #000000; stroke-width: 0.8; stroke-linejoin: miter; stroke-linecap: square"/>
   </g>
   <g id="legend_1">
    <g id="patch_103">
     <path d="M 64.6 116.768875 
L 121.6 116.768875 
Q 123.6 116.768875 123.6 114.768875 
L 123.6 48.472 
Q 123.6 46.472 121.6 46.472 
L 64.6 46.472 
Q 62.6 46.472 62.6 48.472 
L 62.6 114.768875 
Q 62.6 116.768875 64.6 116.768875 
z
" style="fill: #ffffff; opacity: 0.8; stroke: #cccccc; stroke-linejoin: miter"/>
    </g>
    <g id="line2d_14">
     <path d="M 66.6 55.018875 
L 76.6 55.018875 
L 76.6 55.018875 
L 86.6 55.018875 
L 86.6 55.018875 
" style="fill: none; stroke-dasharray: 5.55,2.4; stroke-dashoffset: 0; stroke: #ff0000; stroke-width: 1.5"/>
    </g>
    <g id="text_15">
     <!-- 负荷 -->
     <g transform="translate(94.6 58.518875) scale(0.1 -0.1)">
      <defs>
       <path id="SimHei-8d1f" d="M 2900 5000 
Q 2575 4600 2500 4475 
L 4800 4475 
Q 4200 3500 4025 3200 
L 5450 3200 
Q 5425 2850 5425 1975 
Q 5425 1100 5450 725 
L 4925 725 
L 4925 2800 
L 1825 2800 
L 1825 650 
L 1300 650 
Q 1325 1050 1325 1925 
Q 1325 2800 1300 3150 
Q 950 2900 750 2725 
Q 525 2975 300 3125 
Q 625 3275 1062 3612 
Q 1500 3950 1875 4462 
Q 2250 4975 2375 5250 
Q 2625 5075 2900 5000 
z
M 3650 2150 
Q 3575 1900 3450 1337 
Q 3325 775 3050 412 
Q 2775 50 2162 -225 
Q 1550 -500 675 -675 
Q 600 -425 400 -175 
Q 1000 -125 1575 50 
Q 2150 225 2475 500 
Q 2800 775 2925 1187 
Q 3050 1600 3050 2225 
Q 3375 2175 3650 2150 
z
M 2225 4075 
Q 1800 3600 1350 3200 
L 3475 3200 
Q 3800 3725 4000 4075 
L 2225 4075 
z
M 3875 750 
Q 4350 525 4850 300 
Q 5350 75 5925 -225 
Q 5775 -425 5650 -700 
Q 5100 -400 4612 -150 
Q 4125 100 3650 300 
Q 3850 600 3875 750 
z
" transform="scale(0.015625)"/>
       <path id="SimHei-8377" d="M 2600 4225 
Q 2600 4000 2625 3700 
L 2125 3700 
Q 2150 4000 2150 4225 
L 1225 4225 
Q 775 4225 300 4175 
L 300 4650 
Q 750 4625 1175 4625 
L 2150 4625 
Q 2150 4900 2125 5175 
L 2625 5175 
Q 2600 4900 2600 4625 
L 3850 4625 
Q 3850 4850 3825 5175 
L 4325 5175 
Q 4300 4850 4300 4625 
L 5200 4625 
Q 5575 4625 6075 4650 
L 6075 4200 
Q 5600 4225 5250 4225 
L 4300 4225 
Q 4300 3975 4325 3625 
L 3825 3625 
Q 3850 3950 3850 4225 
L 2600 4225 
z
M 5250 3275 
Q 5725 3275 6125 3300 
L 6125 2850 
Q 5775 2875 5375 2875 
L 5375 -50 
Q 5375 -325 5200 -425 
Q 5025 -525 4475 -600 
Q 4450 -350 4225 -50 
Q 4600 -75 4762 -62 
Q 4925 -50 4925 125 
L 4925 2875 
L 3175 2875 
Q 2750 2875 2300 2850 
L 2300 3300 
Q 2750 3275 3175 3275 
L 5250 3275 
z
M 4300 2225 
Q 4275 1925 4275 1300 
Q 4275 700 4300 425 
L 2500 425 
Q 2525 700 2525 1325 
Q 2525 1950 2500 2225 
L 4300 2225 
z
M 2275 3450 
Q 2150 3350 2037 3212 
Q 1925 3075 1775 2875 
L 1775 325 
Q 1775 -175 1800 -575 
L 1300 -575 
Q 1325 -150 1325 325 
L 1325 2225 
Q 950 1725 600 1400 
Q 425 1625 200 1800 
Q 650 2125 1175 2825 
Q 1700 3525 1750 3775 
Q 2000 3600 2275 3450 
z
M 3850 850 
L 3850 1825 
L 2975 1825 
L 2975 850 
L 3850 850 
z
" transform="scale(0.015625)"/>
      </defs>
      <use xlink:href="#SimHei-8d1f"/>
      <use xlink:href="#SimHei-8377" x="100"/>
     </g>
    </g>
    <g id="patch_104">
     <path d="M 66.6 71.768875 
L 86.6 71.768875 
L 86.6 64.768875 
L 66.6 64.768875 
z
" style="fill: #1f77b4"/>
    </g>
    <g id="text_16">
     <!-- PA -->
     <g transform="translate(94.6 71.768875) scale(0.1 -0.1)">
      <defs>
       <path id="SimHei-50" d="M 2950 3100 
Q 2950 2500 2600 2150 
Q 2250 1800 1625 1800 
L 900 1800 
L 900 125 
L 325 125 
L 325 4400 
L 1625 4400 
Q 2250 4400 2600 4050 
Q 2950 3700 2950 3100 
z
M 2375 3100 
Q 2375 3575 2150 3750 
Q 1925 3925 1475 3925 
L 900 3925 
L 900 2275 
L 1475 2275 
Q 1925 2275 2150 2450 
Q 2375 2625 2375 3100 
z
" transform="scale(0.015625)"/>
       <path id="SimHei-41" d="M 3075 125 
L 2475 125 
L 2125 1450 
L 1025 1450 
L 675 125 
L 75 125 
L 1325 4450 
L 1825 4450 
L 3075 125 
z
M 2000 1925 
L 1600 3450 
L 1550 3450 
L 1150 1925 
L 2000 1925 
z
" transform="scale(0.015625)"/>
      </defs>
      <use xlink:href="#SimHei-50"/>
      <use xlink:href="#SimHei-41" x="50"/>
     </g>
    </g>
    <g id="patch_105">
     <path d="M 66.6 85.018875 
L 86.6 85.018875 
L 86.6 78.018875 
L 66.6 78.018875 
z
" style="fill: #ff7f0e"/>
    </g>
    <g id="text_17">
     <!-- PB -->
     <g transform="translate(94.6 85.018875) scale(0.1 -0.1)">
      <defs>
       <path id="SimHei-42" d="M 2950 1400 
Q 2950 675 2550 400 
Q 2150 125 1525 125 
L 275 125 
L 275 4400 
L 1575 4400 
Q 2200 4400 2512 4075 
Q 2825 3750 2825 3300 
Q 2825 2850 2612 2637 
Q 2400 2425 2175 2350 
Q 2475 2275 2712 2037 
Q 2950 1800 2950 1400 
z
M 2250 3300 
Q 2250 3625 2062 3775 
Q 1875 3925 1600 3925 
L 850 3925 
L 850 2600 
L 1575 2600 
Q 1850 2600 2050 2762 
Q 2250 2925 2250 3300 
z
M 2350 1400 
Q 2350 1800 2087 1962 
Q 1825 2125 1500 2125 
L 850 2125 
L 850 600 
L 1425 600 
Q 1875 600 2112 775 
Q 2350 950 2350 1400 
z
" transform="scale(0.015625)"/>
      </defs>
      <use xlink:href="#SimHei-50"/>
      <use xlink:href="#SimHei-42" x="50"/>
     </g>
    </g>
    <g id="patch_106">
     <path d="M 66.6 98.268875 
L 86.6 98.268875 
L 86.6 91.268875 
L 66.6 91.268875 
z
" style="fill: #2ca02c"/>
    </g>
    <g id="text_18">
     <!-- Pwact -->
     <g transform="translate(94.6 98.268875) scale(0.1 -0.1)">
      <defs>
       <path id="SimHei-77" d="M 3075 2925 
L 2450 75 
L 1975 75 
L 1575 2250 
L 1525 2250 
L 1125 75 
L 650 75 
L 25 2925 
L 550 2925 
L 875 1050 
L 925 1050 
L 1275 2925 
L 1825 2925 
L 2175 1050 
L 2225 1050 
L 2550 2925 
L 3075 2925 
z
" transform="scale(0.015625)"/>
       <path id="SimHei-61" d="M 2875 125 
L 2275 125 
Q 2225 175 2200 262 
Q 2175 350 2175 475 
Q 2000 275 1750 175 
Q 1500 75 1225 75 
Q 825 75 550 275 
Q 275 475 275 850 
Q 275 1225 525 1450 
Q 775 1675 1300 1750 
Q 1650 1800 1912 1875 
Q 2175 1950 2175 2075 
Q 2175 2225 2062 2375 
Q 1950 2525 1575 2525 
Q 1275 2525 1137 2412 
Q 1000 2300 950 2100 
L 400 2100 
Q 450 2500 762 2737 
Q 1075 2975 1575 2975 
Q 2125 2975 2400 2725 
Q 2675 2475 2675 2025 
L 2675 650 
Q 2675 500 2725 375 
Q 2775 250 2875 125 
z
M 2175 1050 
L 2175 1550 
Q 2025 1500 1887 1462 
Q 1750 1425 1425 1375 
Q 1050 1325 937 1200 
Q 825 1075 825 900 
Q 825 750 937 637 
Q 1050 525 1275 525 
Q 1500 525 1762 650 
Q 2025 775 2175 1050 
z
" transform="scale(0.015625)"/>
       <path id="SimHei-63" d="M 2850 1250 
Q 2850 725 2487 400 
Q 2125 75 1575 75 
Q 1025 75 625 462 
Q 225 850 225 1525 
Q 225 2200 625 2587 
Q 1025 2975 1575 2975 
Q 2125 2975 2450 2687 
Q 2775 2400 2775 2000 
L 2225 2000 
Q 2200 2300 2012 2412 
Q 1825 2525 1575 2525 
Q 1275 2525 1025 2287 
Q 775 2050 775 1525 
Q 775 1000 1025 762 
Q 1275 525 1575 525 
Q 1900 525 2100 700 
Q 2300 875 2300 1250 
L 2850 1250 
z
" transform="scale(0.015625)"/>
       <path id="SimHei-74" d="M 2750 200 
Q 2625 150 2462 112 
Q 2300 75 2025 75 
Q 1575 75 1300 325 
Q 1025 575 1025 1025 
L 1025 2525 
L 175 2525 
L 175 2925 
L 1025 2925 
L 1025 3900 
L 1525 3900 
L 1525 2925 
L 2550 2925 
L 2550 2525 
L 1525 2525 
L 1525 1000 
Q 1525 800 1625 662 
Q 1725 525 2000 525 
Q 2275 525 2450 575 
Q 2625 625 2750 700 
L 2750 200 
z
" transform="scale(0.015625)"/>
      </defs>
      <use xlink:href="#SimHei-50"/>
      <use xlink:href="#SimHei-77" x="50"/>
      <use xlink:href="#SimHei-61" x="100"/>
      <use xlink:href="#SimHei-63" x="150"/>
      <use xlink:href="#SimHei-74" x="200"/>
     </g>
    </g>
    <g id="patch_107">
     <path d="M 66.6 111.518875 
L 86.6 111.518875 
L 86.6 104.518875 
L 66.6 104.518875 
z
" style="fill: url(#h3a07abd54e); stroke: #d62728; stroke-linejoin: miter"/>
    </g>
    <g id="text_19">
     <!-- Pwcur -->
     <g transform="translate(94.6 111.518875) scale(0.1 -0.1)">
      <defs>
       <path id="SimHei-75" d="M 2800 125 
L 2300 125 
L 2300 650 
Q 2100 375 1862 225 
Q 1625 75 1250 75 
Q 800 75 575 325 
Q 350 575 350 950 
L 350 2925 
L 850 2925 
L 850 1125 
Q 850 825 1000 650 
Q 1150 475 1400 475 
Q 1725 475 2012 812 
Q 2300 1150 2300 1650 
L 2300 2925 
L 2800 2925 
L 2800 125 
z
" transform="scale(0.015625)"/>
       <path id="SimHei-72" d="M 2500 2425 
Q 2025 2500 1700 2287 
Q 1375 2075 1150 1550 
L 1150 125 
L 650 125 
L 650 2925 
L 1150 2925 
L 1150 2200 
Q 1375 2600 1712 2787 
Q 2050 2975 2500 2975 
L 2500 2425 
z
" transform="scale(0.015625)"/>
      </defs>
      <use xlink:href="#SimHei-50"/>
      <use xlink:href="#SimHei-77" x="50"/>
      <use xlink:href="#SimHei-63" x="100"/>
      <use xlink:href="#SimHei-75" x="150"/>
      <use xlink:href="#SimHei-72" x="200"/>
     </g>
    </g>
   </g>
  </g>
  <g id="axes_2">
   <g id="matplotlib.axis_3">
    <g id="ytick_7">
     <g id="line2d_15">
      <defs>
       <path id="m5686e1bb66" d="M 0 0 
L 3.5 0 
" style="stroke: #000000; stroke-width: 0.8"/>
      </defs>
      <g>
       <use xlink:href="#m5686e1bb66" x="414.72" y="307.584" style="stroke: #000000; stroke-width: 0.8"/>
      </g>
     </g>
     <g id="text_20">
      <!-- 0 -->
      <g transform="translate(421.72 311.0215) scale(0.1 -0.1)">
       <use xlink:href="#SimHei-30"/>
      </g>
     </g>
    </g>
    <g id="ytick_8">
     <g id="line2d_16">
      <g>
       <use xlink:href="#m5686e1bb66" x="414.72" y="274.32" style="stroke: #000000; stroke-width: 0.8"/>
      </g>
     </g>
     <g id="text_21">
      <!-- 200 -->
      <g transform="translate(421.72 277.7575) scale(0.1 -0.1)">
       <use xlink:href="#SimHei-32"/>
       <use xlink:href="#SimHei-30" x="50"/>
       <use xlink:href="#SimHei-30" x="100"/>
      </g>
     </g>
    </g>
    <g id="ytick_9">
     <g id="line2d_17">
      <g>
       <use xlink:href="#m5686e1bb66" x="414.72" y="241.056" style="stroke: #000000; stroke-width: 0.8"/>
      </g>
     </g>
     <g id="text_22">
      <!-- 400 -->
      <g transform="translate(421.72 244.4935) scale(0.1 -0.1)">
       <use xlink:href="#SimHei-34"/>
       <use xlink:href="#SimHei-30" x="50"/>
       <use xlink:href="#SimHei-30" x="100"/>
      </g>
     </g>
    </g>
    <g id="ytick_10">
     <g id="line2d_18">
      <g>
       <use xlink:href="#m5686e1bb66" x="414.72" y="207.792" style="stroke: #000000; stroke-width: 0.8"/>
      </g>
     </g>
     <g id="text_23">
      <!-- 600 -->
      <g transform="translate(421.72 211.2295) scale(0.1 -0.1)">
       <defs>
        <path id="SimHei-36" d="M 250 1612 
Q 275 1975 387 2225 
Q 500 2475 725 2850 
L 1750 4450 
L 2325 4450 
L 1275 2800 
Q 1950 2975 2350 2750 
Q 2750 2525 2887 2237 
Q 3025 1950 3037 1612 
Q 3050 1275 2937 950 
Q 2825 625 2537 362 
Q 2250 100 1737 75 
Q 1225 50 862 262 
Q 500 475 362 862 
Q 225 1250 250 1612 
z
M 1025 787 
Q 1250 550 1625 525 
Q 2000 500 2250 775 
Q 2500 1050 2500 1575 
Q 2500 2100 2187 2300 
Q 1875 2500 1487 2450 
Q 1100 2400 925 2075 
Q 750 1750 775 1387 
Q 800 1025 1025 787 
z
" transform="scale(0.015625)"/>
       </defs>
       <use xlink:href="#SimHei-36"/>
       <use xlink:href="#SimHei-30" x="50"/>
       <use xlink:href="#SimHei-30" x="100"/>
      </g>
     </g>
    </g>
    <g id="ytick_11">
     <g id="line2d_19">
      <g>
       <use xlink:href="#m5686e1bb66" x="414.72" y="174.528" style="stroke: #000000; stroke-width: 0.8"/>
      </g>
     </g>
     <g id="text_24">
      <!-- 800 -->
      <g transform="translate(421.72 177.9655) scale(0.1 -0.1)">
       <defs>
        <path id="SimHei-38" d="M 175 1375 
Q 175 1675 325 1962 
Q 475 2250 825 2425 
Q 525 2600 425 2812 
Q 325 3025 312 3300 
Q 300 3575 387 3775 
Q 475 3975 650 4150 
Q 825 4325 1037 4387 
Q 1250 4450 1500 4450 
Q 1750 4450 1950 4400 
Q 2150 4350 2375 4187 
Q 2600 4025 2700 3725 
Q 2800 3425 2687 3025 
Q 2575 2625 2100 2400 
Q 2525 2275 2700 2012 
Q 2875 1750 2875 1375 
Q 2875 1000 2762 775 
Q 2650 550 2512 400 
Q 2375 250 2137 162 
Q 1900 75 1537 75 
Q 1175 75 912 162 
Q 650 250 475 425 
Q 300 600 237 837 
Q 175 1075 175 1375 
z
M 687 1400 
Q 675 1100 787 875 
Q 900 650 1200 587 
Q 1500 525 1825 600 
Q 2150 675 2275 950 
Q 2400 1225 2362 1500 
Q 2325 1775 2050 1962 
Q 1775 2150 1450 2125 
Q 1125 2100 912 1900 
Q 700 1700 687 1400 
z
M 775 3350 
Q 775 3100 950 2875 
Q 1125 2650 1500 2650 
Q 1875 2650 2062 2875 
Q 2250 3100 2237 3412 
Q 2225 3725 2012 3875 
Q 1800 4025 1437 4000 
Q 1075 3975 925 3787 
Q 775 3600 775 3350 
z
" transform="scale(0.015625)"/>
       </defs>
       <use xlink:href="#SimHei-38"/>
       <use xlink:href="#SimHei-30" x="50"/>
       <use xlink:href="#SimHei-30" x="100"/>
      </g>
     </g>
    </g>
    <g id="ytick_12">
     <g id="line2d_20">
      <g>
       <use xlink:href="#m5686e1bb66" x="414.72" y="141.264" style="stroke: #000000; stroke-width: 0.8"/>
      </g>
     </g>
     <g id="text_25">
      <!-- 1000 -->
      <g transform="translate(421.72 144.7015) scale(0.1 -0.1)">
       <use xlink:href="#SimHei-31"/>
       <use xlink:href="#SimHei-30" x="50"/>
       <use xlink:href="#SimHei-30" x="100"/>
       <use xlink:href="#SimHei-30" x="150"/>
      </g>
     </g>
    </g>
    <g id="ytick_13">
     <g id="line2d_21">
      <g>
       <use xlink:href="#m5686e1bb66" x="414.72" y="108" style="stroke: #000000; stroke-width: 0.8"/>
      </g>
     </g>
     <g id="text_26">
      <!-- 1200 -->
      <g transform="translate(421.72 111.4375) scale(0.1 -0.1)">
       <use xlink:href="#SimHei-31"/>
       <use xlink:href="#SimHei-32" x="50"/>
       <use xlink:href="#SimHei-30" x="100"/>
       <use xlink:href="#SimHei-30" x="150"/>
      </g>
     </g>
    </g>
    <g id="ytick_14">
     <g id="line2d_22">
      <g>
       <use xlink:href="#m5686e1bb66" x="414.72" y="74.736" style="stroke: #000000; stroke-width: 0.8"/>
      </g>
     </g>
     <g id="text_27">
      <!-- 1400 -->
      <g transform="translate(421.72 78.1735) scale(0.1 -0.1)">
       <use xlink:href="#SimHei-31"/>
       <use xlink:href="#SimHei-34" x="50"/>
       <use xlink:href="#SimHei-30" x="100"/>
       <use xlink:href="#SimHei-30" x="150"/>
      </g>
     </g>
    </g>
    <g id="ytick_15">
     <g id="line2d_23">
      <g>
       <use xlink:href="#m5686e1bb66" x="414.72" y="41.472" style="stroke: #000000; stroke-width: 0.8"/>
      </g>
     </g>
     <g id="text_28">
      <!-- 1600 -->
      <g transform="translate(421.72 44.9095) scale(0.1 -0.1)">
       <use xlink:href="#SimHei-31"/>
       <use xlink:href="#SimHei-36" x="50"/>
       <use xlink:href="#SimHei-30" x="100"/>
       <use xlink:href="#SimHei-30" x="150"/>
      </g>
     </g>
    </g>
    <g id="text_29">
     <!-- 直流潮流功率 -->
     <g transform="translate(453.766875 204.528) rotate(-90) scale(0.1 -0.1)">
      <defs>
       <path id="SimHei-76f4" d="M 3550 5025 
Q 3475 4875 3400 4525 
L 4825 4525 
Q 5225 4525 5775 4550 
L 5775 4100 
Q 5250 4125 4825 4125 
L 3350 4125 
Q 3300 3775 3275 3525 
L 5100 3525 
Q 5075 3075 5075 2525 
L 5075 100 
L 5300 100 
Q 5650 100 6100 125 
L 6100 -350 
Q 5675 -325 5300 -325 
L 1225 -325 
Q 800 -325 325 -350 
L 325 125 
Q 825 100 1225 100 
L 1375 100 
L 1375 2525 
Q 1375 3175 1350 3525 
L 2775 3525 
Q 2825 3825 2850 4125 
L 1550 4125 
Q 1075 4125 600 4100 
L 600 4550 
Q 1075 4525 1525 4525 
L 2875 4525 
Q 2900 4800 2875 5075 
Q 3275 5025 3550 5025 
z
M 4600 975 
L 4600 1450 
L 1850 1450 
L 1850 975 
L 4600 975 
z
M 4600 100 
L 4600 575 
L 1850 575 
L 1850 100 
L 4600 100 
z
M 4600 2650 
L 4600 3125 
L 1850 3125 
L 1850 2650 
L 4600 2650 
z
M 4600 1825 
L 4600 2275 
L 1850 2275 
L 1850 1825 
L 4600 1825 
z
" transform="scale(0.015625)"/>
       <path id="SimHei-6d41" d="M 3725 5250 
Q 3975 4875 4225 4450 
L 5025 4450 
Q 5425 4450 5925 4475 
L 5925 4025 
Q 5325 4050 5025 4050 
L 3425 4050 
Q 3625 3900 3775 3825 
Q 3650 3725 3450 3475 
Q 3250 3225 2850 2775 
Q 3750 2800 4775 2850 
Q 4525 3150 4275 3375 
Q 4525 3550 4625 3675 
Q 5325 2950 5800 2375 
Q 5575 2200 5400 2050 
Q 5200 2325 5050 2525 
Q 4500 2475 3562 2412 
Q 2625 2350 2300 2250 
Q 2225 2475 2075 2675 
Q 2325 2750 2675 3175 
Q 3025 3600 3250 4050 
L 2975 4050 
Q 2525 4050 2050 4000 
L 2050 4475 
Q 2525 4450 2975 4450 
L 3675 4450 
Q 3475 4800 3325 5000 
Q 3575 5125 3725 5250 
z
M 5025 2025 
Q 5000 1700 5000 1375 
L 5000 150 
Q 5000 -75 5225 -75 
L 5475 -75 
Q 5675 -75 5700 500 
Q 5900 350 6200 275 
Q 6050 -350 5887 -425 
Q 5725 -500 5500 -500 
L 5025 -500 
Q 4550 -500 4550 -25 
L 4550 1425 
Q 4550 1725 4525 2025 
L 5025 2025 
z
M 3125 1975 
Q 3075 1725 3037 1212 
Q 3000 700 2812 225 
Q 2625 -250 1950 -700 
Q 1775 -475 1575 -325 
Q 2075 -100 2312 287 
Q 2550 675 2575 1162 
Q 2600 1650 2575 2025 
Q 2825 1975 3125 1975 
z
M 4000 2025 
Q 3975 1875 3975 1400 
L 3975 300 
Q 3975 -25 4000 -500 
L 3475 -500 
Q 3500 -50 3500 300 
L 3500 1400 
Q 3500 1825 3475 2025 
L 4000 2025 
z
M 1900 1625 
Q 1650 1200 1350 562 
Q 1050 -75 850 -425 
Q 625 -250 325 -125 
Q 575 175 900 750 
Q 1225 1325 1450 1950 
Q 1650 1775 1900 1625 
z
M 625 3450 
Q 1200 3100 1725 2725 
Q 1525 2525 1375 2275 
Q 925 2700 325 3000 
Q 475 3200 625 3450 
z
M 925 4975 
Q 1500 4625 1900 4300 
Q 1725 4075 1550 3875 
Q 1150 4275 625 4575 
Q 800 4800 925 4975 
z
" transform="scale(0.015625)"/>
       <path id="SimHei-6f6e" d="M 6000 4900 
Q 5975 4425 5975 3850 
L 5975 175 
Q 5975 -300 5725 -400 
Q 5475 -500 5050 -575 
Q 5000 -325 4825 -25 
Q 5200 -25 5375 12 
Q 5550 50 5550 375 
L 5550 1675 
L 4700 1675 
Q 4675 1175 4450 537 
Q 4225 -100 3800 -675 
Q 3600 -500 3325 -350 
Q 3775 75 3987 625 
Q 4200 1175 4225 1875 
Q 4250 2575 4250 3425 
Q 4250 4300 4225 4900 
L 6000 4900 
z
M 3000 525 
Q 3000 -50 3025 -575 
L 2525 -575 
Q 2550 -50 2550 525 
Q 1950 525 1500 500 
L 1500 950 
Q 2075 925 2550 925 
L 2550 1525 
L 1800 1525 
Q 1825 1975 1825 2500 
Q 1825 3050 1800 3500 
L 2600 3500 
L 2600 4025 
Q 2075 4025 1700 4000 
L 1700 4450 
Q 2200 4425 2600 4425 
Q 2600 4850 2575 5225 
L 3075 5225 
Q 3050 4875 3050 4425 
Q 3475 4400 3925 4450 
L 3925 4000 
Q 3475 4025 3050 4025 
L 3050 3500 
L 3800 3500 
Q 3775 3100 3775 2525 
Q 3775 1975 3800 1525 
L 3000 1525 
L 3000 925 
Q 3450 925 3925 950 
L 3925 500 
Q 3425 525 3000 525 
z
M 1425 1650 
Q 1100 625 1000 300 
Q 900 -25 800 -400 
Q 575 -300 250 -125 
Q 475 250 650 787 
Q 825 1325 975 1900 
Q 1225 1725 1425 1650 
z
M 5550 2050 
L 5550 3150 
L 4700 3150 
L 4700 2050 
L 5550 2050 
z
M 5550 3525 
L 5550 4525 
L 4700 4525 
L 4700 3525 
L 5550 3525 
z
M 550 3525 
Q 750 3400 1025 3237 
Q 1300 3075 1525 2925 
Q 1375 2700 1250 2500 
Q 1025 2675 812 2812 
Q 600 2950 275 3100 
Q 450 3300 550 3525 
z
M 1650 4450 
Q 1475 4275 1325 4075 
Q 1100 4275 912 4437 
Q 725 4600 525 4725 
Q 700 4900 850 5075 
L 1250 4775 
Q 1450 4625 1650 4450 
z
M 3325 2700 
L 3325 3125 
L 2275 3125 
L 2275 2700 
L 3325 2700 
z
M 3325 1900 
L 3325 2300 
L 2275 2300 
L 2275 1900 
L 3325 1900 
z
" transform="scale(0.015625)"/>
       <path id="SimHei-529f" d="M 5675 275 
Q 5575 -200 5225 -312 
Q 4875 -425 4450 -475 
Q 4400 -175 4200 100 
Q 4725 75 4937 137 
Q 5150 200 5175 425 
Q 5300 1775 5375 3275 
L 4250 3275 
Q 4225 2550 4125 1925 
Q 4025 1300 3787 850 
Q 3550 400 3250 50 
Q 2950 -300 2550 -650 
Q 2375 -400 2100 -250 
Q 2650 100 2925 425 
Q 3200 750 3400 1162 
Q 3600 1575 3675 2075 
Q 3750 2575 3775 3275 
L 3400 3275 
Q 3100 3275 2800 3250 
L 2800 3725 
Q 3125 3700 3450 3700 
L 3775 3700 
L 3775 4575 
Q 3775 4875 3750 5175 
Q 4075 5100 4325 5075 
Q 4275 4900 4262 4525 
Q 4250 4150 4250 3700 
L 5900 3700 
Q 5875 3350 5850 3037 
Q 5825 2725 5675 275 
z
M 2900 1000 
Q 2475 900 2200 837 
Q 1925 775 1337 600 
Q 750 425 500 350 
Q 400 700 300 900 
Q 450 900 1375 1100 
L 1375 3900 
L 1175 3900 
Q 875 3900 450 3875 
L 450 4350 
Q 850 4325 1175 4325 
L 2100 4325 
Q 2450 4325 2725 4350 
L 2725 3875 
Q 2425 3900 2125 3900 
L 1875 3900 
L 1875 1200 
L 2375 1325 
Q 2575 1375 2850 1450 
L 2900 1000 
z
" transform="scale(0.015625)"/>
       <path id="SimHei-7387" d="M 3325 5150 
Q 3425 4900 3550 4525 
L 4800 4525 
Q 5250 4525 5800 4550 
L 5800 4125 
Q 5250 4175 4775 4175 
L 2800 4175 
Q 2975 4050 3300 3900 
Q 3075 3750 2875 3537 
Q 2675 3325 2475 3125 
L 3275 3125 
Q 3575 3425 3775 3775 
Q 4000 3600 4275 3425 
Q 3950 3250 3600 2875 
Q 3250 2500 2625 2000 
L 3850 2100 
Q 3725 2250 3600 2425 
Q 3750 2475 4000 2650 
Q 4250 2350 4700 1700 
Q 4475 1625 4225 1450 
Q 4175 1600 4025 1775 
Q 3700 1750 3425 1750 
L 3425 1050 
L 5150 1050 
Q 5675 1050 6100 1075 
L 6100 650 
Q 5700 675 5125 675 
L 3425 675 
L 3425 175 
Q 3425 -300 3450 -625 
L 2900 -625 
Q 2925 -300 2925 175 
L 2925 675 
L 1325 675 
Q 825 675 325 650 
L 325 1075 
Q 825 1050 1350 1050 
L 2925 1050 
L 2925 1700 
Q 2700 1675 2475 1637 
Q 2250 1600 2025 1525 
Q 1950 1775 1850 2000 
Q 2075 2025 2325 2200 
Q 2575 2375 2975 2800 
Q 2300 2725 2025 2625 
Q 1975 2875 1850 3175 
Q 2075 3175 2325 3487 
Q 2575 3800 2750 4175 
L 1700 4175 
Q 1150 4175 650 4125 
L 650 4550 
Q 1150 4525 1550 4525 
L 2975 4525 
Q 2900 4825 2800 5025 
Q 3025 5075 3325 5150 
z
M 1625 2575 
Q 1725 2400 1825 2200 
Q 1575 2050 1325 1862 
Q 1075 1675 800 1425 
Q 625 1675 475 1875 
Q 800 2025 1100 2212 
Q 1400 2400 1625 2575 
z
M 4850 2650 
Q 5125 2475 5337 2337 
Q 5550 2200 5875 1950 
Q 5675 1800 5500 1600 
Q 5300 1775 5062 1975 
Q 4825 2175 4575 2325 
Q 4725 2475 4850 2650 
z
M 5725 3525 
Q 5550 3450 5300 3262 
Q 5050 3075 4800 2825 
Q 4625 3050 4475 3175 
Q 4700 3325 4875 3487 
Q 5050 3650 5300 3925 
Q 5525 3700 5725 3525 
z
M 1050 3850 
Q 1425 3600 1775 3275 
Q 1575 3100 1425 2925 
Q 1075 3300 675 3525 
Q 875 3700 1050 3850 
z
" transform="scale(0.015625)"/>
      </defs>
      <use xlink:href="#SimHei-76f4"/>
      <use xlink:href="#SimHei-6d41" x="100"/>
      <use xlink:href="#SimHei-6f6e" x="200"/>
      <use xlink:href="#SimHei-6d41" x="300"/>
      <use xlink:href="#SimHei-529f" x="400"/>
      <use xlink:href="#SimHei-7387" x="500"/>
     </g>
    </g>
   </g>
   <g id="line2d_24">
    <path d="M 73.832727 229.08096 
L 87.36 229.08096 
L 87.36 224.92296 
L 100.887273 224.92296 
L 100.887273 224.92296 
L 114.414545 224.92296 
L 114.414545 218.43648 
L 127.941818 218.43648 
L 127.941818 218.43648 
L 141.469091 218.43648 
L 141.469091 140.508 
L 154.996364 140.508 
L 154.996364 140.508 
L 168.523636 140.508 
L 168.523636 140.508 
L 182.050909 140.508 
L 182.050909 140.508 
L 195.578182 140.508 
L 195.578182 140.508 
L 209.105455 140.508 
L 209.105455 140.508 
L 222.632727 140.508 
L 222.632727 140.508 
L 236.16 140.508 
L 236.16 140.508 
L 249.687273 140.508 
L 249.687273 140.508 
L 263.214545 140.508 
L 263.214545 140.508 
L 276.741818 140.508 
L 276.741818 140.508 
L 290.269091 140.508 
L 290.269091 58.104 
L 303.796364 58.104 
L 303.796364 58.104 
L 317.323636 58.104 
L 317.323636 58.104 
L 330.850909 58.104 
L 330.850909 58.104 
L 344.378182 58.104 
L 344.378182 82.55304 
L 357.905455 82.55304 
L 357.905455 82.55304 
L 371.432727 82.55304 
L 371.432727 82.55304 
L 384.96 82.55304 
L 384.96 82.55304 
L 398.487273 82.55304 
L 398.487273 82.55304 
" clip-path="url(#pbb43a30980)" style="fill: none; stroke-dasharray: 5.55,2.4; stroke-dashoffset: 0; stroke: #0000ff; stroke-width: 1.5"/>
   </g>
   <g id="patch_108">
    <path d="M 57.6 307.584 
L 57.6 41.472 
" style="fill: none; stroke: #000000; stroke-width: 0.8; stroke-linejoin: miter; stroke-linecap: square"/>
   </g>
   <g id="patch_109">
    <path d="M 414.72 307.584 
L 414.72 41.472 
" style="fill: none; stroke: #000000; stroke-width: 0.8; stroke-linejoin: miter; stroke-linecap: square"/>
   </g>
   <g id="patch_110">
    <path d="M 57.6 307.584 
L 414.72 307.584 
" style="fill: none; stroke: #000000; stroke-width: 0.8; stroke-linejoin: miter; stroke-linecap: square"/>
   </g>
   <g id="patch_111">
    <path d="M 57.6 41.472 
L 414.72 41.472 
" style="fill: none; stroke: #000000; stroke-width: 0.8; stroke-linejoin: miter; stroke-linecap: square"/>
   </g>
   <g id="text_30">
    <!-- 最坏场景下调度结果 -->
    <g transform="translate(182.16 35.472) scale(0.12 -0.12)">
     <defs>
      <path id="SimHei-6700" d="M 475 275 
Q 675 300 1100 350 
L 1100 2450 
Q 775 2450 425 2425 
L 425 2850 
Q 775 2825 1125 2825 
L 5025 2825 
Q 5475 2825 5900 2850 
L 5900 2425 
Q 5475 2450 5025 2450 
L 3050 2450 
L 3050 675 
L 3400 775 
Q 3400 550 3425 400 
Q 3225 350 3050 325 
Q 3050 -125 3075 -550 
L 2600 -550 
Q 2625 -125 2625 250 
Q 2350 200 1812 87 
Q 1275 -25 650 -175 
Q 575 100 475 275 
z
M 5100 4925 
Q 5075 4600 5075 4325 
L 5075 3875 
Q 5075 3600 5100 3250 
L 1275 3250 
Q 1300 3600 1300 3875 
L 1300 4325 
Q 1300 4600 1275 4925 
L 5100 4925 
z
M 3300 2050 
Q 3750 2025 4125 2025 
L 5375 2025 
Q 5100 975 4725 400 
Q 5350 0 5925 -100 
Q 5700 -275 5650 -500 
Q 5025 -300 4475 150 
Q 4150 -200 3600 -575 
Q 3500 -425 3250 -275 
Q 3775 -100 4150 350 
Q 3725 775 3500 1675 
L 3300 1675 
L 3300 2050 
z
M 4600 4250 
L 4600 4600 
L 1750 4600 
L 1750 4250 
L 4600 4250 
z
M 4600 3575 
L 4600 3900 
L 1750 3900 
L 1750 3575 
L 4600 3575 
z
M 3900 1675 
Q 4000 1075 4400 625 
Q 4700 1050 4850 1675 
L 3900 1675 
z
M 2625 1250 
L 2625 1675 
L 1525 1675 
L 1525 1250 
L 2625 1250 
z
M 2625 575 
L 2625 925 
L 1525 925 
L 1525 425 
L 2625 575 
z
M 2625 2025 
L 2625 2450 
L 1525 2450 
L 1525 2025 
L 2625 2025 
z
" transform="scale(0.015625)"/>
      <path id="SimHei-574f" d="M 5075 4600 
Q 5475 4600 6050 4625 
L 6050 4150 
Q 5500 4175 5075 4175 
L 4600 4175 
Q 4375 3450 4400 3350 
L 4400 250 
Q 4400 -225 4425 -650 
L 3900 -650 
Q 3925 -250 3925 150 
L 3925 2325 
Q 3375 1250 2450 350 
Q 2350 500 2050 700 
Q 2525 1050 2837 1450 
Q 3150 1850 3450 2412 
Q 3750 2975 3862 3350 
Q 3975 3725 4075 4175 
L 3375 4175 
Q 2975 4175 2400 4150 
L 2400 4625 
Q 2975 4600 3375 4600 
L 5075 4600 
z
M 1175 3500 
L 1175 4225 
Q 1175 4675 1150 5050 
L 1675 5050 
Q 1650 4675 1650 4225 
L 1650 3500 
L 1825 3500 
Q 2125 3500 2500 3525 
L 2500 3050 
Q 2125 3075 1825 3075 
L 1650 3075 
L 1650 1425 
Q 1825 1475 2425 1775 
Q 2450 1450 2500 1275 
Q 2050 1125 1462 862 
Q 875 600 475 350 
Q 375 675 225 950 
Q 425 975 587 1037 
Q 750 1100 1175 1275 
L 1175 3075 
L 1075 3075 
Q 725 3075 325 3050 
L 325 3525 
Q 725 3500 1050 3500 
L 1175 3500 
z
M 5000 2975 
Q 5225 2650 5462 2300 
Q 5700 1950 6150 1200 
Q 5925 1075 5675 875 
Q 5325 1550 5100 1925 
Q 4875 2300 4600 2675 
Q 4750 2750 5000 2975 
z
" transform="scale(0.015625)"/>
      <path id="SimHei-573a" d="M 5625 5000 
L 5625 4600 
Q 5275 4525 4862 4150 
Q 4450 3775 3750 3100 
L 6000 3100 
Q 5975 2925 5950 2300 
L 5850 425 
Q 5825 -200 5587 -350 
Q 5350 -500 4750 -550 
Q 4700 -250 4525 50 
Q 5050 0 5200 75 
Q 5350 150 5375 400 
L 5475 2675 
L 5000 2675 
Q 4875 1925 4700 1425 
Q 4525 925 4287 562 
Q 4050 200 3750 -62 
Q 3450 -325 3000 -600 
Q 2875 -350 2650 -175 
Q 3075 50 3425 350 
Q 3775 650 4000 1050 
Q 4225 1450 4337 1900 
Q 4450 2350 4500 2675 
L 4000 2675 
Q 3950 2300 3787 1912 
Q 3625 1525 3325 1150 
Q 3025 775 2550 425 
Q 2450 600 2175 800 
Q 2775 1125 3112 1675 
Q 3450 2225 3500 2675 
Q 3225 2650 3125 2625 
Q 3025 2600 2800 2525 
Q 2725 2825 2650 3025 
Q 3075 3075 3637 3587 
Q 4200 4100 4650 4575 
L 3700 4575 
Q 3150 4575 2675 4550 
L 2675 5025 
Q 3125 5000 3675 5000 
L 5625 5000 
z
M 1200 4375 
Q 1200 4650 1175 5075 
L 1700 5075 
Q 1675 4625 1675 4375 
L 1675 3450 
Q 2050 3450 2450 3475 
L 2450 3025 
Q 2000 3050 1675 3050 
L 1675 1225 
Q 1950 1325 2500 1575 
Q 2500 1350 2525 1125 
Q 2100 925 1500 687 
Q 900 450 500 225 
Q 400 450 200 725 
Q 650 850 1200 1050 
L 1200 3050 
Q 650 3050 325 3025 
L 325 3475 
Q 750 3450 1200 3450 
L 1200 4375 
z
" transform="scale(0.015625)"/>
      <path id="SimHei-666f" d="M 5200 5100 
Q 5175 4700 5175 4150 
Q 5175 3625 5225 3225 
L 1175 3225 
Q 1200 3625 1200 4150 
Q 1200 4700 1175 5100 
L 5200 5100 
z
M 5125 2075 
Q 5100 1675 5100 1375 
Q 5100 1075 5125 900 
L 3525 900 
L 3525 -175 
Q 3525 -475 3312 -575 
Q 3100 -675 2575 -700 
Q 2550 -425 2375 -100 
Q 2800 -175 2937 -137 
Q 3075 -100 3050 100 
L 3050 900 
L 1350 900 
Q 1375 1125 1375 1450 
Q 1375 1800 1350 2075 
L 5125 2075 
z
M 3325 3200 
Q 3400 2950 3500 2750 
L 5200 2750 
Q 5625 2750 6050 2800 
L 6050 2350 
Q 5625 2375 5200 2375 
L 1175 2375 
Q 850 2375 350 2350 
L 350 2775 
Q 850 2750 1175 2750 
L 2900 2750 
Q 2875 2900 2800 3125 
Q 3100 3175 3325 3200 
z
M 4650 1250 
L 4650 1700 
L 1825 1700 
L 1825 1250 
L 4650 1250 
z
M 4700 4300 
L 4700 4700 
L 1675 4700 
L 1675 4300 
L 4700 4300 
z
M 4700 3600 
L 4700 3925 
L 1675 3925 
L 1675 3600 
L 4700 3600 
z
M 4325 725 
Q 4600 575 4987 387 
Q 5375 200 5850 -50 
Q 5700 -275 5550 -550 
Q 5325 -350 4925 -125 
Q 4525 100 4075 275 
L 4325 725 
z
M 2450 250 
Q 2225 175 1812 -100 
Q 1400 -375 1000 -600 
Q 850 -375 700 -175 
Q 975 -25 1350 187 
Q 1725 400 2075 700 
Q 2250 500 2450 250 
z
" transform="scale(0.015625)"/>
      <path id="SimHei-4e0b" d="M 5000 4700 
Q 5475 4700 5975 4725 
L 5975 4200 
Q 5425 4225 5000 4225 
L 3275 4225 
L 3275 375 
Q 3275 50 3300 -450 
L 2725 -450 
Q 2750 0 2750 375 
L 2750 4225 
L 1375 4225 
Q 875 4225 400 4200 
L 400 4725 
Q 875 4700 1375 4700 
L 5000 4700 
z
M 5650 1400 
Q 5400 1225 5200 1000 
Q 4800 1525 3650 2575 
L 4025 2950 
Q 4700 2400 5650 1400 
z
" transform="scale(0.015625)"/>
      <path id="SimHei-7ed3" d="M 5725 1925 
Q 5700 1600 5700 1200 
L 5700 350 
Q 5700 -125 5725 -475 
L 5225 -475 
L 5225 0 
L 3525 0 
L 3525 -525 
L 3025 -525 
Q 3050 125 3050 325 
L 3050 1250 
Q 3050 1550 3025 1925 
L 5725 1925 
z
M 1900 4850 
Q 1700 4600 1475 4200 
Q 1250 3800 925 3200 
Q 1475 3225 1725 3225 
Q 1950 3625 2100 4000 
Q 2350 3825 2650 3675 
Q 2525 3575 2212 3125 
Q 1900 2675 1225 1650 
Q 2050 1775 2525 1850 
Q 2450 1575 2450 1375 
Q 2225 1350 1650 1275 
Q 1075 1200 525 1050 
Q 425 1300 350 1550 
Q 650 1625 950 2012 
Q 1250 2400 1475 2825 
Q 1300 2825 962 2787 
Q 625 2750 375 2675 
Q 300 2925 225 3150 
Q 500 3375 812 3925 
Q 1125 4475 1300 5125 
Q 1600 4975 1900 4850 
z
M 4075 4175 
Q 4075 4600 4050 5175 
L 4575 5175 
Q 4550 4725 4550 4175 
L 5275 4175 
Q 5750 4175 6150 4200 
L 6150 3750 
Q 5750 3775 5300 3775 
L 4550 3775 
L 4550 2950 
L 5125 2950 
Q 5475 2950 5825 2975 
L 5825 2525 
Q 5525 2550 5100 2550 
L 3650 2550 
Q 3225 2550 2900 2525 
L 2900 2975 
Q 3225 2950 3600 2950 
L 4075 2950 
L 4075 3775 
L 3525 3775 
Q 3075 3775 2675 3750 
L 2675 4200 
Q 3000 4175 3475 4175 
L 4075 4175 
z
M 5225 400 
L 5225 1525 
L 3525 1525 
L 3525 400 
L 5225 400 
z
M 2575 650 
Q 2500 425 2525 175 
Q 2050 100 1450 0 
Q 850 -100 425 -225 
Q 325 100 225 350 
Q 750 375 1175 437 
Q 1600 500 2575 650 
z
" transform="scale(0.015625)"/>
      <path id="SimHei-679c" d="M 2975 -525 
Q 3000 -75 3000 575 
L 3000 1600 
L 2900 1600 
Q 2725 1275 2500 1000 
Q 2275 725 1987 512 
Q 1700 300 1362 100 
Q 1025 -100 675 -250 
Q 575 25 400 275 
Q 700 350 975 487 
Q 1250 625 1525 787 
Q 1800 950 2000 1150 
Q 2200 1350 2375 1600 
L 1375 1600 
Q 1000 1600 450 1550 
L 450 2050 
Q 950 2000 1375 2000 
L 3000 2000 
L 3000 2450 
L 1150 2450 
Q 1175 3050 1175 3775 
Q 1175 4500 1150 5000 
L 5325 5000 
Q 5300 4500 5300 3775 
Q 5300 3050 5325 2450 
L 3475 2450 
L 3475 2000 
L 5050 2000 
Q 5550 2000 5925 2025 
L 5925 1550 
Q 5500 1600 5100 1600 
L 4125 1600 
Q 4450 1075 4925 800 
Q 5400 525 6050 375 
Q 5875 150 5775 -175 
Q 4925 150 4425 550 
Q 3925 950 3675 1600 
L 3475 1600 
L 3475 550 
Q 3475 0 3500 -525 
L 2975 -525 
z
M 4825 3875 
L 4825 4625 
L 3475 4625 
L 3475 3875 
L 4825 3875 
z
M 3000 3875 
L 3000 4625 
L 1675 4625 
L 1675 3875 
L 3000 3875 
z
M 4825 2825 
L 4825 3500 
L 3475 3500 
L 3475 2825 
L 4825 2825 
z
M 3000 2825 
L 3000 3500 
L 1675 3500 
L 1675 2825 
L 3000 2825 
z
" transform="scale(0.015625)"/>
     </defs>
     <use xlink:href="#SimHei-6700"/>
     <use xlink:href="#SimHei-574f" x="100"/>
     <use xlink:href="#SimHei-573a" x="200"/>
     <use xlink:href="#SimHei-666f" x="300"/>
     <use xlink:href="#SimHei-4e0b" x="400"/>
     <use xlink:href="#SimHei-8c03" x="500"/>
     <use xlink:href="#SimHei-5ea6" x="600"/>
     <use xlink:href="#SimHei-7ed3" x="700"/>
     <use xlink:href="#SimHei-679c" x="800"/>
    </g>
   </g>
   <g id="legend_2">
    <g id="patch_112">
     <path d="M 360.72 62.722 
L 407.72 62.722 
Q 409.72 62.722 409.72 60.722 
L 409.72 48.472 
Q 409.72 46.472 407.72 46.472 
L 360.72 46.472 
Q 358.72 46.472 358.72 48.472 
L 358.72 60.722 
Q 358.72 62.722 360.72 62.722 
z
" style="fill: #ffffff; opacity: 0.8; stroke: #cccccc; stroke-linejoin: miter"/>
    </g>
    <g id="line2d_25">
     <path d="M 362.72 53.972 
L 372.72 53.972 
L 372.72 53.972 
L 382.72 53.972 
L 382.72 53.972 
" style="fill: none; stroke-dasharray: 5.55,2.4; stroke-dashoffset: 0; stroke: #0000ff; stroke-width: 1.5"/>
    </g>
    <g id="text_31">
     <!-- Pdc -->
     <g transform="translate(390.72 57.472) scale(0.1 -0.1)">
      <defs>
       <path id="SimHei-64" d="M 2750 125 
L 2250 125 
L 2250 500 
Q 2100 275 1900 175 
Q 1700 75 1425 75 
Q 925 75 575 437 
Q 225 800 225 1525 
Q 225 2250 575 2625 
Q 925 3000 1425 3000 
Q 1700 3000 1900 2887 
Q 2100 2775 2250 2550 
L 2250 4400 
L 2750 4400 
L 2750 125 
z
M 2250 1525 
Q 2250 2000 2037 2275 
Q 1825 2550 1525 2550 
Q 1150 2550 962 2275 
Q 775 2000 775 1525 
Q 775 1050 962 787 
Q 1150 525 1525 525 
Q 1825 525 2037 787 
Q 2250 1050 2250 1525 
z
" transform="scale(0.015625)"/>
      </defs>
      <use xlink:href="#SimHei-50"/>
      <use xlink:href="#SimHei-64" x="50"/>
      <use xlink:href="#SimHei-63" x="100"/>
     </g>
    </g>
   </g>
  </g>
 </g>
 <defs>
  <clipPath id="pbb43a30980">
   <rect x="57.6" y="41.472" width="357.12" height="266.112"/>
  </clipPath>
 </defs>
 <defs>
  <pattern id="h3a07abd54e" patternUnits="userSpaceOnUse" x="0" y="0" width="72" height="72">
   <rect x="0" y="0" width="73" height="73" fill="none"/>
   <path d="M -36 36 
L 36 -36 
M -30 42 
L 42 -30 
M -24 48 
L 48 -24 
M -18 54 
L 54 -18 
M -12 60 
L 60 -12 
M -6 66 
L 66 -6 
M 0 72 
L 72 0 
M 6 78 
L 78 6 
M 12 84 
L 84 12 
M 18 90 
L 90 18 
M 24 96 
L 96 24 
M 30 102 
L 102 30 
M 36 108 
L 108 36 
" style="fill: #d62728; stroke: #d62728; stroke-width: 1.0; stroke-linecap: butt; stroke-linejoin: miter"/>
  </pattern>
 </defs>
</svg>
