<?xml version="1.0" encoding="utf-8" standalone="no"?>
<!DOCTYPE svg PUBLIC "-//W3C//DTD SVG 1.1//EN"
  "http://www.w3.org/Graphics/SVG/1.1/DTD/svg11.dtd">
<svg xmlns:xlink="http://www.w3.org/1999/xlink" width="460.8pt" height="345.6pt" viewBox="0 0 460.8 345.6" xmlns="http://www.w3.org/2000/svg" version="1.1">
 <metadata>
  <rdf:RDF xmlns:dc="http://purl.org/dc/elements/1.1/" xmlns:cc="http://creativecommons.org/ns#" xmlns:rdf="http://www.w3.org/1999/02/22-rdf-syntax-ns#">
   <cc:Work>
    <dc:type rdf:resource="http://purl.org/dc/dcmitype/StillImage"/>
    <dc:date>2024-06-01T16:20:48.854449</dc:date>
    <dc:format>image/svg+xml</dc:format>
    <dc:creator>
     <cc:Agent>
      <dc:title>Matplotlib v3.7.2, https://matplotlib.org/</dc:title>
     </cc:Agent>
    </dc:creator>
   </cc:Work>
  </rdf:RDF>
 </metadata>
 <defs>
  <style type="text/css">*{stroke-linejoin: round; stroke-linecap: butt}</style>
 </defs>
 <g id="figure_1">
  <g id="patch_1">
   <path d="M 0 345.6 
L 460.8 345.6 
L 460.8 0 
L 0 0 
z
" style="fill: #ffffff"/>
  </g>
  <g id="axes_1">
   <g id="patch_2">
    <path d="M 57.6 307.584 
L 414.72 307.584 
L 414.72 41.472 
L 57.6 41.472 
z
" style="fill: #ffffff"/>
   </g>
   <g id="PolyCollection_1">
    <defs>
     <path id="m3d6941092a" d="M 73.832727 -135.068916 
L 73.832727 -65.998253 
L 87.948142 -65.998253 
L 87.948142 -155.703777 
L 102.063557 -155.703777 
L 102.063557 -76.790544 
L 116.178972 -76.790544 
L 116.178972 -71.523906 
L 130.294387 -71.523906 
L 130.294387 -150.091786 
L 144.409802 -150.091786 
L 144.409802 -50.112 
L 158.525217 -50.112 
L 158.525217 -89.827632 
L 172.640632 -89.827632 
L 172.640632 -117.369559 
L 186.756047 -117.369559 
L 186.756047 -110.807846 
L 200.871462 -110.807846 
L 200.871462 -222.011615 
L 214.986877 -222.011615 
L 214.986877 -219.076111 
L 229.102292 -219.076111 
L 229.102292 -221.061893 
L 243.217708 -221.061893 
L 243.217708 -234.185319 
L 257.333123 -234.185319 
L 257.333123 -220.889216 
L 271.448538 -220.889216 
L 271.448538 -208.28382 
L 285.563953 -208.28382 
L 285.563953 -205.520994 
L 299.679368 -205.520994 
L 299.679368 -198.613927 
L 313.794783 -198.613927 
L 313.794783 -123.931272 
L 327.910198 -123.931272 
L 327.910198 -213.032428 
L 342.025613 -213.032428 
L 342.025613 -198.268574 
L 356.141028 -198.268574 
L 356.141028 -219.766818 
L 370.256443 -219.766818 
L 370.256443 -174.957225 
L 384.371858 -174.957225 
L 384.371858 -164.510287 
L 398.487273 -164.510287 
L 398.487273 -172.798767 
L 398.487273 -204.225919 
L 398.487273 -204.225919 
L 398.487273 -213.205105 
L 384.371858 -213.205105 
L 384.371858 -206.72973 
L 370.256443 -206.72973 
L 370.256443 -269.152343 
L 356.141028 -269.152343 
L 356.141028 -292.032 
L 342.025613 -292.032 
L 342.025613 -280.203649 
L 327.910198 -280.203649 
L 327.910198 -190.411786 
L 313.794783 -190.411786 
L 313.794783 -281.6714 
L 299.679368 -281.6714 
L 299.679368 -272.174184 
L 285.563953 -272.174184 
L 285.563953 -274.418981 
L 271.448538 -274.418981 
L 271.448538 -263.022321 
L 257.333123 -263.022321 
L 257.333123 -255.597225 
L 243.217708 -255.597225 
L 243.217708 -262.504291 
L 229.102292 -262.504291 
L 229.102292 -262.935983 
L 214.986877 -262.935983 
L 214.986877 -256.546946 
L 200.871462 -256.546946 
L 200.871462 -257.583006 
L 186.756047 -257.583006 
L 186.756047 -255.510887 
L 172.640632 -255.510887 
L 172.640632 -193.433627 
L 158.525217 -193.433627 
L 158.525217 -143.875426 
L 144.409802 -143.875426 
L 144.409802 -214.845533 
L 130.294387 -214.845533 
L 130.294387 -140.59457 
L 116.178972 -140.59457 
L 116.178972 -154.495041 
L 102.063557 -154.495041 
L 102.063557 -216.140608 
L 87.948142 -216.140608 
L 87.948142 -135.068916 
L 73.832727 -135.068916 
z
" style="stroke: #add8e6; stroke-opacity: 0.5"/>
    </defs>
    <g clip-path="url(#pc1e088e205)">
     <use xlink:href="#m3d6941092a" x="0" y="345.6" style="fill: #add8e6; fill-opacity: 0.5; stroke: #add8e6; stroke-opacity: 0.5"/>
    </g>
   </g>
   <g id="matplotlib.axis_1">
    <g id="xtick_1">
     <g id="line2d_1">
      <path d="M 59.717312 307.584 
L 59.717312 41.472 
" clip-path="url(#pc1e088e205)" style="fill: none; stroke: #b0b0b0; stroke-width: 0.8; stroke-linecap: square"/>
     </g>
     <g id="line2d_2">
      <defs>
       <path id="m8436063a64" d="M 0 0 
L 0 3.5 
" style="stroke: #000000; stroke-width: 0.8"/>
      </defs>
      <g>
       <use xlink:href="#m8436063a64" x="59.717312" y="307.584" style="stroke: #000000; stroke-width: 0.8"/>
      </g>
     </g>
     <g id="text_1">
      <!-- 0 -->
      <g transform="translate(57.217312 321.459) scale(0.1 -0.1)">
       <defs>
        <path id="SimHei-30" d="M 225 2537 
Q 250 3200 412 3587 
Q 575 3975 875 4225 
Q 1175 4475 1612 4475 
Q 2050 4475 2375 4112 
Q 2700 3750 2800 3200 
Q 2900 2650 2862 1937 
Q 2825 1225 2612 775 
Q 2400 325 1975 150 
Q 1550 -25 1125 187 
Q 700 400 525 750 
Q 350 1100 275 1487 
Q 200 1875 225 2537 
z
M 750 2687 
Q 675 2000 800 1462 
Q 925 925 1212 700 
Q 1500 475 1800 612 
Q 2100 750 2237 1162 
Q 2375 1575 2375 2062 
Q 2375 2550 2337 2950 
Q 2300 3350 2112 3675 
Q 1925 4000 1612 4012 
Q 1300 4025 1062 3700 
Q 825 3375 750 2687 
z
" transform="scale(0.015625)"/>
       </defs>
       <use xlink:href="#SimHei-30"/>
      </g>
     </g>
    </g>
    <g id="xtick_2">
     <g id="line2d_3">
      <path d="M 130.294387 307.584 
L 130.294387 41.472 
" clip-path="url(#pc1e088e205)" style="fill: none; stroke: #b0b0b0; stroke-width: 0.8; stroke-linecap: square"/>
     </g>
     <g id="line2d_4">
      <g>
       <use xlink:href="#m8436063a64" x="130.294387" y="307.584" style="stroke: #000000; stroke-width: 0.8"/>
      </g>
     </g>
     <g id="text_2">
      <!-- 5 -->
      <g transform="translate(127.794387 321.459) scale(0.1 -0.1)">
       <defs>
        <path id="SimHei-35" d="M 550 1325 
Q 725 650 1150 575 
Q 1575 500 1837 662 
Q 2100 825 2212 1087 
Q 2325 1350 2312 1675 
Q 2300 2000 2137 2225 
Q 1975 2450 1725 2525 
Q 1475 2600 1162 2525 
Q 850 2450 650 2175 
L 225 2225 
Q 275 2375 700 4375 
L 2675 4375 
L 2675 3925 
L 1075 3925 
Q 950 3250 825 2850 
Q 1200 3025 1525 3012 
Q 1850 3000 2150 2862 
Q 2450 2725 2587 2487 
Q 2725 2250 2787 2012 
Q 2850 1775 2837 1500 
Q 2825 1225 2725 937 
Q 2625 650 2425 462 
Q 2225 275 1937 162 
Q 1650 50 1275 75 
Q 900 100 562 350 
Q 225 600 100 1200 
L 550 1325 
z
" transform="scale(0.015625)"/>
       </defs>
       <use xlink:href="#SimHei-35"/>
      </g>
     </g>
    </g>
    <g id="xtick_3">
     <g id="line2d_5">
      <path d="M 200.871462 307.584 
L 200.871462 41.472 
" clip-path="url(#pc1e088e205)" style="fill: none; stroke: #b0b0b0; stroke-width: 0.8; stroke-linecap: square"/>
     </g>
     <g id="line2d_6">
      <g>
       <use xlink:href="#m8436063a64" x="200.871462" y="307.584" style="stroke: #000000; stroke-width: 0.8"/>
      </g>
     </g>
     <g id="text_3">
      <!-- 10 -->
      <g transform="translate(195.871462 321.459) scale(0.1 -0.1)">
       <defs>
        <path id="SimHei-31" d="M 1400 3600 
Q 1075 3275 575 2975 
L 575 3450 
Q 1200 3875 1600 4450 
L 1900 4450 
L 1900 150 
L 1400 150 
L 1400 3600 
z
" transform="scale(0.015625)"/>
       </defs>
       <use xlink:href="#SimHei-31"/>
       <use xlink:href="#SimHei-30" x="50"/>
      </g>
     </g>
    </g>
    <g id="xtick_4">
     <g id="line2d_7">
      <path d="M 271.448538 307.584 
L 271.448538 41.472 
" clip-path="url(#pc1e088e205)" style="fill: none; stroke: #b0b0b0; stroke-width: 0.8; stroke-linecap: square"/>
     </g>
     <g id="line2d_8">
      <g>
       <use xlink:href="#m8436063a64" x="271.448538" y="307.584" style="stroke: #000000; stroke-width: 0.8"/>
      </g>
     </g>
     <g id="text_4">
      <!-- 15 -->
      <g transform="translate(266.448538 321.459) scale(0.1 -0.1)">
       <use xlink:href="#SimHei-31"/>
       <use xlink:href="#SimHei-35" x="50"/>
      </g>
     </g>
    </g>
    <g id="xtick_5">
     <g id="line2d_9">
      <path d="M 342.025613 307.584 
L 342.025613 41.472 
" clip-path="url(#pc1e088e205)" style="fill: none; stroke: #b0b0b0; stroke-width: 0.8; stroke-linecap: square"/>
     </g>
     <g id="line2d_10">
      <g>
       <use xlink:href="#m8436063a64" x="342.025613" y="307.584" style="stroke: #000000; stroke-width: 0.8"/>
      </g>
     </g>
     <g id="text_5">
      <!-- 20 -->
      <g transform="translate(337.025613 321.459) scale(0.1 -0.1)">
       <defs>
        <path id="SimHei-32" d="M 300 250 
Q 325 625 650 925 
Q 975 1225 1475 1862 
Q 1975 2500 2125 2850 
Q 2275 3200 2237 3450 
Q 2200 3700 2000 3862 
Q 1800 4025 1537 4000 
Q 1275 3975 1037 3800 
Q 800 3625 675 3275 
L 200 3350 
Q 400 3925 712 4187 
Q 1025 4450 1450 4475 
Q 1700 4500 1900 4462 
Q 2100 4425 2312 4287 
Q 2525 4150 2662 3875 
Q 2800 3600 2762 3212 
Q 2725 2825 2375 2287 
Q 2025 1750 1025 600 
L 2825 600 
L 2825 150 
L 300 150 
L 300 250 
z
" transform="scale(0.015625)"/>
       </defs>
       <use xlink:href="#SimHei-32"/>
       <use xlink:href="#SimHei-30" x="50"/>
      </g>
     </g>
    </g>
    <g id="xtick_6">
     <g id="line2d_11">
      <path d="M 412.602688 307.584 
L 412.602688 41.472 
" clip-path="url(#pc1e088e205)" style="fill: none; stroke: #b0b0b0; stroke-width: 0.8; stroke-linecap: square"/>
     </g>
     <g id="line2d_12">
      <g>
       <use xlink:href="#m8436063a64" x="412.602688" y="307.584" style="stroke: #000000; stroke-width: 0.8"/>
      </g>
     </g>
     <g id="text_6">
      <!-- 25 -->
      <g transform="translate(407.602688 321.459) scale(0.1 -0.1)">
       <use xlink:href="#SimHei-32"/>
       <use xlink:href="#SimHei-35" x="50"/>
      </g>
     </g>
    </g>
    <g id="text_7">
     <!-- 调度时段 -->
     <g transform="translate(216.16 334.716812) scale(0.1 -0.1)">
      <defs>
       <path id="SimHei-8c03" d="M 5950 200 
Q 5975 -300 5700 -437 
Q 5425 -575 4900 -650 
Q 4825 -350 4700 -50 
Q 5200 -75 5337 0 
Q 5475 75 5500 300 
L 5500 4525 
L 3075 4525 
L 3075 2275 
Q 3075 1225 2900 612 
Q 2725 0 2275 -650 
Q 2125 -450 1825 -300 
Q 2150 75 2312 437 
Q 2475 800 2550 1212 
Q 2625 1625 2625 2925 
Q 2625 4250 2600 4900 
L 5975 4900 
Q 5950 4525 5950 3900 
L 5950 200 
z
M 5125 1825 
Q 5100 1475 5100 1175 
Q 5100 875 5125 425 
L 3425 425 
Q 3450 875 3450 1175 
Q 3450 1475 3425 1825 
L 5125 1825 
z
M 2125 1600 
Q 2225 1375 2400 1200 
Q 2075 875 1875 650 
Q 1675 425 1325 50 
Q 1150 250 1000 400 
Q 1175 600 1175 825 
L 1175 2825 
L 950 2825 
Q 775 2825 300 2800 
L 300 3250 
Q 775 3225 950 3225 
L 1650 3225 
Q 1625 2775 1625 2225 
L 1625 1050 
Q 1750 1150 2125 1600 
z
M 4050 3675 
Q 4050 3975 4025 4300 
L 4500 4300 
Q 4475 4000 4475 3675 
Q 4750 3675 5125 3700 
L 5125 3275 
Q 4750 3300 4475 3300 
L 4475 2675 
Q 4925 2675 5225 2700 
L 5225 2250 
Q 4825 2275 4300 2275 
Q 3775 2275 3350 2250 
L 3350 2700 
Q 3775 2675 4050 2675 
L 4050 3300 
Q 3725 3300 3375 3275 
L 3375 3700 
Q 3750 3675 4050 3675 
z
M 4675 775 
L 4675 1475 
L 3875 1475 
L 3875 775 
L 4675 775 
z
M 1250 5025 
Q 1525 4700 1975 4100 
Q 1750 3975 1575 3775 
Q 1075 4525 875 4725 
Q 1075 4850 1250 5025 
z
" transform="scale(0.015625)"/>
       <path id="SimHei-5ea6" d="M 1750 1675 
Q 2450 1650 2875 1650 
L 5200 1650 
Q 4975 1250 4650 850 
Q 4325 450 4025 200 
Q 4350 50 4950 -50 
Q 5550 -150 6100 -150 
Q 5950 -300 5825 -650 
Q 5100 -550 4550 -412 
Q 4000 -275 3625 -100 
Q 3100 -325 2587 -462 
Q 2075 -600 1525 -675 
Q 1450 -475 1225 -250 
Q 1675 -250 2250 -125 
Q 2825 0 3250 200 
Q 2825 550 2400 1275 
L 1750 1250 
L 1750 1675 
z
M 2975 5075 
Q 3250 5150 3475 5250 
Q 3625 4975 3775 4525 
L 4700 4525 
Q 4975 4525 5700 4550 
L 5700 4100 
Q 5000 4125 4650 4125 
L 1375 4125 
Q 1375 3000 1350 2312 
Q 1325 1625 1212 950 
Q 1100 275 725 -525 
Q 500 -375 250 -300 
Q 650 400 762 1075 
Q 875 1750 887 2800 
Q 900 3850 875 4525 
L 3200 4525 
Q 3100 4850 2975 5075 
z
M 2475 3300 
Q 2475 3700 2450 3925 
L 2975 3925 
Q 2950 3725 2950 3300 
L 4300 3300 
Q 4300 3700 4275 3950 
L 4800 3950 
Q 4775 3650 4775 3300 
Q 5325 3300 5725 3325 
L 5725 2900 
Q 5350 2925 4775 2925 
Q 4775 2250 4800 1950 
L 2450 1950 
Q 2475 2350 2475 2925 
Q 2175 2925 1600 2900 
L 1600 3325 
Q 2175 3300 2475 3300 
z
M 4300 2350 
L 4300 2925 
L 2950 2925 
L 2950 2350 
L 4300 2350 
z
M 2875 1275 
Q 3200 775 3650 425 
Q 4025 700 4425 1275 
L 2900 1275 
L 2875 1275 
z
" transform="scale(0.015625)"/>
       <path id="SimHei-65f6" d="M 2525 4575 
Q 2500 3675 2500 2400 
Q 2500 1125 2525 400 
L 2000 400 
L 2000 875 
L 1000 875 
L 1000 50 
L 475 50 
Q 500 1200 500 2350 
Q 500 3525 475 4575 
L 2525 4575 
z
M 4875 3825 
Q 4875 4575 4850 5225 
L 5400 5225 
Q 5375 4575 5375 3825 
Q 5750 3825 6175 3850 
L 6175 3375 
Q 5750 3400 5375 3400 
L 5375 50 
Q 5375 -325 5075 -425 
Q 4775 -525 4300 -575 
Q 4300 -275 4025 0 
Q 4500 -50 4687 -25 
Q 4875 0 4875 300 
L 4875 3400 
Q 3625 3400 2775 3375 
L 2775 3850 
Q 3575 3825 4875 3825 
z
M 2000 1300 
L 2000 2550 
L 1000 2550 
L 1000 1300 
L 2000 1300 
z
M 2000 2975 
L 2000 4150 
L 1000 4150 
L 1000 2975 
L 2000 2975 
z
M 3550 2725 
Q 3875 2200 4175 1600 
Q 3925 1525 3650 1375 
Q 3450 1975 3075 2500 
Q 3300 2600 3550 2725 
z
" transform="scale(0.015625)"/>
       <path id="SimHei-6bb5" d="M 5500 2475 
Q 5350 1775 5100 1237 
Q 4850 700 4600 400 
Q 4825 225 5250 87 
Q 5675 -50 6125 -125 
Q 5950 -275 5825 -650 
Q 5150 -450 4825 -287 
Q 4500 -125 4225 75 
Q 3825 -175 3450 -337 
Q 3075 -500 2625 -650 
Q 2525 -400 2325 -225 
Q 2675 -150 3100 0 
Q 3525 150 3925 425 
Q 3725 675 3525 1150 
Q 3325 1600 3225 2075 
Q 3050 2075 2900 2075 
L 2900 2500 
Q 3375 2475 3800 2475 
L 5500 2475 
z
M 2650 4625 
Q 2300 4550 1887 4475 
Q 1475 4400 1300 4375 
L 1300 3550 
Q 2050 3550 2525 3600 
L 2525 3125 
Q 2050 3150 1300 3150 
L 1300 2350 
Q 2050 2350 2525 2375 
L 2525 1900 
Q 2050 1925 1300 1925 
L 1300 975 
Q 1950 1075 2625 1250 
Q 2600 1000 2600 775 
Q 1900 675 1300 525 
L 1300 100 
Q 1300 -200 1325 -625 
L 800 -625 
Q 825 -200 825 100 
L 825 425 
Q 575 375 350 300 
Q 300 650 250 825 
Q 500 850 825 900 
L 825 3800 
Q 825 4225 800 4725 
Q 1100 4725 1575 4825 
Q 2050 4925 2375 5125 
Q 2475 4850 2650 4625 
z
M 5100 4975 
Q 5075 4600 5075 4275 
L 5075 3650 
Q 5075 3425 5237 3387 
Q 5400 3350 5975 3400 
Q 5875 3225 5850 2950 
L 5075 2950 
Q 4650 2950 4625 3375 
L 4625 4575 
L 3775 4575 
Q 3775 3925 3675 3525 
Q 3575 3125 3200 2725 
Q 3025 2900 2800 3050 
Q 3275 3400 3300 3937 
Q 3325 4475 3300 4975 
L 5100 4975 
z
M 3675 2100 
Q 3775 1675 3962 1287 
Q 4150 900 4275 775 
Q 4450 950 4625 1312 
Q 4800 1675 4900 2100 
L 3800 2100 
L 3675 2100 
z
" transform="scale(0.015625)"/>
      </defs>
      <use xlink:href="#SimHei-8c03"/>
      <use xlink:href="#SimHei-5ea6" x="100"/>
      <use xlink:href="#SimHei-65f6" x="200"/>
      <use xlink:href="#SimHei-6bb5" x="300"/>
     </g>
    </g>
   </g>
   <g id="matplotlib.axis_2">
    <g id="ytick_1">
     <g id="line2d_13">
      <path d="M 57.6 271.140591 
L 414.72 271.140591 
" clip-path="url(#pc1e088e205)" style="fill: none; stroke: #b0b0b0; stroke-width: 0.8; stroke-linecap: square"/>
     </g>
     <g id="line2d_14">
      <defs>
       <path id="m80a04672ad" d="M 0 0 
L -3.5 0 
" style="stroke: #000000; stroke-width: 0.8"/>
      </defs>
      <g>
       <use xlink:href="#m80a04672ad" x="57.6" y="271.140591" style="stroke: #000000; stroke-width: 0.8"/>
      </g>
     </g>
     <g id="text_8">
      <!-- 500 -->
      <g transform="translate(35.6 274.578091) scale(0.1 -0.1)">
       <use xlink:href="#SimHei-35"/>
       <use xlink:href="#SimHei-30" x="50"/>
       <use xlink:href="#SimHei-30" x="100"/>
      </g>
     </g>
    </g>
    <g id="ytick_2">
     <g id="line2d_15">
      <path d="M 57.6 227.971426 
L 414.72 227.971426 
" clip-path="url(#pc1e088e205)" style="fill: none; stroke: #b0b0b0; stroke-width: 0.8; stroke-linecap: square"/>
     </g>
     <g id="line2d_16">
      <g>
       <use xlink:href="#m80a04672ad" x="57.6" y="227.971426" style="stroke: #000000; stroke-width: 0.8"/>
      </g>
     </g>
     <g id="text_9">
      <!-- 1000 -->
      <g transform="translate(30.6 231.408926) scale(0.1 -0.1)">
       <use xlink:href="#SimHei-31"/>
       <use xlink:href="#SimHei-30" x="50"/>
       <use xlink:href="#SimHei-30" x="100"/>
       <use xlink:href="#SimHei-30" x="150"/>
      </g>
     </g>
    </g>
    <g id="ytick_3">
     <g id="line2d_17">
      <path d="M 57.6 184.802261 
L 414.72 184.802261 
" clip-path="url(#pc1e088e205)" style="fill: none; stroke: #b0b0b0; stroke-width: 0.8; stroke-linecap: square"/>
     </g>
     <g id="line2d_18">
      <g>
       <use xlink:href="#m80a04672ad" x="57.6" y="184.802261" style="stroke: #000000; stroke-width: 0.8"/>
      </g>
     </g>
     <g id="text_10">
      <!-- 1500 -->
      <g transform="translate(30.6 188.239761) scale(0.1 -0.1)">
       <use xlink:href="#SimHei-31"/>
       <use xlink:href="#SimHei-35" x="50"/>
       <use xlink:href="#SimHei-30" x="100"/>
       <use xlink:href="#SimHei-30" x="150"/>
      </g>
     </g>
    </g>
    <g id="ytick_4">
     <g id="line2d_19">
      <path d="M 57.6 141.633096 
L 414.72 141.633096 
" clip-path="url(#pc1e088e205)" style="fill: none; stroke: #b0b0b0; stroke-width: 0.8; stroke-linecap: square"/>
     </g>
     <g id="line2d_20">
      <g>
       <use xlink:href="#m80a04672ad" x="57.6" y="141.633096" style="stroke: #000000; stroke-width: 0.8"/>
      </g>
     </g>
     <g id="text_11">
      <!-- 2000 -->
      <g transform="translate(30.6 145.070596) scale(0.1 -0.1)">
       <use xlink:href="#SimHei-32"/>
       <use xlink:href="#SimHei-30" x="50"/>
       <use xlink:href="#SimHei-30" x="100"/>
       <use xlink:href="#SimHei-30" x="150"/>
      </g>
     </g>
    </g>
    <g id="ytick_5">
     <g id="line2d_21">
      <path d="M 57.6 98.463931 
L 414.72 98.463931 
" clip-path="url(#pc1e088e205)" style="fill: none; stroke: #b0b0b0; stroke-width: 0.8; stroke-linecap: square"/>
     </g>
     <g id="line2d_22">
      <g>
       <use xlink:href="#m80a04672ad" x="57.6" y="98.463931" style="stroke: #000000; stroke-width: 0.8"/>
      </g>
     </g>
     <g id="text_12">
      <!-- 2500 -->
      <g transform="translate(30.6 101.901431) scale(0.1 -0.1)">
       <use xlink:href="#SimHei-32"/>
       <use xlink:href="#SimHei-35" x="50"/>
       <use xlink:href="#SimHei-30" x="100"/>
       <use xlink:href="#SimHei-30" x="150"/>
      </g>
     </g>
    </g>
    <g id="ytick_6">
     <g id="line2d_23">
      <path d="M 57.6 55.294767 
L 414.72 55.294767 
" clip-path="url(#pc1e088e205)" style="fill: none; stroke: #b0b0b0; stroke-width: 0.8; stroke-linecap: square"/>
     </g>
     <g id="line2d_24">
      <g>
       <use xlink:href="#m80a04672ad" x="57.6" y="55.294767" style="stroke: #000000; stroke-width: 0.8"/>
      </g>
     </g>
     <g id="text_13">
      <!-- 3000 -->
      <g transform="translate(30.6 58.732267) scale(0.1 -0.1)">
       <defs>
        <path id="SimHei-33" d="M 250 1225 
L 700 1300 
Q 800 975 1025 762 
Q 1250 550 1587 562 
Q 1925 575 2125 837 
Q 2325 1100 2300 1437 
Q 2275 1775 2037 1962 
Q 1800 2150 1275 2225 
L 1275 2550 
Q 1800 2600 2037 2825 
Q 2275 3050 2250 3412 
Q 2225 3775 1925 3937 
Q 1625 4100 1287 3975 
Q 950 3850 750 3275 
L 300 3350 
Q 450 3800 712 4100 
Q 975 4400 1425 4450 
Q 1875 4500 2212 4337 
Q 2550 4175 2687 3837 
Q 2825 3500 2725 3100 
Q 2625 2700 2150 2400 
Q 2500 2250 2687 1950 
Q 2875 1650 2812 1162 
Q 2750 675 2375 375 
Q 2000 75 1525 87 
Q 1050 100 700 387 
Q 350 675 250 1225 
z
" transform="scale(0.015625)"/>
       </defs>
       <use xlink:href="#SimHei-33"/>
       <use xlink:href="#SimHei-30" x="50"/>
       <use xlink:href="#SimHei-30" x="100"/>
       <use xlink:href="#SimHei-30" x="150"/>
      </g>
     </g>
    </g>
    <g id="text_14">
     <!-- 负荷 -->
     <g transform="translate(25.35 184.528) rotate(-90) scale(0.1 -0.1)">
      <defs>
       <path id="SimHei-8d1f" d="M 2900 5000 
Q 2575 4600 2500 4475 
L 4800 4475 
Q 4200 3500 4025 3200 
L 5450 3200 
Q 5425 2850 5425 1975 
Q 5425 1100 5450 725 
L 4925 725 
L 4925 2800 
L 1825 2800 
L 1825 650 
L 1300 650 
Q 1325 1050 1325 1925 
Q 1325 2800 1300 3150 
Q 950 2900 750 2725 
Q 525 2975 300 3125 
Q 625 3275 1062 3612 
Q 1500 3950 1875 4462 
Q 2250 4975 2375 5250 
Q 2625 5075 2900 5000 
z
M 3650 2150 
Q 3575 1900 3450 1337 
Q 3325 775 3050 412 
Q 2775 50 2162 -225 
Q 1550 -500 675 -675 
Q 600 -425 400 -175 
Q 1000 -125 1575 50 
Q 2150 225 2475 500 
Q 2800 775 2925 1187 
Q 3050 1600 3050 2225 
Q 3375 2175 3650 2150 
z
M 2225 4075 
Q 1800 3600 1350 3200 
L 3475 3200 
Q 3800 3725 4000 4075 
L 2225 4075 
z
M 3875 750 
Q 4350 525 4850 300 
Q 5350 75 5925 -225 
Q 5775 -425 5650 -700 
Q 5100 -400 4612 -150 
Q 4125 100 3650 300 
Q 3850 600 3875 750 
z
" transform="scale(0.015625)"/>
       <path id="SimHei-8377" d="M 2600 4225 
Q 2600 4000 2625 3700 
L 2125 3700 
Q 2150 4000 2150 4225 
L 1225 4225 
Q 775 4225 300 4175 
L 300 4650 
Q 750 4625 1175 4625 
L 2150 4625 
Q 2150 4900 2125 5175 
L 2625 5175 
Q 2600 4900 2600 4625 
L 3850 4625 
Q 3850 4850 3825 5175 
L 4325 5175 
Q 4300 4850 4300 4625 
L 5200 4625 
Q 5575 4625 6075 4650 
L 6075 4200 
Q 5600 4225 5250 4225 
L 4300 4225 
Q 4300 3975 4325 3625 
L 3825 3625 
Q 3850 3950 3850 4225 
L 2600 4225 
z
M 5250 3275 
Q 5725 3275 6125 3300 
L 6125 2850 
Q 5775 2875 5375 2875 
L 5375 -50 
Q 5375 -325 5200 -425 
Q 5025 -525 4475 -600 
Q 4450 -350 4225 -50 
Q 4600 -75 4762 -62 
Q 4925 -50 4925 125 
L 4925 2875 
L 3175 2875 
Q 2750 2875 2300 2850 
L 2300 3300 
Q 2750 3275 3175 3275 
L 5250 3275 
z
M 4300 2225 
Q 4275 1925 4275 1300 
Q 4275 700 4300 425 
L 2500 425 
Q 2525 700 2525 1325 
Q 2525 1950 2500 2225 
L 4300 2225 
z
M 2275 3450 
Q 2150 3350 2037 3212 
Q 1925 3075 1775 2875 
L 1775 325 
Q 1775 -175 1800 -575 
L 1300 -575 
Q 1325 -150 1325 325 
L 1325 2225 
Q 950 1725 600 1400 
Q 425 1625 200 1800 
Q 650 2125 1175 2825 
Q 1700 3525 1750 3775 
Q 2000 3600 2275 3450 
z
M 3850 850 
L 3850 1825 
L 2975 1825 
L 2975 850 
L 3850 850 
z
" transform="scale(0.015625)"/>
      </defs>
      <use xlink:href="#SimHei-8d1f"/>
      <use xlink:href="#SimHei-8377" x="100"/>
     </g>
    </g>
   </g>
   <g id="line2d_25">
    <path d="M 73.832727 245.066415 
L 87.948142 245.066415 
L 87.948142 159.677807 
L 102.063557 159.677807 
L 102.063557 229.957208 
L 116.178972 229.957208 
L 116.178972 239.540762 
L 130.294387 239.540762 
L 130.294387 163.13134 
L 144.409802 163.13134 
L 144.409802 248.606287 
L 158.525217 248.606287 
L 158.525217 203.96937 
L 172.640632 203.96937 
L 172.640632 159.159777 
L 186.756047 159.159777 
L 186.756047 161.404574 
L 200.871462 161.404574 
L 200.871462 106.320719 
L 214.986877 106.320719 
L 214.986877 104.593953 
L 229.102292 104.593953 
L 229.102292 103.816908 
L 243.217708 103.816908 
L 243.217708 100.708728 
L 257.333123 100.708728 
L 257.333123 103.644231 
L 271.448538 103.644231 
L 271.448538 104.2486 
L 285.563953 104.2486 
L 285.563953 106.752411 
L 299.679368 106.752411 
L 299.679368 105.457336 
L 313.794783 105.457336 
L 313.794783 188.428471 
L 327.910198 188.428471 
L 327.910198 98.981961 
L 342.025613 98.981961 
L 342.025613 100.449713 
L 356.141028 100.449713 
L 356.141028 101.14042 
L 370.256443 101.14042 
L 370.256443 154.756522 
L 384.371858 154.756522 
L 384.371858 156.742304 
L 398.487273 156.742304 
L 398.487273 157.087657 
" clip-path="url(#pc1e088e205)" style="fill: none; stroke: #0000ff; stroke-width: 1.5; stroke-linecap: square"/>
   </g>
   <g id="patch_3">
    <path d="M 57.6 307.584 
L 57.6 41.472 
" style="fill: none; stroke: #000000; stroke-width: 0.8; stroke-linejoin: miter; stroke-linecap: square"/>
   </g>
   <g id="patch_4">
    <path d="M 414.72 307.584 
L 414.72 41.472 
" style="fill: none; stroke: #000000; stroke-width: 0.8; stroke-linejoin: miter; stroke-linecap: square"/>
   </g>
   <g id="patch_5">
    <path d="M 57.6 307.584 
L 414.72 307.584 
" style="fill: none; stroke: #000000; stroke-width: 0.8; stroke-linejoin: miter; stroke-linecap: square"/>
   </g>
   <g id="patch_6">
    <path d="M 57.6 41.472 
L 414.72 41.472 
" style="fill: none; stroke: #000000; stroke-width: 0.8; stroke-linejoin: miter; stroke-linecap: square"/>
   </g>
   <g id="text_15">
    <!-- 24小时负荷数据及不确定集 -->
    <g transform="translate(164.16 35.472) scale(0.12 -0.12)">
     <defs>
      <path id="SimHei-34" d="M 2000 1100 
L 75 1100 
L 75 1525 
L 2100 4450 
L 2475 4450 
L 2475 1525 
L 3075 1525 
L 3075 1100 
L 2475 1100 
L 2475 150 
L 2000 150 
L 2000 1100 
z
M 2000 1525 
L 2000 3500 
L 600 1525 
L 2000 1525 
z
" transform="scale(0.015625)"/>
      <path id="SimHei-5c0f" d="M 3500 5150 
Q 3475 4800 3475 4200 
L 3475 175 
Q 3475 -300 3225 -425 
Q 2975 -550 2375 -600 
Q 2325 -300 2150 -25 
Q 2700 -25 2837 0 
Q 2975 25 2975 300 
L 2975 4200 
Q 2975 4650 2950 5150 
L 3500 5150 
z
M 2075 3400 
Q 1850 2775 1550 1962 
Q 1250 1150 1025 750 
Q 775 950 500 1000 
Q 925 1750 1175 2487 
Q 1425 3225 1500 3575 
Q 1800 3425 2075 3400 
z
M 4675 3600 
Q 5675 1800 5875 1150 
Q 5625 1100 5375 925 
Q 5000 2000 4225 3325 
Q 4425 3425 4675 3600 
z
" transform="scale(0.015625)"/>
      <path id="SimHei-6570" d="M 4525 4925 
Q 4475 4800 4400 4587 
Q 4325 4375 4175 3825 
L 5325 3825 
Q 5575 3825 5925 3850 
L 5925 3400 
Q 5650 3425 5500 3425 
Q 5500 3025 5362 2162 
Q 5225 1300 4875 675 
Q 5125 375 5437 137 
Q 5750 -100 6025 -200 
Q 5725 -425 5625 -625 
Q 5325 -450 5075 -225 
Q 4825 0 4575 325 
Q 4300 25 3987 -187 
Q 3675 -400 3200 -650 
Q 3075 -425 2850 -300 
Q 3225 -150 3650 125 
Q 4075 400 4300 675 
Q 4125 1025 3962 1425 
Q 3800 1825 3675 2475 
Q 3600 2275 3425 1950 
Q 3250 2050 3000 2150 
Q 3400 2850 3650 3675 
Q 3900 4500 3975 5100 
Q 4275 4975 4525 4925 
z
M 2100 2250 
Q 2000 2150 1875 1925 
L 3250 1925 
Q 3100 1300 2725 675 
Q 3125 525 3350 400 
Q 3225 225 3125 25 
Q 2900 175 2450 325 
Q 1950 -225 725 -650 
Q 600 -375 400 -275 
Q 1575 0 2000 475 
Q 1300 650 850 775 
Q 1000 1000 1250 1525 
Q 1000 1525 425 1500 
L 425 1950 
Q 900 1925 1400 1925 
Q 1500 2150 1550 2425 
Q 1825 2325 2100 2250 
z
M 1775 3950 
Q 1775 4550 1750 5100 
L 2250 5100 
Q 2225 4575 2225 3950 
Q 3075 3950 3425 3975 
L 3425 3525 
Q 3075 3550 2225 3550 
Q 2225 2825 2250 2425 
L 1750 2425 
Q 1775 2775 1775 3300 
Q 1650 3100 1300 2787 
Q 950 2475 650 2300 
Q 525 2525 275 2625 
Q 500 2700 875 2975 
Q 1250 3250 1450 3550 
Q 950 3550 500 3525 
L 500 3975 
Q 925 3950 1775 3950 
z
M 3975 3175 
Q 4200 1700 4600 1125 
Q 4850 1700 4937 2287 
Q 5025 2875 5050 3425 
L 4075 3425 
L 3975 3175 
z
M 1450 1000 
Q 1750 925 2275 800 
Q 2475 1050 2650 1525 
L 1725 1525 
Q 1600 1275 1450 1000 
z
M 3325 4825 
Q 3200 4625 3125 4450 
Q 3050 4275 2925 4025 
Q 2725 4125 2525 4175 
Q 2725 4500 2900 5000 
Q 3150 4875 3325 4825 
z
M 2575 3375 
Q 2900 3050 3200 2725 
Q 3050 2600 2875 2425 
Q 2525 2850 2300 3100 
Q 2450 3225 2575 3375 
z
M 925 5000 
Q 1275 4650 1500 4300 
L 1125 4075 
Q 950 4425 600 4725 
Q 825 4875 925 5000 
z
" transform="scale(0.015625)"/>
      <path id="SimHei-636e" d="M 5750 4775 
Q 5725 4550 5725 4225 
L 5725 3900 
Q 5725 3450 5750 3250 
L 3100 3250 
L 3100 2500 
L 4250 2500 
Q 4250 2725 4225 3175 
L 4700 3175 
Q 4675 2775 4675 2500 
L 5350 2500 
Q 5800 2500 6100 2525 
L 6100 2075 
Q 5800 2100 5375 2100 
L 4675 2100 
L 4675 1425 
L 5775 1425 
Q 5750 950 5750 800 
L 5750 175 
Q 5750 -225 5775 -575 
L 5325 -575 
L 5325 -225 
L 3675 -225 
L 3675 -600 
L 3225 -600 
Q 3250 -325 3250 100 
L 3250 825 
Q 3250 1075 3225 1425 
L 4250 1425 
L 4250 2100 
L 3075 2100 
Q 3050 1375 2887 737 
Q 2725 100 2425 -475 
Q 2200 -325 1950 -250 
Q 2250 150 2387 600 
Q 2525 1050 2600 1562 
Q 2675 2075 2675 2625 
L 2675 3575 
Q 2675 3975 2650 4775 
L 5750 4775 
z
M 1275 4425 
Q 1275 4775 1250 5075 
L 1750 5075 
Q 1725 4800 1725 4425 
L 1725 3775 
Q 1975 3775 2500 3800 
L 2500 3375 
Q 1975 3400 1725 3400 
L 1725 2450 
Q 2050 2625 2400 2850 
Q 2425 2650 2525 2475 
Q 2050 2200 1725 2000 
L 1725 175 
Q 1725 -300 1487 -400 
Q 1250 -500 775 -575 
Q 725 -325 600 -50 
Q 1025 -50 1150 -12 
Q 1275 25 1275 325 
L 1275 1800 
Q 900 1600 525 1325 
Q 450 1525 275 1800 
Q 775 1975 1275 2250 
L 1275 3400 
Q 800 3400 350 3375 
L 350 3800 
Q 800 3775 1275 3775 
L 1275 4425 
z
M 5300 3625 
L 5300 4400 
L 3100 4400 
L 3100 3625 
L 5300 3625 
z
M 5325 150 
L 5325 1075 
L 3675 1075 
L 3675 150 
L 5325 150 
z
" transform="scale(0.015625)"/>
      <path id="SimHei-53ca" d="M 5150 4800 
Q 5000 4525 4762 4037 
Q 4525 3550 4275 3125 
L 5475 3125 
Q 5125 2100 4837 1612 
Q 4550 1125 4250 775 
Q 4525 575 5062 350 
Q 5600 125 6150 0 
Q 5875 -300 5800 -525 
Q 4875 -225 3900 450 
Q 3375 50 2837 -162 
Q 2300 -375 1675 -550 
Q 1625 -425 1375 -125 
Q 2800 175 3525 750 
Q 3175 1125 2850 1587 
Q 2525 2050 2275 2500 
Q 2175 2075 2025 1687 
Q 1875 1300 1687 962 
Q 1500 625 1275 337 
Q 1050 50 625 -400 
Q 500 -225 250 25 
Q 875 500 1250 1150 
Q 1625 1800 1775 2387 
Q 1925 2975 1987 3512 
Q 2050 4050 2050 4400 
L 1750 4400 
Q 1375 4400 925 4375 
L 925 4825 
Q 1375 4800 1750 4800 
L 5150 4800 
z
M 2400 3125 
Q 2625 2675 3100 2000 
Q 3575 1325 3875 1075 
Q 4100 1300 4350 1712 
Q 4600 2125 4825 2725 
L 3525 2725 
Q 3700 3000 3900 3387 
Q 4100 3775 4375 4400 
L 2525 4400 
Q 2500 4000 2400 3125 
z
" transform="scale(0.015625)"/>
      <path id="SimHei-4e0d" d="M 5975 4450 
Q 5525 4475 5200 4475 
L 3725 4475 
Q 3550 4125 3300 3700 
L 3300 575 
Q 3300 75 3325 -550 
L 2775 -550 
Q 2800 50 2800 575 
L 2800 3025 
Q 2025 1950 700 1050 
Q 500 1350 325 1475 
Q 825 1700 1650 2437 
Q 2475 3175 3175 4475 
L 1525 4475 
Q 1050 4475 525 4450 
L 525 4950 
Q 1275 4925 1675 4925 
L 5175 4925 
Q 5500 4925 5975 4950 
L 5975 4450 
z
M 5450 1125 
Q 4975 1725 3750 2975 
Q 3950 3150 4075 3325 
Q 4675 2775 5100 2362 
Q 5525 1950 5900 1550 
Q 5650 1350 5450 1125 
z
" transform="scale(0.015625)"/>
      <path id="SimHei-786e" d="M 4975 -200 
Q 5250 -175 5362 -125 
Q 5475 -75 5475 125 
L 5475 975 
L 4625 975 
L 4625 -400 
L 4200 -400 
L 4200 975 
L 3500 975 
Q 3475 625 3325 237 
Q 3175 -150 2800 -600 
Q 2625 -350 2325 -325 
Q 2650 -50 2812 262 
Q 2975 575 3025 1000 
Q 3075 1425 3087 2187 
Q 3100 2950 3075 3425 
L 4250 3425 
Q 4475 3825 4650 4225 
L 3625 4225 
Q 3325 3875 2850 3250 
Q 2650 3425 2425 3500 
Q 2875 3975 3175 4425 
Q 3475 4875 3625 5300 
Q 3900 5175 4200 5100 
Q 4075 5025 3825 4575 
L 5350 4575 
Q 4900 3775 4750 3425 
L 5950 3425 
Q 5925 2975 5925 2450 
L 5925 -50 
Q 5950 -350 5775 -462 
Q 5600 -575 5175 -675 
Q 5150 -425 4975 -200 
z
M 200 1975 
Q 550 2300 850 2837 
Q 1150 3375 1300 4225 
Q 825 4225 525 4200 
L 525 4650 
Q 875 4625 1200 4625 
L 1900 4625 
Q 2325 4625 2625 4650 
L 2625 4200 
Q 2325 4225 1800 4225 
Q 1650 3525 1400 2925 
L 2525 2925 
Q 2500 2500 2500 2125 
L 2500 1075 
Q 2500 650 2525 125 
L 2075 125 
L 2075 600 
L 1350 600 
L 1350 -300 
L 900 -300 
Q 925 225 925 600 
L 925 2100 
Q 800 1900 625 1625 
Q 475 1825 200 1975 
z
M 2075 975 
L 2075 2575 
L 1350 2575 
L 1350 975 
L 2075 975 
z
M 5475 2350 
L 5475 3075 
L 4625 3075 
L 4625 2350 
L 5475 2350 
z
M 5475 1325 
L 5475 2000 
L 4625 2000 
L 4625 1325 
L 5475 1325 
z
M 4200 2350 
L 4200 3075 
L 3500 3075 
L 3500 2350 
L 4200 2350 
z
M 4200 1325 
L 4200 2000 
L 3500 2000 
L 3500 1325 
L 4200 1325 
z
" transform="scale(0.015625)"/>
      <path id="SimHei-5b9a" d="M 4200 3125 
Q 4675 3125 5175 3150 
L 5175 2675 
Q 4725 2700 4100 2700 
L 3550 2700 
L 3550 1700 
L 4600 1700 
Q 4875 1700 5375 1725 
L 5375 1250 
Q 4875 1275 4575 1275 
L 3550 1275 
L 3550 100 
Q 4600 -25 6050 125 
Q 5850 -200 5800 -475 
Q 4800 -475 4150 -450 
Q 3500 -425 3050 -300 
Q 2600 -175 2250 75 
Q 1900 325 1600 675 
Q 1200 -50 675 -575 
Q 450 -350 175 -250 
Q 875 300 1200 1050 
Q 1525 1800 1550 2200 
Q 1800 2050 2150 1975 
Q 2075 1875 1987 1662 
Q 1900 1450 1775 1125 
Q 1950 900 2300 612 
Q 2650 325 3050 200 
L 3050 2700 
L 2250 2700 
Q 1825 2700 1400 2675 
L 1400 3150 
Q 1825 3125 2400 3125 
L 4200 3125 
z
M 5750 4275 
Q 5725 3925 5725 3750 
Q 5725 3575 5750 3275 
L 5225 3275 
L 5225 3875 
L 1225 3875 
L 1225 3275 
L 700 3275 
Q 725 3475 725 3725 
Q 725 3975 700 4275 
L 5750 4275 
z
M 2650 5050 
Q 2875 5125 3100 5300 
Q 3375 4975 3600 4550 
Q 3250 4400 3100 4300 
Q 3050 4525 2650 5050 
z
" transform="scale(0.015625)"/>
      <path id="SimHei-96c6" d="M 2275 4925 
Q 2125 4800 2025 4662 
Q 1925 4525 1850 4350 
L 4925 4350 
Q 5300 4350 5750 4375 
L 5750 3975 
L 3650 3975 
L 3650 3575 
L 4625 3575 
Q 4925 3575 5325 3600 
L 5325 3175 
Q 4925 3200 4625 3200 
L 3650 3200 
L 3650 2800 
L 4675 2800 
Q 5000 2800 5425 2825 
L 5425 2400 
Q 5000 2425 4675 2425 
L 3650 2425 
L 3650 2075 
L 4875 2075 
Q 5275 2075 5675 2100 
L 5675 1675 
Q 5300 1700 4900 1700 
L 1650 1700 
L 1650 1500 
L 1150 1500 
Q 1200 1950 1200 2325 
L 1200 3475 
Q 1050 3250 937 3125 
Q 825 3000 675 2825 
Q 500 3000 300 3125 
Q 475 3325 875 3825 
Q 1275 4325 1462 4650 
Q 1650 4975 1725 5225 
Q 1950 5100 2275 4925 
z
M 2975 1200 
Q 2975 1300 2950 1625 
L 3475 1625 
Q 3450 1275 3450 1200 
L 5050 1200 
Q 5500 1200 5925 1225 
L 5925 825 
L 4150 825 
Q 4500 525 4925 362 
Q 5350 200 6100 25 
Q 5875 -225 5775 -475 
Q 5275 -300 4962 -162 
Q 4650 -25 4387 137 
Q 4125 300 3950 462 
Q 3775 625 3575 825 
L 3450 825 
L 3450 250 
Q 3450 -275 3500 -650 
L 2950 -650 
Q 2975 -300 2975 250 
L 2975 825 
L 2875 825 
Q 2700 575 2475 375 
Q 2250 175 1987 12 
Q 1725 -150 1425 -300 
Q 1125 -450 700 -575 
Q 600 -325 400 -75 
Q 925 50 1475 262 
Q 2025 475 2300 825 
L 500 825 
L 500 1225 
Q 800 1200 1400 1200 
L 2975 1200 
z
M 3150 2800 
L 3150 3200 
L 1650 3200 
L 1650 2800 
L 3150 2800 
z
M 3150 3575 
L 3150 3975 
L 1650 3975 
L 1650 3575 
L 3150 3575 
z
M 3150 2075 
L 3150 2425 
L 1650 2425 
L 1650 2075 
L 3150 2075 
z
M 3450 5250 
Q 3575 5150 3712 5000 
Q 3850 4850 4000 4650 
Q 3850 4525 3575 4375 
Q 3425 4575 3325 4700 
Q 3225 4825 3075 4950 
Q 3275 5075 3450 5250 
z
" transform="scale(0.015625)"/>
     </defs>
     <use xlink:href="#SimHei-32"/>
     <use xlink:href="#SimHei-34" x="50"/>
     <use xlink:href="#SimHei-5c0f" x="100"/>
     <use xlink:href="#SimHei-65f6" x="200"/>
     <use xlink:href="#SimHei-8d1f" x="300"/>
     <use xlink:href="#SimHei-8377" x="400"/>
     <use xlink:href="#SimHei-6570" x="500"/>
     <use xlink:href="#SimHei-636e" x="600"/>
     <use xlink:href="#SimHei-53ca" x="700"/>
     <use xlink:href="#SimHei-4e0d" x="800"/>
     <use xlink:href="#SimHei-786e" x="900"/>
     <use xlink:href="#SimHei-5b9a" x="1000"/>
     <use xlink:href="#SimHei-96c6" x="1100"/>
    </g>
   </g>
   <g id="legend_1">
    <g id="patch_7">
     <path d="M 315.72 78.06575 
L 407.72 78.06575 
Q 409.72 78.06575 409.72 76.06575 
L 409.72 48.472 
Q 409.72 46.472 407.72 46.472 
L 315.72 46.472 
Q 313.72 46.472 313.72 48.472 
L 313.72 76.06575 
Q 313.72 78.06575 315.72 78.06575 
z
" style="fill: #ffffff; opacity: 0.8; stroke: #cccccc; stroke-linejoin: miter"/>
    </g>
    <g id="line2d_26">
     <path d="M 317.72 55.018875 
L 327.72 55.018875 
L 327.72 55.018875 
L 337.72 55.018875 
L 337.72 55.018875 
" style="fill: none; stroke: #0000ff; stroke-width: 1.5; stroke-linecap: square"/>
    </g>
    <g id="text_16">
     <!-- 预计负荷 -->
     <g transform="translate(345.72 58.518875) scale(0.1 -0.1)">
      <defs>
       <path id="SimHei-9884" d="M 5200 4800 
Q 5575 4800 5950 4825 
L 5950 4400 
Q 5575 4425 5200 4425 
L 4500 4425 
Q 4425 4050 4350 3600 
L 5725 3600 
Q 5700 3225 5700 2800 
L 5700 1725 
Q 5700 1300 5725 850 
L 5250 850 
L 5250 3225 
L 3550 3225 
L 3550 800 
L 3075 800 
Q 3100 1375 3100 1725 
L 3100 2775 
Q 3100 3175 3075 3600 
L 3900 3600 
Q 4000 4150 4000 4425 
L 3725 4425 
Q 3300 4425 2850 4400 
L 2850 4825 
Q 3325 4800 3725 4800 
L 5200 4800 
z
M 2600 1775 
Q 2350 1825 2150 1825 
Q 2250 2250 2300 2450 
L 1750 2450 
L 1750 125 
Q 1725 -300 1425 -400 
Q 1125 -500 750 -500 
Q 700 -225 575 25 
Q 1125 -25 1212 37 
Q 1300 100 1300 350 
L 1300 2450 
L 1025 2450 
Q 700 2450 350 2425 
L 350 2850 
Q 700 2825 1000 2825 
L 2850 2825 
Q 2725 2325 2600 1775 
z
M 4725 2875 
Q 4625 2575 4600 2100 
Q 4575 1625 4462 1037 
Q 4350 450 3962 62 
Q 3575 -325 2925 -675 
Q 2700 -500 2475 -350 
Q 3075 -125 3437 200 
Q 3800 525 3950 937 
Q 4100 1350 4137 1850 
Q 4175 2350 4175 2925 
L 4725 2875 
z
M 1625 2900 
Q 1275 3275 800 3650 
Q 925 3775 1075 3950 
Q 1250 3825 1425 3675 
Q 1750 4150 1950 4375 
L 1400 4375 
Q 900 4375 450 4350 
L 450 4775 
Q 900 4750 1375 4750 
L 2575 4750 
L 2575 4375 
Q 2200 4100 1725 3400 
L 1950 3200 
Q 1750 3025 1625 2900 
z
M 4775 725 
Q 5725 0 6075 -325 
Q 5850 -500 5725 -650 
Q 5400 -325 5137 -87 
Q 4875 150 4525 350 
Q 4650 525 4775 725 
z
" transform="scale(0.015625)"/>
       <path id="SimHei-8ba1" d="M 3925 3100 
L 3925 4350 
Q 3925 4850 3900 5125 
L 4425 5125 
Q 4400 4800 4400 4550 
L 4400 3100 
L 5425 3100 
Q 5725 3100 6075 3125 
L 6075 2650 
Q 5700 2675 5450 2675 
L 4400 2675 
L 4400 175 
Q 4400 -125 4425 -550 
L 3900 -550 
Q 3925 -125 3925 150 
L 3925 2675 
L 2950 2675 
Q 2575 2675 2200 2650 
L 2200 3125 
Q 2575 3100 2900 3100 
L 3925 3100 
z
M 1775 3150 
Q 1750 2675 1750 2150 
L 1750 625 
Q 2175 1050 2425 1400 
Q 2575 1200 2775 1000 
L 2075 300 
Q 1750 -25 1450 -350 
Q 1275 -125 1125 50 
Q 1300 250 1275 650 
L 1275 2725 
Q 600 2725 275 2700 
L 275 3175 
Q 675 3150 825 3150 
L 1775 3150 
z
M 1150 5050 
Q 1475 4725 2175 4000 
Q 1950 3800 1750 3625 
Q 1425 4100 775 4750 
Q 950 4875 1150 5050 
z
" transform="scale(0.015625)"/>
      </defs>
      <use xlink:href="#SimHei-9884"/>
      <use xlink:href="#SimHei-8ba1" x="100"/>
      <use xlink:href="#SimHei-8d1f" x="200"/>
      <use xlink:href="#SimHei-8377" x="300"/>
     </g>
    </g>
    <g id="patch_8">
     <path d="M 317.72 72.81575 
L 337.72 72.81575 
L 337.72 65.81575 
L 317.72 65.81575 
z
" style="fill: #add8e6; fill-opacity: 0.5; stroke: #add8e6; stroke-opacity: 0.5; stroke-linejoin: miter"/>
    </g>
    <g id="text_17">
     <!-- 负荷波动范围 -->
     <g transform="translate(345.72 72.81575) scale(0.1 -0.1)">
      <defs>
       <path id="SimHei-6ce2" d="M 5075 3275 
Q 5175 3600 5225 3850 
L 4325 3850 
L 4325 2750 
L 5550 2750 
Q 5400 2100 5125 1512 
Q 4850 925 4525 550 
Q 4775 350 5200 175 
Q 5625 0 6175 -100 
Q 5900 -300 5775 -600 
Q 5250 -425 4800 -175 
Q 4350 75 4200 225 
Q 3950 25 3537 -212 
Q 3125 -450 2500 -675 
Q 2375 -500 2050 -375 
Q 2525 -250 3062 25 
Q 3600 300 3850 550 
Q 3325 1300 3075 2325 
L 2825 2325 
Q 2800 1400 2487 725 
Q 2175 50 1875 -300 
Q 1700 -150 1375 -50 
Q 1750 325 1950 712 
Q 2150 1100 2262 1475 
Q 2375 1850 2387 2825 
Q 2400 3800 2350 4275 
L 3875 4275 
Q 3875 4850 3850 5200 
L 4350 5200 
Q 4325 4900 4325 4275 
L 5850 4275 
Q 5825 4125 5750 3837 
Q 5675 3550 5600 3200 
Q 5300 3250 5075 3275 
z
M 3525 2325 
Q 3800 1400 4200 925 
Q 4650 1475 4925 2325 
L 3525 2325 
z
M 1950 1700 
Q 1700 1375 1262 712 
Q 825 50 675 -200 
Q 475 50 225 275 
Q 525 525 937 1100 
Q 1350 1675 1550 2100 
L 1950 1700 
z
M 3875 2750 
L 3875 3850 
L 2850 3850 
L 2850 2750 
L 3875 2750 
z
M 925 4925 
Q 1600 4525 2000 4250 
Q 1800 4025 1675 3800 
Q 1250 4150 625 4500 
Q 775 4700 925 4925 
z
M 600 3525 
Q 1125 3250 1725 2850 
Q 1525 2675 1400 2425 
Q 925 2825 350 3100 
Q 450 3275 600 3525 
z
" transform="scale(0.015625)"/>
       <path id="SimHei-52a8" d="M 4125 5150 
Q 4425 5075 4700 5075 
Q 4650 4825 4637 4512 
Q 4625 4200 4625 3750 
L 6025 3750 
Q 6000 3425 5975 3025 
L 5850 175 
Q 5775 -325 5437 -437 
Q 5100 -550 4675 -600 
Q 4600 -300 4425 -50 
Q 4975 -75 5175 12 
Q 5375 100 5375 350 
L 5525 3325 
L 4625 3325 
Q 4575 2225 4462 1650 
Q 4350 1075 4112 587 
Q 3875 100 3150 -675 
Q 2900 -425 2700 -350 
Q 3175 25 3475 437 
Q 3775 850 3900 1287 
Q 4025 1725 4075 2200 
Q 4125 2675 4150 3325 
L 3725 3325 
Q 3450 3325 3075 3300 
L 3075 3775 
Q 3450 3750 3775 3750 
L 4150 3750 
L 4150 4450 
Q 4150 4800 4125 5150 
z
M 275 3025 
Q 650 3000 1175 3000 
L 2125 3000 
Q 2575 3000 3150 3025 
L 3150 2575 
Q 2575 2600 2150 2600 
L 1875 2600 
Q 1725 2200 1537 1750 
Q 1350 1300 1100 850 
Q 2075 950 2575 1050 
Q 2450 1350 2175 1800 
Q 2450 1950 2575 2050 
Q 2825 1600 3000 1287 
Q 3175 975 3375 525 
Q 3175 400 2925 275 
Q 2825 500 2750 650 
Q 1950 525 1462 450 
Q 975 375 625 250 
Q 525 500 375 725 
Q 700 925 962 1525 
Q 1225 2125 1350 2600 
L 1175 2600 
Q 650 2600 275 2575 
L 275 3025 
z
M 2000 4425 
Q 2425 4425 2950 4450 
L 2950 3975 
Q 2425 4000 2000 4000 
L 1400 4000 
Q 1000 4000 625 3975 
L 625 4450 
Q 975 4425 1375 4425 
L 2000 4425 
z
" transform="scale(0.015625)"/>
       <path id="SimHei-8303" d="M 4200 875 
Q 4150 1150 3925 1400 
Q 4450 1400 4612 1450 
Q 4775 1500 4800 1725 
L 4850 2700 
L 3400 2700 
L 3400 325 
Q 3450 -25 3825 0 
L 5150 0 
Q 5325 0 5412 100 
Q 5500 200 5550 625 
Q 5825 450 6075 375 
Q 5925 -150 5775 -275 
Q 5625 -400 5300 -400 
L 3475 -400 
Q 2900 -400 2900 225 
L 2900 2000 
Q 2900 2625 2875 3100 
L 5375 3100 
Q 5350 2750 5325 2175 
Q 5300 1600 5250 1375 
Q 5200 1150 4962 1050 
Q 4725 950 4200 875 
z
M 1875 4400 
Q 1875 4700 1850 5125 
L 2400 5125 
Q 2375 4775 2375 4400 
L 3975 4400 
Q 3975 4825 3925 5125 
L 4500 5125 
Q 4475 4825 4475 4400 
L 5375 4400 
Q 5650 4400 6050 4425 
L 6050 3975 
Q 5650 4000 5375 4000 
L 4475 4000 
Q 4475 3675 4500 3350 
L 3975 3350 
L 3975 4000 
L 2375 4000 
L 2375 3325 
L 1850 3325 
Q 1875 3650 1875 4000 
L 1025 4000 
Q 550 4000 350 3975 
L 350 4425 
Q 775 4400 1025 4400 
L 1875 4400 
z
M 2250 900 
Q 2000 600 1562 100 
Q 1125 -400 925 -625 
Q 800 -450 525 -250 
Q 775 -75 1237 425 
Q 1700 925 1925 1250 
Q 2075 1075 2250 900 
z
M 725 2275 
Q 1325 1925 1800 1600 
Q 1550 1425 1425 1200 
Q 975 1575 375 1900 
Q 550 2075 725 2275 
z
M 1300 3450 
Q 1750 3150 2250 2700 
Q 2050 2575 1850 2350 
Q 1400 2800 925 3100 
Q 1125 3275 1300 3450 
z
" transform="scale(0.015625)"/>
       <path id="SimHei-56f4" d="M 5775 4950 
Q 5750 4400 5750 3850 
L 5750 550 
Q 5750 50 5775 -550 
L 5275 -550 
L 5275 -150 
L 1150 -150 
L 1150 -625 
L 650 -625 
Q 675 100 675 675 
L 675 3800 
Q 675 4350 650 4950 
L 5775 4950 
z
M 5275 225 
L 5275 4575 
L 1150 4575 
L 1150 225 
L 5275 225 
z
M 2850 3875 
Q 2850 4050 2825 4400 
L 3300 4400 
Q 3275 4075 3275 3875 
L 4050 3875 
Q 4650 3875 4875 3900 
L 4875 3500 
Q 4550 3525 3950 3525 
L 3275 3525 
L 3275 3050 
L 3775 3050 
Q 4275 3050 4625 3075 
L 4625 2675 
Q 4275 2700 3775 2700 
L 3275 2700 
L 3275 2175 
L 4875 2175 
Q 4775 1225 4725 1075 
Q 4675 925 4475 837 
Q 4275 750 3825 700 
Q 3800 925 3650 1175 
Q 4125 1150 4250 1225 
Q 4375 1300 4375 1800 
L 3275 1800 
L 3275 1125 
Q 3275 825 3300 400 
L 2825 400 
Q 2850 925 2850 1225 
L 2850 1800 
L 2200 1800 
Q 1725 1800 1450 1775 
L 1450 2200 
Q 1800 2175 2200 2175 
L 2850 2175 
L 2850 2700 
Q 2100 2700 1775 2675 
L 1775 3075 
Q 2225 3050 2850 3050 
L 2850 3525 
Q 2050 3525 1625 3500 
L 1625 3900 
Q 2050 3875 2850 3875 
z
" transform="scale(0.015625)"/>
      </defs>
      <use xlink:href="#SimHei-8d1f"/>
      <use xlink:href="#SimHei-8377" x="100"/>
      <use xlink:href="#SimHei-6ce2" x="200"/>
      <use xlink:href="#SimHei-52a8" x="300"/>
      <use xlink:href="#SimHei-8303" x="400"/>
      <use xlink:href="#SimHei-56f4" x="500"/>
     </g>
    </g>
   </g>
  </g>
 </g>
 <defs>
  <clipPath id="pc1e088e205">
   <rect x="57.6" y="41.472" width="357.12" height="266.112"/>
  </clipPath>
 </defs>
</svg>
